<?xml version="1.0" encoding="UTF-8"?>
<svg id="Calque_1" data-name="Calque 1" xmlns="http://www.w3.org/2000/svg" viewBox="0 0 1940 1321.356">
  <line x1="95.291" y1="117.502" x2="1929.091" y2="117.502" style="fill: none; stroke: #cfd0d0; stroke-dasharray: 0 0 17.152 6.44; stroke-linejoin: round; stroke-width: 2.4px;"/>
  <line x1="95.291" y1="278.693" x2="1929.091" y2="278.693" style="fill: none; stroke: #cfd0d0; stroke-dasharray: 0 0 17.152 6.44; stroke-linejoin: round; stroke-width: 2.4px;"/>
  <line x1="80.286" y1="117.6" x2="91.782" y2="117.6" style="fill: none; stroke: #181716; stroke-width: 2.4px;"/>
  <line x1="80.286" y1="278.736" x2="91.782" y2="278.736" style="fill: none; stroke: #181716; stroke-width: 2.4px;"/>
  <line x1="95.291" y1="444.337" x2="1929.091" y2="444.337" style="fill: none; stroke: #cfd0d0; stroke-dasharray: 0 0 17.152 6.44; stroke-linejoin: round; stroke-width: 2.4px;"/>
  <line x1="95.291" y1="605.529" x2="1929.091" y2="605.529" style="fill: none; stroke: #cfd0d0; stroke-dasharray: 0 0 17.152 6.44; stroke-linejoin: round; stroke-width: 2.4px;"/>
  <line x1="95.291" y1="769.341" x2="1929.091" y2="769.341" style="fill: none; stroke: #cfd0d0; stroke-dasharray: 0 0 17.152 6.44; stroke-linejoin: round; stroke-width: 2.4px;"/>
  <line x1="95.291" y1="933.158" x2="1929.091" y2="933.158" style="fill: none; stroke: #cfd0d0; stroke-dasharray: 0 0 17.152 6.44; stroke-linejoin: round; stroke-width: 2.4px;"/>
  <polygon points="1930.093 1091.523 94.293 1091.523 94.293 360.171 153.51 352.075 212.734 334.283 271.949 342.371 331.173 335.899 390.39 355.315 449.614 345.603 508.829 337.515 568.046 321.331 627.27 303.539 686.485 306.771 745.709 295.443 804.926 285.739 864.15 310.011 923.365 287.355 982.581 308.395 1041.805 298.683 1101.021 301.915 1160.245 263.083 1219.461 276.027 1278.677 321.331 1337.901 284.123 1397.117 279.267 1456.341 279.267 1515.557 310.011 1574.781 306.771 1633.997 314.859 1693.213 303.539 1752.437 311.627 1811.653 316.483 1870.877 292.211 1930.093 295.443 1930.093 1091.523" style="fill: #db2118;"/>
  <polygon points="1930.093 1091.523 94.293 1091.523 94.293 360.171 153.51 352.075 212.734 334.283 271.949 342.371 331.173 335.899 390.39 355.315 449.614 345.603 508.829 337.515 568.046 321.331 627.27 303.539 686.485 306.771 745.709 295.443 804.926 285.739 864.15 310.011 923.365 287.355 982.581 308.395 1041.805 298.683 1101.021 326.187 1160.245 288.971 1219.461 298.683 1278.677 343.987 1337.901 306.771 1397.117 300.299 1456.341 301.915 1515.557 331.043 1574.781 329.427 1633.997 337.515 1693.213 327.811 1752.437 335.899 1811.653 342.371 1870.877 318.099 1930.093 321.331 1930.093 1091.523" style="fill: #535656;"/>
  <polygon points="1930.093 1091.523 94.293 1091.523 94.293 379.587 153.51 368.259 212.734 348.843 271.949 355.315 331.173 348.843 390.39 366.643 449.614 355.315 508.829 347.227 568.046 329.427 627.27 311.627 686.485 313.243 745.709 301.915 804.926 290.595 864.15 314.859 923.365 292.211 982.581 313.243 1041.805 301.915 1101.021 329.427 1160.245 293.827 1219.461 301.915 1278.677 348.843 1337.901 306.771 1397.117 301.915 1456.341 303.539 1515.557 331.043 1574.781 329.427 1633.997 337.515 1693.213 327.811 1752.437 335.899 1811.653 342.371 1870.877 318.099 1930.093 321.331 1930.093 1091.523" style="fill: #6398a7;"/>
  <polygon points="1930.093 1091.523 94.293 1091.523 94.293 589.931 153.51 570.515 212.734 552.715 271.949 546.243 331.173 538.155 390.39 549.483 449.614 533.299 508.829 530.059 568.046 521.971 627.27 507.411 686.485 499.323 745.709 500.939 804.926 475.051 864.15 497.699 923.365 470.195 982.581 489.611 1041.805 466.955 1101.021 476.667 1160.245 454.011 1219.461 455.635 1278.677 478.283 1337.901 434.595 1397.117 424.891 1456.341 421.651 1515.557 444.307 1574.781 437.835 1633.997 434.595 1693.213 426.507 1752.437 426.507 1811.653 426.507 1870.877 405.475 1930.093 400.619 1930.093 1091.523" style="fill: #62ac36;"/>
  <polygon points="1930.093 1091.523 94.293 1091.523 94.293 748.499 153.51 735.555 212.734 720.995 271.949 708.051 331.173 693.483 390.39 699.955 449.614 682.155 508.829 675.683 568.046 661.123 627.27 643.323 686.485 633.619 745.709 632.003 804.926 604.491 864.15 623.907 923.365 596.403 982.581 610.963 1041.805 586.691 1101.021 601.259 1160.245 583.459 1219.461 591.547 1278.677 619.059 1337.901 578.603 1397.117 573.747 1456.341 576.987 1515.557 602.875 1574.781 598.019 1633.997 596.403 1693.213 591.547 1752.437 596.403 1811.653 602.875 1870.877 588.315 1930.093 591.547 1930.093 1091.523" style="fill: #c6c7ca;"/>
  <polygon points="1930.093 1091.523 94.293 1091.523 94.293 932.955 153.51 928.099 212.734 918.395 271.949 915.155 331.173 907.067 390.39 915.155 449.614 903.827 508.829 897.355 568.046 894.123 627.27 886.035 686.485 879.563 745.709 874.707 804.926 869.851 864.15 864.995 923.365 863.379 982.581 871.467 1041.805 860.147 1101.021 856.907 1160.245 845.579 1219.461 853.675 1278.677 848.819 1337.901 840.723 1397.117 834.251 1456.341 829.403 1515.557 834.251 1574.781 831.019 1633.997 829.403 1693.213 827.779 1752.437 826.163 1811.653 827.779 1870.877 816.459 1930.093 818.075 1930.093 1091.523" style="fill: #fbd51d;"/>
  <g>
    <path d="M4.652,3.074H29.636V7.292H9.199v10.453H28.089v3.984H9.199v11.672H29.988v4.102H4.652V3.074Z" style="fill: #181716;"/>
    <path d="M35.18,12.402h4.008v3.562c1.188-1.469,2.445-2.523,3.773-3.164s2.805-.961,4.43-.961c3.562,0,5.969,1.242,7.219,3.727,.688,1.359,1.031,3.305,1.031,5.836v16.102h-4.289v-15.82c0-1.531-.227-2.766-.68-3.703-.75-1.562-2.109-2.344-4.078-2.344-1,0-1.82,.102-2.461,.305-1.156,.344-2.172,1.031-3.047,2.062-.703,.828-1.16,1.684-1.371,2.566s-.316,2.145-.316,3.785v13.148h-4.219V12.402Z" style="fill: #181716;"/>
    <path d="M97.589,3.074V7.175h-11.602v30.328h-4.711V7.175h-11.602V3.074h27.914Z" style="fill: #181716;"/>
    <path d="M103.684,3.074l6.49,27.972,7.783-27.972h5.041l7.8,28.025,6.491-28.025h5.113l-9.047,34.43h-4.898l-7.945-28.547-7.992,28.547h-4.898L98.621,3.074h5.063Z" style="fill: #181716;"/>
    <path d="M145.66,2.957h4.219V15.8c1-1.266,1.898-2.156,2.695-2.672,1.359-.891,3.055-1.336,5.086-1.336,3.641,0,6.109,1.273,7.406,3.82,.703,1.391,1.055,3.32,1.055,5.789v16.102h-4.336v-15.82c0-1.844-.234-3.195-.703-4.055-.766-1.375-2.203-2.062-4.312-2.062-1.75,0-3.336,.602-4.758,1.805s-2.133,3.477-2.133,6.82v13.312h-4.219V2.957Z" style="fill: #181716;"/>
    <path d="M194.449,2.511c-2.453,4.766-4.047,8.273-4.781,10.523-1.109,3.422-1.664,7.375-1.664,11.859,0,4.531,.633,8.672,1.898,12.422,.781,2.312,2.32,5.641,4.617,9.984h-2.836c-2.281-3.562-3.695-5.836-4.242-6.82s-1.141-2.32-1.781-4.008c-.875-2.312-1.484-4.781-1.828-7.406-.172-1.359-.258-2.656-.258-3.891,0-4.625,.727-8.742,2.18-12.352,.922-2.297,2.844-5.734,5.766-10.312h2.93Z" style="fill: #181716;"/>
    <path d="M212.586,13.175c.747,.469,1.595,1.289,2.545,2.461V2.957h4.055V37.503h-3.797v-3.492c-.98,1.547-2.141,2.664-3.479,3.352-1.339,.688-2.872,1.031-4.6,1.031-2.786,0-5.199-1.176-7.238-3.527s-3.059-5.48-3.059-9.387c0-3.656,.93-6.824,2.79-9.504,1.86-2.68,4.518-4.02,7.973-4.02,1.915,0,3.518,.406,4.81,1.219Zm-9.417,18.82c1.135,1.812,2.954,2.719,5.457,2.719,1.943,0,3.54-.84,4.792-2.52,1.251-1.68,1.877-4.09,1.877-7.23,0-3.172-.646-5.52-1.936-7.043-1.291-1.523-2.884-2.285-4.78-2.285-2.115,0-3.829,.812-5.142,2.438s-1.97,4.016-1.97,7.172c0,2.688,.567,4.938,1.702,6.75Z" style="fill: #181716;"/>
    <path d="M243.15,14.907c2.219,2.154,3.328,5.323,3.328,9.507,0,4.043-.978,7.384-2.933,10.023-1.955,2.638-4.988,3.957-9.1,3.957-3.429,0-6.152-1.167-8.169-3.5-2.017-2.334-3.025-5.468-3.025-9.402,0-4.215,1.062-7.571,3.188-10.069,2.125-2.498,4.98-3.747,8.564-3.747,3.211,0,5.927,1.077,8.146,3.232Zm-2.62,16.682c1.028-2.114,1.542-4.467,1.542-7.058,0-2.341-.371-4.245-1.112-5.712-1.174-2.31-3.198-3.465-6.072-3.465-2.549,0-4.403,.983-5.562,2.95-1.159,1.967-1.738,4.338-1.738,7.116,0,2.669,.579,4.893,1.738,6.672,1.158,1.779,2.997,2.668,5.516,2.668,2.765,0,4.662-1.057,5.689-3.172Z" style="fill: #181716;"/>
    <path d="M251.13,12.402h4.008v3.562c1.188-1.469,2.445-2.523,3.773-3.164s2.805-.961,4.43-.961c3.562,0,5.969,1.242,7.219,3.727,.688,1.359,1.031,3.305,1.031,5.836v16.102h-4.289v-15.82c0-1.531-.227-2.766-.68-3.703-.75-1.562-2.109-2.344-4.078-2.344-1,0-1.82,.102-2.461,.305-1.156,.344-2.172,1.031-3.047,2.062-.703,.828-1.16,1.684-1.371,2.566s-.316,2.145-.316,3.785v13.148h-4.219V12.402Z" style="fill: #181716;"/>
    <path d="M277.297,12.402h4.008v3.562c1.188-1.469,2.445-2.523,3.773-3.164s2.805-.961,4.43-.961c3.562,0,5.969,1.242,7.219,3.727,.688,1.359,1.031,3.305,1.031,5.836v16.102h-4.289v-15.82c0-1.531-.227-2.766-.68-3.703-.75-1.562-2.109-2.344-4.078-2.344-1,0-1.82,.102-2.461,.305-1.156,.344-2.172,1.031-3.047,2.062-.703,.828-1.16,1.684-1.371,2.566s-.316,2.145-.316,3.785v13.148h-4.219V12.402Z" style="fill: #181716;"/>
    <path d="M318.97,13.093c1.661,.836,2.927,1.918,3.797,3.246,.838,1.266,1.397,2.742,1.677,4.43,.249,1.156,.373,3,.373,5.531h-18.258c.078,2.554,.675,4.603,1.791,6.146,1.116,1.543,2.845,2.315,5.186,2.315,2.186,0,3.93-.73,5.232-2.189,.729-.848,1.245-1.829,1.549-2.943h4.148c-.109,.922-.473,1.949-1.09,3.082s-1.306,2.059-2.065,2.777c-1.272,1.25-2.846,2.094-4.722,2.531-1.008,.25-2.148,.375-3.419,.375-3.105,0-5.738-1.137-7.896-3.41s-3.237-5.457-3.237-9.551c0-4.031,1.087-7.305,3.261-9.82,2.174-2.516,5.016-3.773,8.525-3.773,1.77,0,3.486,.418,5.148,1.254Zm1.511,9.855c-.171-1.828-.566-3.289-1.186-4.383-1.146-2.031-3.06-3.047-5.74-3.047-1.921,0-3.532,.699-4.834,2.098s-1.991,3.176-2.068,5.332h13.828Zm-1.688-20.648l-6.258,6.773h-3.234l4.289-6.773h5.203Z" style="fill: #181716;"/>
    <path d="M345.137,13.093c1.661,.836,2.927,1.918,3.797,3.246,.838,1.266,1.397,2.742,1.677,4.43,.249,1.156,.373,3,.373,5.531h-18.258c.078,2.554,.675,4.603,1.791,6.146,1.116,1.543,2.845,2.315,5.186,2.315,2.186,0,3.93-.73,5.232-2.189,.729-.848,1.245-1.829,1.549-2.943h4.148c-.109,.922-.473,1.949-1.09,3.082s-1.306,2.059-2.065,2.777c-1.272,1.25-2.846,2.094-4.722,2.531-1.008,.25-2.148,.375-3.419,.375-3.105,0-5.738-1.137-7.896-3.41s-3.237-5.457-3.237-9.551c0-4.031,1.087-7.305,3.261-9.82,2.174-2.516,5.016-3.773,8.525-3.773,1.77,0,3.486,.418,5.148,1.254Zm1.511,9.855c-.171-1.828-.566-3.289-1.186-4.383-1.146-2.031-3.06-3.047-5.74-3.047-1.921,0-3.532,.699-4.834,2.098s-1.991,3.176-2.068,5.332h13.828Z" style="fill: #181716;"/>
    <path d="M358.307,29.628c.127,1.406,.486,2.484,1.076,3.234,1.084,1.359,2.966,2.039,5.646,2.039,1.595,0,2.998-.34,4.21-1.02,1.212-.68,1.818-1.73,1.818-3.152,0-1.078-.484-1.898-1.453-2.461-.62-.344-1.842-.742-3.668-1.195l-3.406-.844c-2.175-.531-3.779-1.125-4.811-1.781-1.842-1.141-2.763-2.719-2.763-4.734,0-2.375,.867-4.297,2.601-5.766s4.065-2.203,6.995-2.203c3.832,0,6.595,1.109,8.289,3.328,1.061,1.406,1.576,2.922,1.545,4.547h-3.984c-.08-.948-.424-1.81-1.032-2.587-.992-1.103-2.711-1.655-5.158-1.655-1.631,0-2.867,.304-3.707,.911-.839,.607-1.259,1.409-1.259,2.405,0,1.09,.552,1.962,1.655,2.616,.637,.39,1.576,.732,2.817,1.029l2.842,.68c3.088,.734,5.158,1.445,6.209,2.133,1.641,1.078,2.461,2.773,2.461,5.086,0,2.234-.858,4.164-2.575,5.789s-4.331,2.438-7.842,2.438c-3.781,0-6.458-.848-8.032-2.543-1.574-1.695-2.417-3.793-2.527-6.293h4.055Z" style="fill: #181716;"/>
    <path d="M407.414,13.738c1.773,1.375,2.84,3.742,3.199,7.102h-4.102c-.25-1.547-.82-2.832-1.711-3.855s-2.32-1.535-4.289-1.535c-2.688,0-4.609,1.311-5.766,3.933-.75,1.701-1.125,3.8-1.125,6.297,0,2.513,.531,4.627,1.594,6.344s2.734,2.575,5.016,2.575c1.75,0,3.137-.533,4.16-1.599,1.023-1.066,1.73-2.525,2.121-4.377h4.102c-.469,3.328-1.641,5.762-3.516,7.301s-4.273,2.309-7.195,2.309c-3.281,0-5.898-1.199-7.852-3.598s-2.93-5.395-2.93-8.988c0-4.406,1.07-7.836,3.211-10.289s4.867-3.68,8.18-3.68c2.828,0,5.129,.688,6.902,2.062Z" style="fill: #181716;"/>
    <path d="M432.539,14.907c2.219,2.154,3.328,5.323,3.328,9.507,0,4.043-.978,7.384-2.933,10.023-1.955,2.638-4.988,3.957-9.1,3.957-3.429,0-6.152-1.167-8.169-3.5-2.017-2.334-3.025-5.468-3.025-9.402,0-4.215,1.062-7.571,3.188-10.069,2.125-2.498,4.98-3.747,8.564-3.747,3.211,0,5.927,1.077,8.146,3.232Zm-2.62,16.682c1.028-2.114,1.542-4.467,1.542-7.058,0-2.341-.371-4.245-1.112-5.712-1.174-2.31-3.198-3.465-6.072-3.465-2.549,0-4.403,.983-5.562,2.95-1.159,1.967-1.738,4.338-1.738,7.116,0,2.669,.579,4.893,1.738,6.672,1.158,1.779,2.997,2.668,5.516,2.668,2.765,0,4.662-1.057,5.689-3.172Z" style="fill: #181716;"/>
    <path d="M440.636,12.402h4.008v4.336c.328-.844,1.133-1.871,2.414-3.082s2.758-1.816,4.43-1.816c.078,0,.211,.008,.398,.023s.508,.047,.961,.094v4.453c-.25-.047-.48-.078-.691-.094s-.441-.023-.691-.023c-2.125,0-3.758,.684-4.898,2.051s-1.711,2.941-1.711,4.723v14.438h-4.219V12.402Z" style="fill: #181716;"/>
    <path d="M456.092,12.402h4.008v4.336c.328-.844,1.133-1.871,2.414-3.082s2.758-1.816,4.43-1.816c.078,0,.211,.008,.398,.023s.508,.047,.961,.094v4.453c-.25-.047-.48-.078-.691-.094s-.441-.023-.691-.023c-2.125,0-3.758,.684-4.898,2.051s-1.711,2.941-1.711,4.723v14.438h-4.219V12.402Z" style="fill: #181716;"/>
    <path d="M471.432,3.074h4.289V7.855h-4.289V3.074Zm0,9.445h4.289v24.984h-4.289V12.519Z" style="fill: #181716;"/>
    <path d="M495.522,13.41c.793,.547,1.603,1.344,2.428,2.391v-3.164h3.891v22.828c0,3.188-.467,5.703-1.401,7.547-1.744,3.406-5.038,5.109-9.881,5.109-2.694,0-4.96-.605-6.798-1.816-1.837-1.211-2.865-3.105-3.084-5.684h4.289c.202,1.125,.605,1.992,1.212,2.602,.948,.938,2.44,1.406,4.476,1.406,3.217,0,5.322-1.141,6.317-3.422,.591-1.344,.863-3.742,.816-7.195-.84,1.281-1.852,2.234-3.035,2.859-1.183,.625-2.748,.938-4.693,.938-2.708,0-5.078-.965-7.109-2.895-2.031-1.93-3.046-5.121-3.046-9.574,0-4.203,1.023-7.484,3.07-9.844,2.047-2.359,4.518-3.539,7.413-3.539,1.961,0,3.673,.484,5.137,1.453Zm.516,4.523c-1.274-1.5-2.899-2.25-4.874-2.25-2.954,0-4.975,1.391-6.062,4.172-.575,1.484-.863,3.43-.863,5.836,0,2.828,.571,4.98,1.714,6.457s2.678,2.215,4.605,2.215c3.016,0,5.137-1.367,6.365-4.102,.685-1.547,1.026-3.352,1.026-5.414,0-3.109-.638-5.414-1.912-6.914Z" style="fill: #181716;"/>
    <path d="M523.24,13.093c1.661,.836,2.927,1.918,3.797,3.246,.838,1.266,1.397,2.742,1.677,4.43,.249,1.156,.373,3,.373,5.531h-18.258c.078,2.554,.675,4.603,1.791,6.146,1.116,1.543,2.845,2.315,5.186,2.315,2.186,0,3.93-.73,5.232-2.189,.729-.848,1.245-1.829,1.549-2.943h4.148c-.109,.922-.473,1.949-1.09,3.082s-1.306,2.059-2.065,2.777c-1.272,1.25-2.846,2.094-4.722,2.531-1.008,.25-2.148,.375-3.419,.375-3.105,0-5.738-1.137-7.896-3.41s-3.237-5.457-3.237-9.551c0-4.031,1.087-7.305,3.261-9.82,2.174-2.516,5.016-3.773,8.525-3.773,1.77,0,3.486,.418,5.148,1.254Zm1.511,9.855c-.171-1.828-.566-3.289-1.186-4.383-1.146-2.031-3.06-3.047-5.74-3.047-1.921,0-3.532,.699-4.834,2.098s-1.991,3.176-2.068,5.332h13.828Zm-1.688-20.648l-6.258,6.773h-3.234l4.289-6.773h5.203Z" style="fill: #181716;"/>
    <path d="M549.407,13.093c1.661,.836,2.927,1.918,3.797,3.246,.838,1.266,1.397,2.742,1.677,4.43,.249,1.156,.373,3,.373,5.531h-18.258c.078,2.554,.675,4.603,1.791,6.146,1.116,1.543,2.845,2.315,5.186,2.315,2.186,0,3.93-.73,5.232-2.189,.729-.848,1.245-1.829,1.549-2.943h4.148c-.109,.922-.473,1.949-1.09,3.082s-1.306,2.059-2.065,2.777c-1.272,1.25-2.846,2.094-4.722,2.531-1.008,.25-2.148,.375-3.419,.375-3.105,0-5.738-1.137-7.896-3.41s-3.237-5.457-3.237-9.551c0-4.031,1.087-7.305,3.261-9.82,2.174-2.516,5.016-3.773,8.525-3.773,1.77,0,3.486,.418,5.148,1.254Zm1.511,9.855c-.171-1.828-.566-3.289-1.186-4.383-1.146-2.031-3.06-3.047-5.74-3.047-1.921,0-3.532,.699-4.834,2.098s-1.991,3.176-2.068,5.332h13.828Z" style="fill: #181716;"/>
    <path d="M562.577,29.628c.127,1.406,.486,2.484,1.076,3.234,1.084,1.359,2.966,2.039,5.646,2.039,1.595,0,2.998-.34,4.21-1.02,1.212-.68,1.818-1.73,1.818-3.152,0-1.078-.484-1.898-1.453-2.461-.62-.344-1.842-.742-3.668-1.195l-3.406-.844c-2.175-.531-3.779-1.125-4.811-1.781-1.842-1.141-2.763-2.719-2.763-4.734,0-2.375,.867-4.297,2.601-5.766s4.065-2.203,6.995-2.203c3.832,0,6.595,1.109,8.289,3.328,1.061,1.406,1.576,2.922,1.545,4.547h-3.984c-.08-.948-.424-1.81-1.032-2.587-.992-1.103-2.711-1.655-5.158-1.655-1.631,0-2.867,.304-3.707,.911-.839,.607-1.259,1.409-1.259,2.405,0,1.09,.552,1.962,1.655,2.616,.637,.39,1.576,.732,2.817,1.029l2.842,.68c3.088,.734,5.158,1.445,6.209,2.133,1.641,1.078,2.461,2.773,2.461,5.086,0,2.234-.858,4.164-2.575,5.789s-4.331,2.438-7.842,2.438c-3.781,0-6.458-.848-8.032-2.543-1.574-1.695-2.417-3.793-2.527-6.293h4.055Z" style="fill: #181716;"/>
    <path d="M608.893,13.175c.747,.469,1.595,1.289,2.545,2.461V2.957h4.055V37.503h-3.797v-3.492c-.98,1.547-2.141,2.664-3.479,3.352-1.339,.688-2.872,1.031-4.6,1.031-2.786,0-5.199-1.176-7.238-3.527s-3.059-5.48-3.059-9.387c0-3.656,.93-6.824,2.79-9.504,1.86-2.68,4.518-4.02,7.973-4.02,1.915,0,3.518,.406,4.81,1.219Zm-9.417,18.82c1.135,1.812,2.954,2.719,5.457,2.719,1.943,0,3.54-.84,4.792-2.52,1.251-1.68,1.877-4.09,1.877-7.23,0-3.172-.646-5.52-1.936-7.043-1.291-1.523-2.884-2.285-4.78-2.285-2.115,0-3.829,.812-5.142,2.438s-1.97,4.016-1.97,7.172c0,2.688,.567,4.938,1.702,6.75Z" style="fill: #181716;"/>
    <path d="M636.773,13.093c1.661,.836,2.927,1.918,3.797,3.246,.838,1.266,1.397,2.742,1.677,4.43,.249,1.156,.373,3,.373,5.531h-18.258c.078,2.554,.675,4.603,1.791,6.146,1.116,1.543,2.845,2.315,5.186,2.315,2.186,0,3.93-.73,5.232-2.189,.729-.848,1.245-1.829,1.549-2.943h4.148c-.109,.922-.473,1.949-1.09,3.082s-1.306,2.059-2.065,2.777c-1.272,1.25-2.846,2.094-4.722,2.531-1.008,.25-2.148,.375-3.419,.375-3.105,0-5.738-1.137-7.896-3.41s-3.237-5.457-3.237-9.551c0-4.031,1.087-7.305,3.261-9.82,2.174-2.516,5.016-3.773,8.525-3.773,1.77,0,3.486,.418,5.148,1.254Zm1.511,9.855c-.171-1.828-.566-3.289-1.186-4.383-1.146-2.031-3.06-3.047-5.74-3.047-1.921,0-3.532,.699-4.834,2.098s-1.991,3.176-2.068,5.332h13.828Z" style="fill: #181716;"/>
    <path d="M649.944,29.628c.127,1.406,.486,2.484,1.076,3.234,1.084,1.359,2.966,2.039,5.646,2.039,1.595,0,2.998-.34,4.21-1.02,1.212-.68,1.818-1.73,1.818-3.152,0-1.078-.484-1.898-1.453-2.461-.62-.344-1.842-.742-3.668-1.195l-3.406-.844c-2.175-.531-3.779-1.125-4.811-1.781-1.842-1.141-2.763-2.719-2.763-4.734,0-2.375,.867-4.297,2.601-5.766s4.065-2.203,6.995-2.203c3.832,0,6.595,1.109,8.289,3.328,1.061,1.406,1.576,2.922,1.545,4.547h-3.984c-.08-.948-.424-1.81-1.032-2.587-.992-1.103-2.711-1.655-5.158-1.655-1.631,0-2.867,.304-3.707,.911-.839,.607-1.259,1.409-1.259,2.405,0,1.09,.552,1.962,1.655,2.616,.637,.39,1.576,.732,2.817,1.029l2.842,.68c3.088,.734,5.158,1.445,6.209,2.133,1.641,1.078,2.461,2.773,2.461,5.086,0,2.234-.858,4.164-2.575,5.789s-4.331,2.438-7.842,2.438c-3.781,0-6.458-.848-8.032-2.543-1.574-1.695-2.417-3.793-2.527-6.293h4.055Z" style="fill: #181716;"/>
    <path d="M684.542,12.402l6.703,20.438,6.984-20.438h4.617l-9.45,25.102h-4.496l-9.258-25.102h4.898Z" style="fill: #181716;"/>
    <path d="M719.441,22.312c.968-.124,1.617-.53,1.945-1.216,.187-.376,.281-.917,.281-1.624,0-1.443-.511-2.49-1.532-3.141s-2.483-.977-4.385-.977c-2.199,0-3.758,.597-4.678,1.79-.515,.66-.85,1.642-1.006,2.944h-3.938c.078-3.103,1.081-5.261,3.008-6.476,1.928-1.214,4.163-1.821,6.707-1.821,2.949,0,5.345,.562,7.187,1.688,1.826,1.125,2.739,2.875,2.739,5.25v14.461c0,.438,.09,.789,.27,1.055,.18,.265,.559,.397,1.137,.397,.188,0,.398-.012,.633-.035s.484-.058,.75-.105v3.117c-.656,.188-1.156,.305-1.5,.352s-.812,.07-1.406,.07c-1.453,0-2.508-.516-3.164-1.546-.344-.547-.586-1.32-.727-2.32-.859,1.125-2.094,2.101-3.703,2.929-1.609,.828-3.383,1.242-5.32,1.242-2.328,0-4.23-.707-5.707-2.119s-2.215-3.179-2.215-5.302c0-2.325,.727-4.127,2.18-5.407s3.359-2.068,5.719-2.365l6.727-.843Zm-8.883,11.397c.891,.702,1.945,1.052,3.164,1.052,1.484,0,2.922-.343,4.312-1.029,2.344-1.139,3.516-3.003,3.516-5.593v-3.393c-.515,.329-1.177,.604-1.988,.823-.811,.22-1.606,.376-2.386,.47l-2.55,.328c-1.528,.203-2.677,.522-3.447,.959-1.305,.733-1.957,1.902-1.957,3.508,0,1.216,.445,2.174,1.336,2.876Z" style="fill: #181716;"/>
    <path d="M732.272,12.402h4.008v4.336c.328-.844,1.133-1.871,2.414-3.082s2.758-1.816,4.43-1.816c.078,0,.211,.008,.398,.023s.508,.047,.961,.094v4.453c-.25-.047-.48-.078-.691-.094s-.441-.023-.691-.023c-2.125,0-3.758,.684-4.898,2.051s-1.711,2.941-1.711,4.723v14.438h-4.219V12.402Z" style="fill: #181716;"/>
    <path d="M747.612,3.074h4.289V7.855h-4.289V3.074Zm0,9.445h4.289v24.984h-4.289V12.519Z" style="fill: #181716;"/>
    <path d="M771.201,22.312c.968-.124,1.617-.53,1.945-1.216,.187-.376,.281-.917,.281-1.624,0-1.443-.511-2.49-1.532-3.141s-2.483-.977-4.385-.977c-2.199,0-3.758,.597-4.678,1.79-.515,.66-.85,1.642-1.006,2.944h-3.938c.078-3.103,1.081-5.261,3.008-6.476,1.928-1.214,4.163-1.821,6.707-1.821,2.949,0,5.345,.562,7.187,1.688,1.826,1.125,2.739,2.875,2.739,5.25v14.461c0,.438,.09,.789,.27,1.055,.18,.265,.559,.397,1.137,.397,.188,0,.398-.012,.633-.035s.484-.058,.75-.105v3.117c-.656,.188-1.156,.305-1.5,.352s-.812,.07-1.406,.07c-1.453,0-2.508-.516-3.164-1.546-.344-.547-.586-1.32-.727-2.32-.859,1.125-2.094,2.101-3.703,2.929-1.609,.828-3.383,1.242-5.32,1.242-2.328,0-4.23-.707-5.707-2.119s-2.215-3.179-2.215-5.302c0-2.325,.727-4.127,2.18-5.407s3.359-2.068,5.719-2.365l6.727-.843Zm-8.883,11.397c.891,.702,1.945,1.052,3.164,1.052,1.484,0,2.922-.343,4.312-1.029,2.344-1.139,3.516-3.003,3.516-5.593v-3.393c-.515,.329-1.177,.604-1.988,.823-.811,.22-1.606,.376-2.386,.47l-2.55,.328c-1.528,.203-2.677,.522-3.447,.959-1.305,.733-1.957,1.902-1.957,3.508,0,1.216,.445,2.174,1.336,2.876Z" style="fill: #181716;"/>
    <path d="M784.759,5.394h4.266v7.008h4.008v3.445h-4.008v16.383c0,.875,.297,1.461,.891,1.758,.328,.172,.875,.258,1.641,.258,.203,0,.422-.005,.656-.016,.234-.01,.508-.036,.82-.078v3.352c-.484,.141-.988,.242-1.512,.305s-1.09,.094-1.699,.094c-1.969,0-3.305-.504-4.008-1.512s-1.055-2.316-1.055-3.926V15.847h-3.398v-3.445h3.398V5.394Z" style="fill: #181716;"/>
    <path d="M796.771,3.074h4.289V7.855h-4.289V3.074Zm0,9.445h4.289v24.984h-4.289V12.519Z" style="fill: #181716;"/>
    <path d="M825.094,14.907c2.219,2.154,3.328,5.323,3.328,9.507,0,4.043-.978,7.384-2.933,10.023-1.955,2.638-4.988,3.957-9.1,3.957-3.429,0-6.152-1.167-8.169-3.5-2.017-2.334-3.025-5.468-3.025-9.402,0-4.215,1.062-7.571,3.188-10.069,2.125-2.498,4.98-3.747,8.564-3.747,3.211,0,5.927,1.077,8.146,3.232Zm-2.62,16.682c1.028-2.114,1.542-4.467,1.542-7.058,0-2.341-.371-4.245-1.112-5.712-1.174-2.31-3.198-3.465-6.072-3.465-2.549,0-4.403,.983-5.562,2.95-1.159,1.967-1.738,4.338-1.738,7.116,0,2.669,.579,4.893,1.738,6.672,1.158,1.779,2.997,2.668,5.516,2.668,2.765,0,4.662-1.057,5.689-3.172Z" style="fill: #181716;"/>
    <path d="M833.074,12.402h4.008v3.562c1.188-1.469,2.445-2.523,3.773-3.164s2.805-.961,4.43-.961c3.562,0,5.969,1.242,7.219,3.727,.688,1.359,1.031,3.305,1.031,5.836v16.102h-4.289v-15.82c0-1.531-.227-2.766-.68-3.703-.75-1.562-2.109-2.344-4.078-2.344-1,0-1.82,.102-2.461,.305-1.156,.344-2.172,1.031-3.047,2.062-.703,.828-1.16,1.684-1.371,2.566s-.316,2.145-.316,3.785v13.148h-4.219V12.402Z" style="fill: #181716;"/>
    <path d="M861.75,29.628c.127,1.406,.486,2.484,1.076,3.234,1.084,1.359,2.966,2.039,5.646,2.039,1.595,0,2.998-.34,4.21-1.02,1.212-.68,1.818-1.73,1.818-3.152,0-1.078-.484-1.898-1.453-2.461-.62-.344-1.842-.742-3.668-1.195l-3.406-.844c-2.175-.531-3.779-1.125-4.811-1.781-1.842-1.141-2.763-2.719-2.763-4.734,0-2.375,.867-4.297,2.601-5.766s4.065-2.203,6.995-2.203c3.832,0,6.595,1.109,8.289,3.328,1.061,1.406,1.576,2.922,1.545,4.547h-3.984c-.08-.948-.424-1.81-1.032-2.587-.992-1.103-2.711-1.655-5.158-1.655-1.631,0-2.867,.304-3.707,.911-.839,.607-1.259,1.409-1.259,2.405,0,1.09,.552,1.962,1.655,2.616,.637,.39,1.576,.732,2.817,1.029l2.842,.68c3.088,.734,5.158,1.445,6.209,2.133,1.641,1.078,2.461,2.773,2.461,5.086,0,2.234-.858,4.164-2.575,5.789s-4.331,2.438-7.842,2.438c-3.781,0-6.458-.848-8.032-2.543-1.574-1.695-2.417-3.793-2.527-6.293h4.055Z" style="fill: #181716;"/>
    <path d="M910.855,13.738c1.773,1.375,2.84,3.742,3.199,7.102h-4.102c-.25-1.547-.82-2.832-1.711-3.855s-2.32-1.535-4.289-1.535c-2.688,0-4.609,1.311-5.766,3.933-.75,1.701-1.125,3.8-1.125,6.297,0,2.513,.531,4.627,1.594,6.344s2.734,2.575,5.016,2.575c1.75,0,3.137-.533,4.16-1.599,1.023-1.066,1.73-2.525,2.121-4.377h4.102c-.469,3.328-1.641,5.762-3.516,7.301s-4.273,2.309-7.195,2.309c-3.281,0-5.898-1.199-7.852-3.598s-2.93-5.395-2.93-8.988c0-4.406,1.07-7.836,3.211-10.289s4.867-3.68,8.18-3.68c2.828,0,5.129,.688,6.902,2.062Z" style="fill: #181716;"/>
    <path d="M917.863,3.074h4.219V37.503h-4.219V3.074Z" style="fill: #181716;"/>
    <path d="M927.881,3.074h4.289V7.855h-4.289V3.074Zm0,9.445h4.289v24.984h-4.289V12.519Z" style="fill: #181716;"/>
    <path d="M938.018,12.402h4.172v3.562c1-1.234,1.906-2.133,2.719-2.695,1.391-.953,2.969-1.43,4.734-1.43,2,0,3.609,.492,4.828,1.477,.688,.562,1.312,1.391,1.875,2.484,.938-1.344,2.039-2.34,3.305-2.988s2.688-.973,4.266-.973c3.375,0,5.672,1.219,6.891,3.656,.656,1.312,.984,3.078,.984,5.297v16.711h-4.383V20.066c0-1.672-.418-2.82-1.254-3.445s-1.855-.938-3.059-.938c-1.656,0-3.082,.555-4.277,1.664s-1.793,2.961-1.793,5.555v14.602h-4.289V21.121c0-1.703-.203-2.945-.609-3.727-.641-1.172-1.836-1.758-3.586-1.758-1.594,0-3.043,.617-4.348,1.852s-1.957,3.469-1.957,6.703v13.312h-4.219V12.402Z" style="fill: #181716;"/>
    <path d="M990.928,22.312c.969-.124,1.617-.53,1.945-1.216,.188-.376,.281-.917,.281-1.624,0-1.443-.511-2.49-1.532-3.141s-2.483-.977-4.386-.977c-2.198,0-3.758,.597-4.678,1.79-.515,.66-.85,1.642-1.006,2.944h-3.938c.078-3.103,1.08-5.261,3.008-6.476,1.928-1.214,4.163-1.821,6.707-1.821,2.949,0,5.345,.562,7.187,1.688,1.826,1.125,2.739,2.875,2.739,5.25v14.461c0,.438,.09,.789,.27,1.055,.18,.265,.559,.397,1.137,.397,.188,0,.398-.012,.633-.035s.484-.058,.75-.105v3.117c-.656,.188-1.156,.305-1.5,.352s-.812,.07-1.406,.07c-1.453,0-2.508-.516-3.164-1.546-.344-.547-.586-1.32-.727-2.32-.859,1.125-2.094,2.101-3.703,2.929-1.609,.828-3.383,1.242-5.32,1.242-2.328,0-4.23-.707-5.707-2.119s-2.215-3.179-2.215-5.302c0-2.325,.727-4.127,2.18-5.407s3.359-2.068,5.719-2.365l6.727-.843Zm-8.883,11.397c.891,.702,1.945,1.052,3.164,1.052,1.484,0,2.922-.343,4.312-1.029,2.344-1.139,3.516-3.003,3.516-5.593v-3.393c-.515,.329-1.178,.604-1.988,.823-.811,.22-1.606,.376-2.386,.47l-2.55,.328c-1.528,.203-2.678,.522-3.447,.959-1.305,.733-1.957,1.902-1.957,3.508,0,1.216,.445,2.174,1.336,2.876Z" style="fill: #181716;"/>
    <path d="M1004.485,5.394h4.266v7.008h4.008v3.445h-4.008v16.383c0,.875,.297,1.461,.891,1.758,.328,.172,.875,.258,1.641,.258,.203,0,.422-.005,.656-.016,.234-.01,.508-.036,.82-.078v3.352c-.484,.141-.988,.242-1.512,.305s-1.09,.094-1.699,.094c-1.969,0-3.305-.504-4.008-1.512s-1.055-2.316-1.055-3.926V15.847h-3.398v-3.445h3.398V5.394Z" style="fill: #181716;"/>
    <path d="M1016.498,3.074h4.289V7.855h-4.289V3.074Zm0,9.445h4.289v24.984h-4.289V12.519Z" style="fill: #181716;"/>
    <path d="M1040.793,13.41c.78,.562,1.529,1.391,2.247,2.484v-3.492h3.984V47.511h-4.219v-12.891c-.702,1.125-1.674,2.02-2.914,2.684-1.241,.664-2.79,.996-4.646,.996-2.669,0-5.057-1.047-7.163-3.141s-3.159-5.281-3.159-9.562c0-4.016,.986-7.312,2.961-9.891,1.974-2.578,4.529-3.867,7.666-3.867,2.075,0,3.823,.523,5.243,1.57Zm-10.552,17.344c1.076,2.609,3.003,3.914,5.779,3.914,2.933,0,4.952-1.375,6.06-4.125,.608-1.516,.913-3.453,.913-5.812,0-2.172-.336-3.984-1.006-5.438-1.14-2.484-3.144-3.727-6.014-3.727-1.825,0-3.389,.793-4.691,2.379-1.302,1.586-1.953,4.035-1.953,7.348,0,2.172,.304,3.992,.912,5.461Z" style="fill: #181716;"/>
    <path d="M1057.02,12.402V29.066c0,1.281,.198,2.328,.594,3.141,.73,1.5,2.092,2.25,4.086,2.25,2.86,0,4.809-1.312,5.843-3.938,.563-1.406,.845-3.336,.845-5.789V12.402h4.219v25.102h-3.984l.047-3.703c-.537,.953-1.204,1.758-2.002,2.414-1.579,1.312-3.495,1.969-5.749,1.969-3.511,0-5.902-1.195-7.175-3.586-.69-1.281-1.035-2.992-1.035-5.133V12.402h4.312Z" style="fill: #181716;"/>
    <path d="M1094.474,13.093c1.661,.836,2.927,1.918,3.797,3.246,.839,1.266,1.397,2.742,1.677,4.43,.248,1.156,.373,3,.373,5.531h-18.258c.077,2.554,.675,4.603,1.791,6.146,1.116,1.543,2.845,2.315,5.186,2.315,2.186,0,3.93-.73,5.232-2.189,.729-.848,1.245-1.829,1.549-2.943h4.148c-.109,.922-.473,1.949-1.09,3.082s-1.306,2.059-2.065,2.777c-1.271,1.25-2.846,2.094-4.722,2.531-1.009,.25-2.148,.375-3.42,.375-3.105,0-5.737-1.137-7.896-3.41s-3.237-5.457-3.237-9.551c0-4.031,1.087-7.305,3.261-9.82s5.016-3.773,8.525-3.773c1.771,0,3.486,.418,5.148,1.254Zm1.511,9.855c-.171-1.828-.565-3.289-1.186-4.383-1.146-2.031-3.06-3.047-5.74-3.047-1.921,0-3.532,.699-4.834,2.098s-1.991,3.176-2.068,5.332h13.828Z" style="fill: #181716;"/>
    <path d="M1107.644,29.628c.127,1.406,.486,2.484,1.076,3.234,1.084,1.359,2.967,2.039,5.646,2.039,1.595,0,2.998-.34,4.21-1.02s1.818-1.73,1.818-3.152c0-1.078-.484-1.898-1.453-2.461-.619-.344-1.842-.742-3.668-1.195l-3.406-.844c-2.175-.531-3.779-1.125-4.812-1.781-1.842-1.141-2.763-2.719-2.763-4.734,0-2.375,.867-4.297,2.601-5.766s4.065-2.203,6.995-2.203c3.832,0,6.596,1.109,8.289,3.328,1.062,1.406,1.576,2.922,1.545,4.547h-3.984c-.08-.948-.424-1.81-1.031-2.587-.992-1.103-2.712-1.655-5.159-1.655-1.631,0-2.866,.304-3.706,.911-.84,.607-1.26,1.409-1.26,2.405,0,1.09,.552,1.962,1.655,2.616,.637,.39,1.576,.732,2.817,1.029l2.842,.68c3.089,.734,5.158,1.445,6.209,2.133,1.641,1.078,2.461,2.773,2.461,5.086,0,2.234-.858,4.164-2.575,5.789-1.716,1.625-4.33,2.438-7.842,2.438-3.781,0-6.458-.848-8.032-2.543s-2.417-3.793-2.527-6.293h4.055Z" style="fill: #181716;"/>
    <path d="M1127.178,47.3c2.484-4.844,4.086-8.375,4.805-10.594,1.094-3.359,1.641-7.297,1.641-11.812s-.633-8.648-1.898-12.398c-.781-2.312-2.32-5.641-4.617-9.984h2.836c2.406,3.844,3.863,6.215,4.371,7.113s1.059,2.137,1.652,3.715c.75,1.953,1.285,3.883,1.605,5.789s.48,3.742,.48,5.508c0,4.625-.734,8.75-2.203,12.375-.922,2.328-2.836,5.758-5.742,10.289h-2.93Z" style="fill: #181716;"/>
  </g>
  <g>
    <path d="M16.354,112.973c-.32-2.56-2.08-4.24-4.759-4.24-5.799,0-6.719,6.399-6.879,10.758l.08,.08c1.6-2.6,4-3.719,7.079-3.719,5.439,0,8.678,3.959,8.678,9.198,0,4.12-2.319,9.519-9.478,9.519-8.399,0-9.759-7.679-9.759-13.638,0-7.799,2.36-15.198,10.438-15.198,4.679,0,7.599,2.64,7.999,7.239h-3.399Zm-10.998,12.278c0,3.519,2.16,6.319,5.879,6.319,3.68,0,5.719-2.919,5.719-6.279,0-3.52-1.84-6.439-5.719-6.439-3.799,0-5.879,2.839-5.879,6.399Z" style="fill: #181716;"/>
    <path d="M32.754,105.734c8.878,0,9.438,8.159,9.438,14.438,0,6.239-.56,14.397-9.438,14.397s-9.438-8.159-9.438-14.397c0-6.279,.56-14.438,9.438-14.438Zm0,25.836c5.799,0,5.839-7.199,5.839-11.438,0-4.199-.04-11.398-5.839-11.398s-5.839,7.199-5.839,11.398c0,4.239,.04,11.438,5.839,11.438Z" style="fill: #181716;"/>
    <path d="M54.555,105.734c8.878,0,9.438,8.159,9.438,14.438,0,6.239-.56,14.397-9.438,14.397s-9.438-8.159-9.438-14.397c0-6.279,.56-14.438,9.438-14.438Zm0,25.836c5.799,0,5.839-7.199,5.839-11.438,0-4.199-.04-11.398-5.839-11.398s-5.839,7.199-5.839,11.398c0,4.239,.04,11.438,5.839,11.438Z" style="fill: #181716;"/>
  </g>
  <g>
    <path d="M18.593,270.854H7.155l-1.52,8.159,.08,.08c1.24-1.4,3.359-2.04,5.279-2.04,5.039,0,9.158,3.239,9.158,9.718,0,4.799-3.319,9.438-9.918,9.438-4.919,0-8.919-3-9.039-8.119h3.399c.2,2.919,2.56,5.119,5.959,5.119,3.239,0,5.999-2.2,5.999-6.719,0-3.76-2.6-6.439-6.399-6.439-2.16,0-3.959,1.08-5.279,2.679l-2.919-.16,2.64-14.718h13.998v3Z" style="fill: #181716;"/>
    <path d="M32.754,267.375c8.878,0,9.438,8.159,9.438,14.438,0,6.239-.56,14.397-9.438,14.397s-9.438-8.159-9.438-14.397c0-6.279,.56-14.438,9.438-14.438Zm0,25.836c5.799,0,5.839-7.199,5.839-11.438,0-4.199-.04-11.398-5.839-11.398s-5.839,7.199-5.839,11.398c0,4.239,.04,11.438,5.839,11.438Z" style="fill: #181716;"/>
    <path d="M54.555,267.375c8.878,0,9.438,8.159,9.438,14.438,0,6.239-.56,14.397-9.438,14.397s-9.438-8.159-9.438-14.397c0-6.279,.56-14.438,9.438-14.438Zm0,25.836c5.799,0,5.839-7.199,5.839-11.438,0-4.199-.04-11.398-5.839-11.398s-5.839,7.199-5.839,11.398c0,4.239,.04,11.438,5.839,11.438Z" style="fill: #181716;"/>
  </g>
  <g>
    <path d="M16.554,447.732h3.839v3h-3.839v6.639h-3.2v-6.639H.916v-3.28l12.918-18.437h2.72v18.717Zm-3.2,0v-13.878h-.08l-9.438,13.878H13.354Z" style="fill: #181716;"/>
    <path d="M32.754,429.015c8.878,0,9.438,8.159,9.438,14.438,0,6.239-.56,14.397-9.438,14.397s-9.438-8.159-9.438-14.397c0-6.279,.56-14.438,9.438-14.438Zm0,25.836c5.799,0,5.839-7.199,5.839-11.438,0-4.199-.04-11.398-5.839-11.398s-5.839,7.199-5.839,11.398c0,4.239,.04,11.438,5.839,11.438Z" style="fill: #181716;"/>
    <path d="M54.555,429.015c8.878,0,9.438,8.159,9.438,14.438,0,6.239-.56,14.397-9.438,14.397s-9.438-8.159-9.438-14.397c0-6.279,.56-14.438,9.438-14.438Zm0,25.836c5.799,0,5.839-7.199,5.839-11.438,0-4.199-.04-11.398-5.839-11.398s-5.839,7.199-5.839,11.398c0,4.239,.04,11.438,5.839,11.438Z" style="fill: #181716;"/>
  </g>
  <g>
    <path d="M8.515,602.814c.52,.04,1,.04,1.479,.04,2.879,0,5.399-1.56,5.399-4.639,0-2.959-2.16-4.56-5.039-4.56-3.719,0-5.319,2.84-5.359,6.159H1.596c.2-5.399,3.08-9.159,8.758-9.159,4.919,0,8.639,2.36,8.639,7.599,0,2.479-1.76,4.639-3.919,5.639v.08c3.439,.76,5.119,3.479,5.119,6.879,0,5.679-4.439,8.639-9.758,8.639-5.759,0-9.559-3.399-9.438-9.238h3.399c.12,3.679,2.16,6.239,6.039,6.239,3.319,0,6.159-2.04,6.159-5.479,0-3.56-2.68-5.439-6.039-5.439-.68,0-1.4,.04-2.04,.12v-2.879Z" style="fill: #181716;"/>
    <path d="M32.754,590.656c8.878,0,9.438,8.159,9.438,14.438,0,6.239-.56,14.397-9.438,14.397s-9.438-8.159-9.438-14.397c0-6.279,.56-14.438,9.438-14.438Zm0,25.836c5.799,0,5.839-7.199,5.839-11.438,0-4.199-.04-11.398-5.839-11.398s-5.839,7.199-5.839,11.398c0,4.239,.04,11.438,5.839,11.438Z" style="fill: #181716;"/>
    <path d="M54.555,590.656c8.878,0,9.438,8.159,9.438,14.438,0,6.239-.56,14.397-9.438,14.397s-9.438-8.159-9.438-14.397c0-6.279,.56-14.438,9.438-14.438Zm0,25.836c5.799,0,5.839-7.199,5.839-11.438,0-4.199-.04-11.398-5.839-11.398s-5.839,7.199-5.839,11.398c0,4.239,.04,11.438,5.839,11.438Z" style="fill: #181716;"/>
  </g>
  <g>
    <path d="M1.556,762.334c-.28-5.759,3.12-10.038,9.118-10.038,4.959,0,8.879,2.88,8.879,8.159,0,4.999-3.359,7.519-6.879,9.718-3.56,2.16-7.279,3.96-7.959,7.479h14.558v2.999H.756c.56-6.719,3.959-9.118,7.958-11.598,4.799-2.96,7.239-4.72,7.239-8.639,0-3.08-2.479-5.119-5.479-5.119-3.959,0-5.639,3.639-5.519,7.038H1.556Z" style="fill: #181716;"/>
    <path d="M32.754,752.296c8.878,0,9.438,8.159,9.438,14.438,0,6.239-.56,14.397-9.438,14.397s-9.438-8.158-9.438-14.397c0-6.278,.56-14.438,9.438-14.438Zm0,25.836c5.799,0,5.839-7.199,5.839-11.438,0-4.199-.04-11.397-5.839-11.397s-5.839,7.198-5.839,11.397c0,4.239,.04,11.438,5.839,11.438Z" style="fill: #181716;"/>
    <path d="M54.555,752.296c8.878,0,9.438,8.159,9.438,14.438,0,6.239-.56,14.397-9.438,14.397s-9.438-8.158-9.438-14.397c0-6.278,.56-14.438,9.438-14.438Zm0,25.836c5.799,0,5.839-7.199,5.839-11.438,0-4.199-.04-11.397-5.839-11.397s-5.839,7.198-5.839,11.397c0,4.239,.04,11.438,5.839,11.438Z" style="fill: #181716;"/>
  </g>
  <g>
    <path d="M14.034,942.292h-3.399v-20.316H3.276v-2.72c3.879,0,7.398-1.04,8.159-5.319h2.6v28.355Z" style="fill: #181716;"/>
    <path d="M32.754,913.937c8.878,0,9.438,8.159,9.438,14.438,0,6.239-.56,14.397-9.438,14.397s-9.438-8.158-9.438-14.397c0-6.278,.56-14.438,9.438-14.438Zm0,25.836c5.799,0,5.839-7.199,5.839-11.438,0-4.199-.04-11.397-5.839-11.397s-5.839,7.198-5.839,11.397c0,4.239,.04,11.438,5.839,11.438Z" style="fill: #181716;"/>
    <path d="M54.555,913.937c8.878,0,9.438,8.159,9.438,14.438,0,6.239-.56,14.397-9.438,14.397s-9.438-8.158-9.438-14.397c0-6.278,.56-14.438,9.438-14.438Zm0,25.836c5.799,0,5.839-7.199,5.839-11.438,0-4.199-.04-11.397-5.839-11.397s-5.839,7.198-5.839,11.397c0,4.239,.04,11.438,5.839,11.438Z" style="fill: #181716;"/>
  </g>
  <path d="M54.516,1075.578c8.878,0,9.438,8.159,9.438,14.438,0,6.239-.56,14.397-9.438,14.397s-9.438-8.158-9.438-14.397c0-6.278,.56-14.438,9.438-14.438Zm0,25.836c5.799,0,5.839-7.199,5.839-11.438,0-4.199-.04-11.397-5.839-11.397s-5.839,7.198-5.839,11.397c0,4.239,.04,11.438,5.839,11.438Z" style="fill: #181716;"/>
  <line x1="92.773" y1="116.301" x2="92.773" y2="1104.029" style="fill: none; stroke: #181716; stroke-width: 2.4px;"/>
  <line x1="1929.095" y1="1090.503" x2="79.135" y2="1090.503" style="fill: none; stroke: #181716; stroke-width: 2.4px;"/>
  <line x1="80.286" y1="444.436" x2="91.782" y2="444.436" style="fill: none; stroke: #181716; stroke-width: 2.4px;"/>
  <line x1="80.286" y1="605.568" x2="91.782" y2="605.568" style="fill: none; stroke: #181716; stroke-width: 2.4px;"/>
  <line x1="80.286" y1="769.345" x2="91.782" y2="769.345" style="fill: none; stroke: #181716; stroke-width: 2.4px;"/>
  <line x1="80.286" y1="933.158" x2="91.782" y2="933.158" style="fill: none; stroke: #181716; stroke-width: 2.4px;"/>
  <rect x="2.415" y="1235.704" width="34.016" height="34.016" style="fill: #fbd51d;"/>
  <g>
    <path d="M50.666,1238.839h19.716v3.2h-15.917v9.078h14.837v3.199h-14.837v9.879h16.037v3.199h-19.836v-28.556Zm10.118-7.758h4.359l-5.239,5.719h-2.56l3.439-5.719Z" style="fill: #181716;"/>
    <path d="M74.746,1238.839h3.399v28.556h-3.399v-28.556Z" style="fill: #181716;"/>
    <path d="M101.062,1260.836c-.92,4.559-4.2,7.038-8.839,7.038-6.599,0-9.718-4.559-9.918-10.878,0-6.199,4.079-10.758,9.718-10.758,7.319,0,9.558,6.839,9.358,11.838h-15.478c-.12,3.6,1.92,6.799,6.439,6.799,2.8,0,4.759-1.359,5.359-4.039h3.359Zm-3.28-5.76c-.16-3.239-2.6-5.839-5.959-5.839-3.559,0-5.679,2.68-5.919,5.839h11.878Z" style="fill: #181716;"/>
    <path d="M118.942,1253.356c-.52-2.599-2.319-4.119-5.119-4.119-4.919,0-6.439,3.88-6.439,8.079,0,3.799,1.72,7.559,6.039,7.559,3.279,0,5.239-1.92,5.679-5.039h3.479c-.76,5.039-3.919,8.038-9.119,8.038-6.319,0-9.678-4.398-9.678-10.558,0-6.199,3.199-11.078,9.758-11.078,4.679,0,8.438,2.199,8.918,7.118h-3.52Z" style="fill: #181716;"/>
    <path d="M131.104,1246.718h4.119v3h-4.119v12.838c0,1.56,.44,1.84,2.56,1.84h1.56v2.999h-2.6c-3.519,0-4.919-.72-4.919-4.52v-13.157h-3.52v-3h3.52v-6.198h3.399v6.198Z" style="fill: #181716;"/>
    <path d="M138.863,1246.718h3.2v4.359h.08c1.64-3.319,3.919-4.959,7.599-4.839v3.6c-5.479,0-7.479,3.119-7.479,8.358v9.198h-3.399v-20.677Z" style="fill: #181716;"/>
    <path d="M155.903,1242.999h-3.399v-4.16h3.399v4.16Zm-3.399,3.719h3.399v20.677h-3.399v-20.677Z" style="fill: #181716;"/>
    <path d="M175.22,1253.356c-.52-2.599-2.319-4.119-5.119-4.119-4.919,0-6.439,3.88-6.439,8.079,0,3.799,1.72,7.559,6.039,7.559,3.279,0,5.239-1.92,5.679-5.039h3.479c-.76,5.039-3.919,8.038-9.119,8.038-6.319,0-9.678-4.398-9.678-10.558,0-6.199,3.199-11.078,9.758-11.078,4.679,0,8.438,2.199,8.918,7.118h-3.52Z" style="fill: #181716;"/>
    <path d="M186.262,1242.999h-3.399v-4.16h3.399v4.16Zm-3.399,3.719h3.399v20.677h-3.399v-20.677Z" style="fill: #181716;"/>
    <path d="M196.261,1246.718h4.119v3h-4.119v12.838c0,1.56,.44,1.84,2.56,1.84h1.56v2.999h-2.6c-3.519,0-4.919-.72-4.919-4.52v-13.157h-3.52v-3h3.52v-6.198h3.399v6.198Z" style="fill: #181716;"/>
    <path d="M221.778,1260.836c-.92,4.559-4.2,7.038-8.839,7.038-6.599,0-9.718-4.559-9.918-10.878,0-6.199,4.079-10.758,9.718-10.758,7.319,0,9.558,6.839,9.358,11.838h-15.478c-.12,3.6,1.92,6.799,6.439,6.799,2.8,0,4.759-1.359,5.359-4.039h3.359Zm-3.28-5.76c-.16-3.239-2.6-5.839-5.959-5.839-3.559,0-5.679,2.68-5.919,5.839h11.878Zm-5.159-16.917h4.359l-5.239,5.72h-2.56l3.439-5.72Z" style="fill: #181716;"/>
  </g>
  <rect x="278.663" y="1235.704" width="34.016" height="34.016" style="fill: #c6c7ca;"/>
  <g>
    <path d="M348.272,1263.835c-2.2,3-5.799,4.239-9.159,4.239-8.519,0-13.598-6.959-13.598-14.397,0-8.318,4.559-15.518,13.598-15.518,6.239,0,11.198,2.8,12.278,9.479h-3.799c-.76-4.319-4.239-6.278-8.479-6.278-6.919,0-9.798,5.998-9.798,12.117,0,5.959,3.439,11.398,9.798,11.398,5.879,0,9.398-4.119,9.159-9.318h-9.119v-3.199h12.518v15.037h-2.4l-1-3.56Z" style="fill: #181716;"/>
    <path d="M375.032,1267.314c-.6,.36-1.36,.56-2.439,.56-1.76,0-2.879-.959-2.879-3.199-1.88,2.2-4.399,3.199-7.279,3.199-3.76,0-6.839-1.68-6.839-5.799,0-4.679,3.479-5.679,6.999-6.358,3.759-.72,6.959-.48,6.959-3.04,0-2.959-2.439-3.439-4.599-3.439-2.88,0-5,.88-5.159,3.92h-3.399c.2-5.119,4.159-6.919,8.758-6.919,3.72,0,7.759,.84,7.759,5.679v10.639c0,1.6,0,2.319,1.08,2.319,.28,0,.6-.04,1.04-.2v2.64Zm-5.519-10.598c-1.32,.959-3.879,.999-6.159,1.399-2.239,.399-4.159,1.199-4.159,3.72,0,2.239,1.92,3.039,4,3.039,4.479,0,6.319-2.8,6.319-4.68v-3.479Z" style="fill: #181716;"/>
    <path d="M376.515,1264.795l12.478-15.077h-11.678v-3h16.077v2.32l-12.638,15.357h13.198v2.999h-17.437v-2.6Z" style="fill: #181716;"/>
    <path d="M408.515,1246.718h3.2v3.279h.08c1.44-2.56,3.759-3.759,6.719-3.759,5.439,0,7.119,3.119,7.119,7.559v13.598h-3.399v-13.998c0-2.52-1.6-4.159-4.199-4.159-4.12,0-6.119,2.76-6.119,6.479v11.678h-3.399v-20.677Z" style="fill: #181716;"/>
    <path d="M449.072,1267.314c-.6,.36-1.36,.56-2.439,.56-1.76,0-2.879-.959-2.879-3.199-1.88,2.2-4.399,3.199-7.279,3.199-3.76,0-6.839-1.68-6.839-5.799,0-4.679,3.479-5.679,6.999-6.358,3.759-.72,6.959-.48,6.959-3.04,0-2.959-2.439-3.439-4.599-3.439-2.88,0-5,.88-5.159,3.92h-3.399c.2-5.119,4.159-6.919,8.758-6.919,3.719,0,7.759,.84,7.759,5.679v10.639c0,1.6,0,2.319,1.08,2.319,.28,0,.6-.04,1.04-.2v2.64Zm-5.519-10.598c-1.32,.959-3.879,.999-6.159,1.399-2.239,.399-4.159,1.199-4.159,3.72,0,2.239,1.92,3.039,4,3.039,4.479,0,6.319-2.8,6.319-4.68v-3.479Z" style="fill: #181716;"/>
    <path d="M456.954,1246.718h4.119v3h-4.119v12.838c0,1.56,.44,1.84,2.56,1.84h1.56v2.999h-2.6c-3.519,0-4.919-.72-4.919-4.52v-13.157h-3.52v-3h3.52v-6.198h3.399v6.198Z" style="fill: #181716;"/>
    <path d="M481.951,1267.395h-3.2v-3.279h-.08c-1.44,2.56-3.76,3.759-6.719,3.759-5.439,0-7.119-3.119-7.119-7.559v-13.598h3.399v13.998c0,2.52,1.6,4.159,4.199,4.159,4.12,0,6.119-2.76,6.119-6.479v-11.679h3.399v20.677Z" style="fill: #181716;"/>
    <path d="M486.954,1246.718h3.2v4.359h.08c1.64-3.319,3.919-4.959,7.599-4.839v3.6c-5.479,0-7.479,3.119-7.479,8.358v9.198h-3.399v-20.677Z" style="fill: #181716;"/>
    <path d="M517.311,1260.836c-.92,4.559-4.2,7.038-8.839,7.038-6.599,0-9.718-4.559-9.918-10.878,0-6.199,4.079-10.758,9.718-10.758,7.319,0,9.558,6.839,9.358,11.838h-15.478c-.12,3.6,1.92,6.799,6.439,6.799,2.8,0,4.759-1.359,5.359-4.039h3.359Zm-3.28-5.76c-.16-3.239-2.6-5.839-5.959-5.839-3.559,0-5.679,2.68-5.919,5.839h11.878Z" style="fill: #181716;"/>
    <path d="M521.353,1238.839h3.399v28.556h-3.399v-28.556Z" style="fill: #181716;"/>
  </g>
  <rect x="583.079" y="1235.704" width="34.016" height="34.016" style="fill: #62ac36;"/>
  <g>
    <path d="M631.33,1238.839h19.716v3.2h-15.917v9.078h14.837v3.199h-14.837v9.879h16.037v3.199h-19.836v-28.556Z" style="fill: #181716;"/>
    <path d="M655.209,1246.718h3.199v3.279h.08c1.44-2.56,3.76-3.759,6.719-3.759,5.439,0,7.119,3.119,7.119,7.559v13.598h-3.399v-13.998c0-2.52-1.6-4.159-4.199-4.159-4.12,0-6.119,2.76-6.119,6.479v11.678h-3.399v-20.677Z" style="fill: #181716;"/>
    <path d="M678.01,1238.839h13.438c5.359,0,8.679,2.92,8.679,7.479,0,3.439-1.52,6.278-4.959,7.238v.08c3.32,.64,4,3.08,4.279,5.879,.24,2.8,.08,5.919,1.68,7.879h-4.239c-1.08-1.16-.479-4.239-1.04-7.039-.4-2.799-1.08-5.159-4.759-5.159h-9.278v12.198h-3.799v-28.556Zm11.718,13.158c3.56,0,6.599-.92,6.599-5.079,0-2.8-1.52-4.879-5.079-4.879h-9.438v9.958h7.918Z" style="fill: #181716;"/>
    <path d="M710.329,1243.358l4.279-1.6,.8,1.92-4.359,1.52,2.64,3.64-1.64,1.239-2.759-3.839-2.6,3.839-1.8-1.239,2.6-3.64-4.239-1.52,.72-1.92,4.239,1.6v-4.52h2.12v4.52Z" style="fill: #181716;"/>
    <path d="M747.687,1260.836c-.92,4.559-4.2,7.038-8.839,7.038-6.599,0-9.718-4.559-9.918-10.878,0-6.199,4.079-10.758,9.718-10.758,7.319,0,9.558,6.839,9.358,11.838h-15.478c-.12,3.6,1.92,6.799,6.439,6.799,2.8,0,4.759-1.359,5.359-4.039h3.359Zm-3.28-5.76c-.16-3.239-2.6-5.839-5.959-5.839-3.559,0-5.679,2.68-5.919,5.839h11.878Z" style="fill: #181716;"/>
    <path d="M756.248,1246.718h4.119v3h-4.119v12.838c0,1.56,.44,1.84,2.56,1.84h1.56v2.999h-2.6c-3.519,0-4.919-.72-4.919-4.52v-13.157h-3.52v-3h3.52v-6.198h3.399v6.198Z" style="fill: #181716;"/>
    <path d="M793.725,1267.395h-3.399v-2.8h-.08c-1.12,2.28-3.759,3.279-6.599,3.279-6.359,0-9.518-5.039-9.518-10.878s3.119-10.758,9.438-10.758c2.12,0,5.159,.8,6.679,3.239h.08v-10.639h3.399v28.556Zm-9.599-2.52c4.56,0,6.319-3.919,6.319-7.799,0-4.079-1.839-7.839-6.519-7.839-4.639,0-6.199,3.96-6.199,7.999,0,3.879,2,7.639,6.399,7.639Z" style="fill: #181716;"/>
    <path d="M816.605,1260.836c-.92,4.559-4.199,7.038-8.839,7.038-6.599,0-9.718-4.559-9.918-10.878,0-6.199,4.079-10.758,9.718-10.758,7.319,0,9.558,6.839,9.358,11.838h-15.478c-.12,3.6,1.92,6.799,6.439,6.799,2.8,0,4.759-1.359,5.359-4.039h3.359Zm-3.28-5.76c-.16-3.239-2.6-5.839-5.959-5.839-3.559,0-5.679,2.68-5.919,5.839h11.878Zm-5.159-16.917h4.359l-5.239,5.72h-2.56l3.439-5.72Z" style="fill: #181716;"/>
    <path d="M834.485,1253.356c-.52-2.599-2.319-4.119-5.119-4.119-4.919,0-6.439,3.88-6.439,8.079,0,3.799,1.72,7.559,6.039,7.559,3.279,0,5.239-1.92,5.679-5.039h3.479c-.76,5.039-3.919,8.038-9.119,8.038-6.319,0-9.678-4.398-9.678-10.558,0-6.199,3.199-11.078,9.758-11.078,4.679,0,8.438,2.199,8.918,7.118h-3.52Z" style="fill: #181716;"/>
    <path d="M841.927,1238.839h3.399v10.919h.08c1.12-2.479,4.039-3.52,6.519-3.52,5.439,0,7.119,3.119,7.119,7.559v13.598h-3.399v-13.998c0-2.52-1.6-4.159-4.199-4.159-4.12,0-6.119,2.76-6.119,6.479v11.678h-3.399v-28.556Z" style="fill: #181716;"/>
    <path d="M881.804,1260.836c-.92,4.559-4.2,7.038-8.839,7.038-6.599,0-9.718-4.559-9.918-10.878,0-6.199,4.079-10.758,9.718-10.758,7.319,0,9.558,6.839,9.358,11.838h-15.478c-.12,3.6,1.92,6.799,6.439,6.799,2.8,0,4.759-1.359,5.359-4.039h3.359Zm-3.28-5.76c-.16-3.239-2.6-5.839-5.959-5.839-3.559,0-5.679,2.68-5.919,5.839h11.878Z" style="fill: #181716;"/>
    <path d="M890.365,1246.718h4.119v3h-4.119v12.838c0,1.56,.44,1.84,2.56,1.84h1.56v2.999h-2.6c-3.519,0-4.919-.72-4.919-4.52v-13.157h-3.52v-3h3.52v-6.198h3.399v6.198Z" style="fill: #181716;"/>
    <path d="M900.325,1260.876c.12,3.039,2.76,3.999,5.559,3.999,2.12,0,4.999-.479,4.999-3.079,0-2.64-3.359-3.08-6.759-3.84-3.359-.76-6.759-1.88-6.759-5.839,0-4.159,4.119-5.879,7.719-5.879,4.559,0,8.199,1.439,8.479,6.479h-3.399c-.24-2.64-2.56-3.479-4.799-3.479-2.04,0-4.399,.561-4.399,2.64,0,2.439,3.599,2.84,6.759,3.6,3.399,.76,6.759,1.88,6.759,5.879,0,4.919-4.599,6.519-8.798,6.519-4.64,0-8.559-1.879-8.759-6.998h3.399Z" style="fill: #181716;"/>
  </g>
  <rect x="971.287" y="1235.704" width="34.016" height="34.016" style="fill: #6398a7;"/>
  <g>
    <path d="M1019.541,1238.839h12.518c5.68,0,8.759,3.16,8.759,8.439s-3.079,8.479-8.759,8.438h-8.718v11.678h-3.8v-28.556Zm3.8,13.678h7.438c4.279,.04,6.239-1.839,6.239-5.238s-1.96-5.239-6.239-5.239h-7.438v10.478Z" style="fill: #181716;"/>
    <path d="M1062.538,1260.836c-.92,4.559-4.199,7.038-8.839,7.038-6.599,0-9.718-4.559-9.918-10.878,0-6.199,4.079-10.758,9.719-10.758,7.318,0,9.558,6.839,9.358,11.838h-15.478c-.12,3.6,1.92,6.799,6.438,6.799,2.8,0,4.76-1.359,5.359-4.039h3.359Zm-3.279-5.76c-.16-3.239-2.6-5.839-5.959-5.839-3.56,0-5.679,2.68-5.919,5.839h11.878Zm-5.159-16.917h4.359l-5.239,5.72h-2.56l3.439-5.72Z" style="fill: #181716;"/>
    <path d="M1071.1,1246.718h4.119v3h-4.119v12.838c0,1.56,.44,1.84,2.56,1.84h1.56v2.999h-2.6c-3.519,0-4.919-.72-4.919-4.52v-13.157h-3.52v-3h3.52v-6.198h3.399v6.198Z" style="fill: #181716;"/>
    <path d="M1078.86,1246.718h3.199v4.359h.08c1.64-3.319,3.919-4.959,7.599-4.839v3.6c-5.479,0-7.479,3.119-7.479,8.358v9.198h-3.399v-20.677Z" style="fill: #181716;"/>
    <path d="M1100.539,1246.238c6.559,0,10.038,4.759,10.038,10.838,0,6.039-3.479,10.798-10.038,10.798s-10.039-4.759-10.039-10.798c0-6.079,3.479-10.838,10.039-10.838Zm0,18.637c3.559,0,6.438-2.8,6.438-7.799,0-5.039-2.88-7.839-6.438-7.839s-6.439,2.8-6.439,7.839c0,4.999,2.88,7.799,6.439,7.799Z" style="fill: #181716;"/>
    <path d="M1114.779,1238.839h3.399v28.556h-3.399v-28.556Z" style="fill: #181716;"/>
    <path d="M1141.096,1260.836c-.92,4.559-4.199,7.038-8.838,7.038-6.6,0-9.719-4.559-9.919-10.878,0-6.199,4.08-10.758,9.719-10.758,7.318,0,9.559,6.839,9.358,11.838h-15.478c-.12,3.6,1.92,6.799,6.439,6.799,2.799,0,4.759-1.359,5.358-4.039h3.359Zm-3.279-5.76c-.16-3.239-2.6-5.839-5.959-5.839-3.56,0-5.679,2.68-5.919,5.839h11.878Z" style="fill: #181716;"/>
  </g>
  <rect x="1197.943" y="1235.704" width="34.016" height="34.016" style="fill: #535656;"/>
  <g>
    <path d="M1266.271,1247.438c-.8-4.039-4.039-6.078-7.999-6.078-6.799,0-9.678,5.599-9.678,11.558,0,6.519,2.879,11.958,9.718,11.958,4.999,0,7.879-3.52,8.238-8.238h3.8c-.72,7.118-5.159,11.438-12.357,11.438-8.879,0-13.198-6.559-13.198-14.877s4.719-15.038,13.518-15.038c5.959,0,10.878,3.2,11.758,9.278h-3.799Z" style="fill: #181716;"/>
    <path d="M1274.513,1238.839h3.399v10.919h.08c1.12-2.479,4.039-3.52,6.519-3.52,5.439,0,7.119,3.119,7.119,7.559v13.598h-3.399v-13.998c0-2.52-1.6-4.159-4.199-4.159-4.119,0-6.119,2.76-6.119,6.479v11.678h-3.399v-28.556Z" style="fill: #181716;"/>
    <path d="M1315.07,1267.314c-.601,.36-1.36,.56-2.44,.56-1.76,0-2.879-.959-2.879-3.199-1.88,2.2-4.399,3.199-7.279,3.199-3.759,0-6.839-1.68-6.839-5.799,0-4.679,3.479-5.679,6.999-6.358,3.76-.72,6.959-.48,6.959-3.04,0-2.959-2.439-3.439-4.6-3.439-2.879,0-4.999,.88-5.159,3.92h-3.399c.2-5.119,4.159-6.919,8.759-6.919,3.72,0,7.759,.84,7.759,5.679v10.639c0,1.6,0,2.319,1.08,2.319,.279,0,.6-.04,1.04-.2v2.64Zm-5.52-10.598c-1.319,.959-3.879,.999-6.159,1.399-2.239,.399-4.159,1.199-4.159,3.72,0,2.239,1.92,3.039,3.999,3.039,4.479,0,6.319-2.8,6.319-4.68v-3.479Z" style="fill: #181716;"/>
    <path d="M1318.112,1246.718h3.199v4.359h.08c1.64-3.319,3.92-4.959,7.599-4.839v3.6c-5.479,0-7.479,3.119-7.479,8.358v9.198h-3.399v-20.677Z" style="fill: #181716;"/>
    <path d="M1331.673,1238.839h3.399v10.679h.08c1.119-2.279,3.759-3.279,6.599-3.279,6.359,0,9.519,5.039,9.519,10.878s-3.119,10.758-9.438,10.758c-2.12,0-5.159-.8-6.679-3.239h-.08v2.76h-3.399v-28.556Zm9.599,10.398c-4.56,0-6.319,3.92-6.319,7.799,0,4.079,1.84,7.839,6.519,7.839,4.64,0,6.199-3.959,6.199-7.999,0-3.879-2-7.639-6.398-7.639Z" style="fill: #181716;"/>
    <path d="M1364.19,1246.238c6.559,0,10.038,4.759,10.038,10.838,0,6.039-3.479,10.798-10.038,10.798s-10.039-4.759-10.039-10.798c0-6.079,3.479-10.838,10.039-10.838Zm0,18.637c3.559,0,6.438-2.8,6.438-7.799,0-5.039-2.88-7.839-6.438-7.839s-6.439,2.8-6.439,7.839c0,4.999,2.88,7.799,6.439,7.799Z" style="fill: #181716;"/>
    <path d="M1378.231,1246.718h3.199v3.279h.08c1.439-2.56,3.76-3.759,6.719-3.759,5.439,0,7.119,3.119,7.119,7.559v13.598h-3.399v-13.998c0-2.52-1.6-4.159-4.199-4.159-4.119,0-6.119,2.76-6.119,6.479v11.678h-3.399v-20.677Z" style="fill: #181716;"/>
  </g>
  <rect x="1453.511" y="1235.704" width="34.016" height="34.016" style="fill: #db2118;"/>
  <g>
    <path d="M1521.845,1247.438c-.8-4.039-4.039-6.078-7.999-6.078-6.799,0-9.678,5.599-9.678,11.558,0,6.519,2.879,11.958,9.718,11.958,4.999,0,7.879-3.52,8.238-8.238h3.8c-.72,7.118-5.159,11.438-12.357,11.438-8.879,0-13.198-6.559-13.198-14.877s4.719-15.038,13.518-15.038c5.959,0,10.878,3.2,11.758,9.278h-3.799Z" style="fill: #181716;"/>
    <path d="M1530.087,1238.839h3.399v10.919h.08c1.12-2.479,4.039-3.52,6.519-3.52,5.439,0,7.119,3.119,7.119,7.559v13.598h-3.399v-13.998c0-2.52-1.6-4.159-4.199-4.159-4.119,0-6.119,2.76-6.119,6.479v11.678h-3.399v-28.556Z" style="fill: #181716;"/>
    <path d="M1570.645,1267.314c-.601,.36-1.36,.56-2.44,.56-1.76,0-2.879-.959-2.879-3.199-1.88,2.2-4.399,3.199-7.279,3.199-3.759,0-6.839-1.68-6.839-5.799,0-4.679,3.479-5.679,6.999-6.358,3.76-.72,6.959-.48,6.959-3.04,0-2.959-2.439-3.439-4.6-3.439-2.879,0-4.999,.88-5.159,3.92h-3.399c.2-5.119,4.159-6.919,8.759-6.919,3.72,0,7.759,.84,7.759,5.679v10.639c0,1.6,0,2.319,1.08,2.319,.279,0,.6-.04,1.04-.2v2.64Zm-5.52-10.598c-1.319,.959-3.879,.999-6.159,1.399-2.239,.399-4.159,1.199-4.159,3.72,0,2.239,1.92,3.039,3.999,3.039,4.479,0,6.319-2.8,6.319-4.68v-3.479Z" style="fill: #181716;"/>
    <path d="M1574.007,1238.839h3.399v28.556h-3.399v-28.556Z" style="fill: #181716;"/>
    <path d="M1600.323,1260.836c-.92,4.559-4.199,7.038-8.838,7.038-6.6,0-9.719-4.559-9.919-10.878,0-6.199,4.08-10.758,9.719-10.758,7.318,0,9.559,6.839,9.358,11.838h-15.478c-.12,3.6,1.92,6.799,6.439,6.799,2.799,0,4.759-1.359,5.358-4.039h3.359Zm-3.279-5.76c-.16-3.239-2.6-5.839-5.959-5.839-3.56,0-5.679,2.68-5.919,5.839h11.878Z" style="fill: #181716;"/>
    <path d="M1621.283,1267.395h-3.199v-3.279h-.08c-1.44,2.56-3.76,3.759-6.719,3.759-5.439,0-7.119-3.119-7.119-7.559v-13.598h3.399v13.998c0,2.52,1.6,4.159,4.199,4.159,4.119,0,6.119-2.76,6.119-6.479v-11.679h3.399v20.677Z" style="fill: #181716;"/>
    <path d="M1626.285,1246.718h3.199v4.359h.08c1.64-3.319,3.92-4.959,7.599-4.839v3.6c-5.479,0-7.479,3.119-7.479,8.358v9.198h-3.399v-20.677Z" style="fill: #181716;"/>
    <path d="M1664.884,1253.356c-.521-2.599-2.32-4.119-5.119-4.119-4.92,0-6.439,3.88-6.439,8.079,0,3.799,1.72,7.559,6.039,7.559,3.279,0,5.239-1.92,5.679-5.039h3.479c-.76,5.039-3.919,8.038-9.118,8.038-6.319,0-9.679-4.398-9.679-10.558,0-6.199,3.2-11.078,9.759-11.078,4.679,0,8.438,2.199,8.918,7.118h-3.519Z" style="fill: #181716;"/>
    <path d="M1681.244,1246.238c6.559,0,10.038,4.759,10.038,10.838,0,6.039-3.479,10.798-10.038,10.798s-10.039-4.759-10.039-10.798c0-6.079,3.479-10.838,10.039-10.838Zm0,18.637c3.559,0,6.438-2.8,6.438-7.799,0-5.039-2.88-7.839-6.438-7.839s-6.439,2.8-6.439,7.839c0,4.999,2.88,7.799,6.439,7.799Z" style="fill: #181716;"/>
    <path d="M1695.284,1246.718h3.199v3.04h.08c1.52-2.32,3.84-3.52,6.679-3.52,2.52,0,4.84,1,5.68,3.52,1.399-2.2,3.839-3.52,6.479-3.52,4.119,0,6.879,1.72,6.879,5.999v15.157h-3.399v-13.558c0-2.56-.68-4.6-3.999-4.6-3.279,0-5.399,2.08-5.399,5.279v12.878h-3.399v-13.558c0-2.68-.84-4.6-3.879-4.6-4.04,0-5.52,3.72-5.52,5.279v12.878h-3.399v-20.677Z" style="fill: #181716;"/>
    <path d="M1729.404,1246.718h3.199v3.04h.08c1.52-2.32,3.84-3.52,6.679-3.52,2.52,0,4.84,1,5.68,3.52,1.399-2.2,3.839-3.52,6.479-3.52,4.119,0,6.879,1.72,6.879,5.999v15.157h-3.399v-13.558c0-2.56-.68-4.6-3.999-4.6-3.279,0-5.399,2.08-5.399,5.279v12.878h-3.399v-13.558c0-2.68-.84-4.6-3.879-4.6-4.04,0-5.52,3.72-5.52,5.279v12.878h-3.399v-20.677Z" style="fill: #181716;"/>
    <path d="M1781.161,1260.836c-.92,4.559-4.199,7.038-8.838,7.038-6.6,0-9.719-4.559-9.919-10.878,0-6.199,4.08-10.758,9.719-10.758,7.318,0,9.559,6.839,9.358,11.838h-15.478c-.12,3.6,1.92,6.799,6.439,6.799,2.799,0,4.759-1.359,5.358-4.039h3.359Zm-3.279-5.76c-.16-3.239-2.6-5.839-5.959-5.839-3.56,0-5.679,2.68-5.919,5.839h11.878Z" style="fill: #181716;"/>
    <path d="M1784.884,1246.718h3.199v4.359h.08c1.64-3.319,3.92-4.959,7.599-4.839v3.6c-5.479,0-7.479,3.119-7.479,8.358v9.198h-3.399v-20.677Z" style="fill: #181716;"/>
    <path d="M1811.642,1253.356c-.521-2.599-2.32-4.119-5.119-4.119-4.92,0-6.439,3.88-6.439,8.079,0,3.799,1.72,7.559,6.039,7.559,3.279,0,5.239-1.92,5.679-5.039h3.479c-.76,5.039-3.919,8.038-9.118,8.038-6.319,0-9.679-4.398-9.679-10.558,0-6.199,3.2-11.078,9.759-11.078,4.679,0,8.438,2.199,8.918,7.118h-3.519Z" style="fill: #181716;"/>
    <path d="M1822.683,1242.999h-3.399v-4.16h3.399v4.16Zm-3.399,3.719h3.399v20.677h-3.399v-20.677Z" style="fill: #181716;"/>
    <path d="M1846.279,1267.314c-.601,.36-1.36,.56-2.44,.56-1.76,0-2.879-.959-2.879-3.199-1.88,2.2-4.399,3.199-7.279,3.199-3.759,0-6.839-1.68-6.839-5.799,0-4.679,3.479-5.679,6.999-6.358,3.76-.72,6.959-.48,6.959-3.04,0-2.959-2.439-3.439-4.6-3.439-2.879,0-4.999,.88-5.159,3.92h-3.399c.2-5.119,4.159-6.919,8.759-6.919,3.72,0,7.759,.84,7.759,5.679v10.639c0,1.6,0,2.319,1.08,2.319,.279,0,.6-.04,1.04-.2v2.64Zm-5.52-10.598c-1.319,.959-3.879,.999-6.159,1.399-2.239,.399-4.159,1.199-4.159,3.72,0,2.239,1.92,3.039,3.999,3.039,4.479,0,6.319-2.8,6.319-4.68v-3.479Z" style="fill: #181716;"/>
    <path d="M1849.642,1238.839h3.399v28.556h-3.399v-28.556Z" style="fill: #181716;"/>
    <path d="M1861.921,1242.999h-3.399v-4.16h3.399v4.16Zm-3.399,3.719h3.399v20.677h-3.399v-20.677Z" style="fill: #181716;"/>
    <path d="M1869.28,1260.876c.119,3.039,2.759,3.999,5.559,3.999,2.12,0,4.999-.479,4.999-3.079,0-2.64-3.359-3.08-6.759-3.84-3.359-.76-6.759-1.88-6.759-5.839,0-4.159,4.119-5.879,7.719-5.879,4.56,0,8.198,1.439,8.479,6.479h-3.399c-.24-2.64-2.56-3.479-4.799-3.479-2.04,0-4.399,.561-4.399,2.64,0,2.439,3.6,2.84,6.759,3.6,3.399,.76,6.759,1.88,6.759,5.879,0,4.919-4.6,6.519-8.799,6.519-4.639,0-8.559-1.879-8.758-6.998h3.399Z" style="fill: #181716;"/>
    <path d="M1904.837,1260.836c-.92,4.559-4.199,7.038-8.838,7.038-6.6,0-9.719-4.559-9.919-10.878,0-6.199,4.08-10.758,9.719-10.758,7.318,0,9.559,6.839,9.358,11.838h-15.478c-.12,3.6,1.92,6.799,6.439,6.799,2.799,0,4.759-1.359,5.358-4.039h3.359Zm-3.279-5.76c-.16-3.239-2.6-5.839-5.959-5.839-3.56,0-5.679,2.68-5.919,5.839h11.878Zm-5.159-16.917h4.359l-5.239,5.72h-2.56l3.439-5.72Z" style="fill: #181716;"/>
    <path d="M1926.316,1260.836c-.92,4.559-4.199,7.038-8.838,7.038-6.6,0-9.719-4.559-9.919-10.878,0-6.199,4.08-10.758,9.719-10.758,7.318,0,9.559,6.839,9.358,11.838h-15.478c-.12,3.6,1.92,6.799,6.439,6.799,2.799,0,4.759-1.359,5.358-4.039h3.359Zm-3.279-5.76c-.16-3.239-2.6-5.839-5.959-5.839-3.56,0-5.679,2.68-5.919,5.839h11.878Z" style="fill: #181716;"/>
  </g>
  <line x1="1572.464" y1="1091.703" x2="1572.464" y2="1104.031" style="fill: none; stroke: #181716; stroke-width: 2.4px;"/>
  <line x1="1276.525" y1="1091.703" x2="1276.525" y2="1104.031" style="fill: none; stroke: #181716; stroke-width: 2.4px;"/>
  <line x1="980.587" y1="1091.703" x2="980.587" y2="1104.031" style="fill: none; stroke: #181716; stroke-width: 2.4px;"/>
  <line x1="1868.402" y1="1091.703" x2="1868.402" y2="1104.031" style="fill: none; stroke: #181716; stroke-width: 2.4px;"/>
  <line x1="684.649" y1="1091.703" x2="684.649" y2="1104.031" style="fill: none; stroke: #181716; stroke-width: 2.4px;"/>
  <line x1="388.711" y1="1091.703" x2="388.711" y2="1104.031" style="fill: none; stroke: #181716; stroke-width: 2.4px;"/>
  <line x1="150.739" y1="1091.703" x2="150.739" y2="1104.031" style="fill: none; stroke: #181716; stroke-width: 2.4px;"/>
  <line x1="210.232" y1="1091.703" x2="210.232" y2="1104.031" style="fill: none; stroke: #181716; stroke-width: 2.4px;"/>
  <line x1="269.725" y1="1091.703" x2="269.725" y2="1104.031" style="fill: none; stroke: #181716; stroke-width: 2.4px;"/>
  <line x1="329.218" y1="1091.703" x2="329.218" y2="1104.031" style="fill: none; stroke: #181716; stroke-width: 2.4px;"/>
  <line x1="446.678" y1="1091.703" x2="446.678" y2="1104.031" style="fill: none; stroke: #181716; stroke-width: 2.4px;"/>
  <line x1="506.17" y1="1091.703" x2="506.17" y2="1104.031" style="fill: none; stroke: #181716; stroke-width: 2.4px;"/>
  <line x1="565.663" y1="1091.703" x2="565.663" y2="1104.031" style="fill: none; stroke: #181716; stroke-width: 2.4px;"/>
  <line x1="625.156" y1="1091.703" x2="625.156" y2="1104.031" style="fill: none; stroke: #181716; stroke-width: 2.4px;"/>
  <line x1="743.379" y1="1091.703" x2="743.379" y2="1104.031" style="fill: none; stroke: #181716; stroke-width: 2.4px;"/>
  <line x1="802.872" y1="1091.703" x2="802.872" y2="1104.031" style="fill: none; stroke: #181716; stroke-width: 2.4px;"/>
  <line x1="862.365" y1="1091.703" x2="862.365" y2="1104.031" style="fill: none; stroke: #181716; stroke-width: 2.4px;"/>
  <line x1="921.858" y1="1091.703" x2="921.858" y2="1104.031" style="fill: none; stroke: #181716; stroke-width: 2.4px;"/>
  <line x1="1040.08" y1="1091.703" x2="1040.08" y2="1104.031" style="fill: none; stroke: #181716; stroke-width: 2.4px;"/>
  <line x1="1099.573" y1="1091.703" x2="1099.573" y2="1104.031" style="fill: none; stroke: #181716; stroke-width: 2.4px;"/>
  <line x1="1159.066" y1="1091.703" x2="1159.066" y2="1104.031" style="fill: none; stroke: #181716; stroke-width: 2.4px;"/>
  <line x1="1218.559" y1="1091.703" x2="1218.559" y2="1104.031" style="fill: none; stroke: #181716; stroke-width: 2.4px;"/>
  <line x1="1336.018" y1="1091.703" x2="1336.018" y2="1104.031" style="fill: none; stroke: #181716; stroke-width: 2.4px;"/>
  <line x1="1395.511" y1="1091.703" x2="1395.511" y2="1104.031" style="fill: none; stroke: #181716; stroke-width: 2.4px;"/>
  <line x1="1455.005" y1="1091.703" x2="1455.005" y2="1104.031" style="fill: none; stroke: #181716; stroke-width: 2.4px;"/>
  <line x1="1514.498" y1="1091.703" x2="1514.498" y2="1104.031" style="fill: none; stroke: #181716; stroke-width: 2.4px;"/>
  <line x1="1631.957" y1="1091.703" x2="1631.957" y2="1104.031" style="fill: none; stroke: #181716; stroke-width: 2.4px;"/>
  <line x1="1691.45" y1="1091.703" x2="1691.45" y2="1104.031" style="fill: none; stroke: #181716; stroke-width: 2.4px;"/>
  <line x1="1750.943" y1="1091.703" x2="1750.943" y2="1104.031" style="fill: none; stroke: #181716; stroke-width: 2.4px;"/>
  <line x1="1810.435" y1="1091.703" x2="1810.435" y2="1104.031" style="fill: none; stroke: #181716; stroke-width: 2.4px;"/>
  <line x1="1927.895" y1="1091.703" x2="1927.895" y2="1104.031" style="fill: none; stroke: #181716; stroke-width: 2.4px;"/>
  <g>
    <path d="M1865.937,1191.639c-4.592-3.487-5.686-8.842-1.829-13.438,3.188-3.799,7.913-4.95,11.958-1.557,3.829,3.213,3.6,7.405,3.022,11.516-.634,4.115-1.646,8.121,.614,10.904l9.357-11.151,2.297,1.928-11.902,14.185c-4.787-4.748-4.439-8.895-3.769-13.552,.817-5.579,1.037-8.579-1.965-11.098-2.359-1.98-5.515-1.392-7.443,.906-2.545,3.033-.837,6.659,1.845,8.752l-2.186,2.604Z" style="fill: #181716;"/>
    <path d="M1878.326,1161.256c5.706-6.801,12.317-1.985,17.127,2.051,4.779,4.01,10.668,9.683,4.961,16.484-5.706,6.801-12.315,1.986-17.095-2.024-4.81-4.035-10.7-9.709-4.993-16.511Zm19.791,16.607c3.729-4.442-1.761-9.101-5.009-11.826-3.217-2.699-8.757-7.295-12.483-2.853-3.729,4.442,1.76,9.1,4.977,11.799,3.248,2.726,8.789,7.322,12.516,2.88Z" style="fill: #181716;"/>
    <path d="M1894.064,1158.116c-4.592-3.487-5.686-8.842-1.829-13.438,3.188-3.799,7.913-4.95,11.958-1.557,3.829,3.214,3.6,7.406,3.022,11.517-.634,4.114-1.646,8.121,.614,10.904l9.357-11.152,2.297,1.928-11.902,14.186c-4.787-4.748-4.439-8.895-3.769-13.552,.817-5.579,1.037-8.579-1.965-11.099-2.359-1.979-5.515-1.391-7.443,.907-2.545,3.033-.837,6.658,1.845,8.752l-2.186,2.604Z" style="fill: #181716;"/>
    <path d="M1930.181,1143.571l-2.186,2.604-15.563-13.06-4.729,5.637-2.083-1.748c2.493-2.972,3.959-6.336,1.169-9.669l1.671-1.991,21.722,18.227Z" style="fill: #181716;"/>
  </g>
  <g>
    <path d="M68.002,1193.857l-2.185,2.604-15.563-13.06-4.73,5.638-2.084-1.748c2.493-2.972,3.959-6.337,1.17-9.67l1.671-1.991,21.722,18.227Z" style="fill: #181716;"/>
    <path d="M71.094,1179.532c2.269,1.591,4.902,.877,6.65-1.206,2.674-3.187,1.197-7.088-4.28-11.945l-.113,.01c1.015,2.522,.56,5.43-1.214,7.543-3.702,4.412-8.73,4.369-13.019,.771-4.197-3.521-4.609-8.88-1.087-13.077,3.393-4.044,8.421-5.619,16.632,1.271,7.506,6.298,9.801,12.087,5.379,17.356-3.059,3.646-7.113,4.682-11.133,1.883l2.185-2.604Zm-10.868-15.854c-2.596,3.095-1.092,6.342,1.573,8.578,2.39,2.004,6.087,2.078,8.194-.434,2.288-2.727,1.521-6.293-1.052-8.453-2.665-2.236-6.273-2.602-8.716,.309Z" style="fill: #181716;"/>
    <path d="M85.158,1162.771c2.269,1.59,4.903,.877,6.651-1.206,2.673-3.187,1.196-7.088-4.281-11.945l-.113,.009c1.015,2.523,.56,5.43-1.214,7.544-3.702,4.412-8.73,4.37-13.02,.771-4.197-3.521-4.609-8.88-1.087-13.077,3.393-4.044,8.421-5.619,16.632,1.271,7.506,6.298,9.801,12.087,5.379,17.356-3.06,3.646-7.113,4.682-11.134,1.883l2.185-2.604Zm-10.868-15.854c-2.596,3.095-1.092,6.341,1.573,8.577,2.39,2.005,6.086,2.079,8.195-.433,2.288-2.727,1.521-6.294-1.052-8.453-2.665-2.236-6.274-2.602-8.716,.309Z" style="fill: #181716;"/>
    <path d="M86.416,1127.799c5.707-6.801,12.317-1.985,17.126,2.051,4.779,4.01,10.669,9.683,4.962,16.484-5.707,6.801-12.317,1.986-17.096-2.024-4.81-4.035-10.7-9.709-4.993-16.511Zm19.791,16.607c3.728-4.442-1.761-9.101-5.008-11.826-3.217-2.699-8.757-7.295-12.485-2.853s1.761,9.1,4.978,11.799c3.247,2.726,8.788,7.322,12.515,2.88Z" style="fill: #181716;"/>
  </g>
  <g>
    <path d="M183.5,1193.864l-2.186,2.604-15.563-13.059-4.73,5.637-2.084-1.748c2.494-2.972,3.959-6.337,1.17-9.67l1.671-1.991,21.722,18.227Z" style="fill: #181716;"/>
    <path d="M186.591,1179.539c2.269,1.591,4.902,.877,6.65-1.206,2.674-3.187,1.197-7.088-4.281-11.945l-.112,.01c1.015,2.522,.56,5.43-1.214,7.543-3.702,4.412-8.73,4.37-13.02,.771-4.196-3.521-4.608-8.879-1.087-13.076,3.394-4.045,8.422-5.619,16.633,1.27,7.506,6.299,9.801,12.087,5.379,17.356-3.059,3.646-7.113,4.683-11.133,1.883l2.185-2.604Zm-10.868-15.854c-2.597,3.094-1.092,6.341,1.573,8.577,2.39,2.005,6.087,2.079,8.194-.434,2.288-2.727,1.522-6.293-1.051-8.452-2.666-2.237-6.274-2.603-8.716,.309Z" style="fill: #181716;"/>
    <path d="M200.656,1162.778c2.268,1.591,4.902,.877,6.65-1.206,2.673-3.187,1.196-7.088-4.281-11.945l-.112,.01c1.016,2.522,.56,5.43-1.214,7.543-3.702,4.412-8.73,4.37-13.021,.771-4.196-3.521-4.608-8.88-1.086-13.077,3.393-4.044,8.421-5.619,16.632,1.271,7.506,6.298,9.801,12.087,5.379,17.356-3.06,3.646-7.114,4.682-11.134,1.883l2.186-2.604Zm-10.869-15.854c-2.596,3.095-1.092,6.342,1.573,8.578,2.39,2.005,6.086,2.078,8.195-.434,2.288-2.727,1.521-6.293-1.052-8.453-2.666-2.236-6.274-2.602-8.716,.309Z" style="fill: #181716;"/>
    <path d="M203.587,1141.428c-4.592-3.487-5.685-8.842-1.829-13.438,3.188-3.799,7.913-4.95,11.957-1.557,3.829,3.213,3.6,7.406,3.023,11.516-.634,4.115-1.646,8.121,.614,10.904l9.357-11.151,2.298,1.928-11.902,14.185c-4.787-4.748-4.44-8.894-3.769-13.552,.817-5.579,1.038-8.579-1.964-11.098-2.36-1.979-5.516-1.392-7.444,.906-2.545,3.033-.838,6.659,1.844,8.752l-2.185,2.604Z" style="fill: #181716;"/>
  </g>
  <g>
    <path d="M635.961,1191.673c-4.591-3.487-5.685-8.842-1.829-13.437,3.188-3.8,7.913-4.951,11.957-1.557,3.829,3.213,3.601,7.405,3.023,11.516-.634,4.115-1.646,8.121,.614,10.904l9.357-11.151,2.298,1.928-11.902,14.185c-4.788-4.748-4.44-8.895-3.769-13.552,.817-5.579,1.038-8.579-1.964-11.099-2.359-1.979-5.516-1.391-7.444,.907-2.545,3.033-.837,6.658,1.844,8.752l-2.185,2.604Z" style="fill: #181716;"/>
    <path d="M648.351,1161.291c5.707-6.801,12.316-1.985,17.126,2.05,4.779,4.011,10.67,9.684,4.963,16.485-5.707,6.801-12.317,1.986-17.097-2.024-4.81-4.036-10.699-9.709-4.992-16.511Zm19.791,16.607c3.727-4.442-1.762-9.101-5.009-11.826-3.217-2.699-8.757-7.295-12.484-2.853-3.728,4.442,1.761,9.1,4.978,11.799,3.247,2.725,8.788,7.322,12.515,2.88Z" style="fill: #181716;"/>
    <path d="M662.389,1144.561c5.707-6.801,12.317-1.985,17.126,2.051,4.779,4.01,10.669,9.683,4.962,16.484-5.707,6.801-12.317,1.986-17.096-2.024-4.81-4.035-10.7-9.709-4.993-16.511Zm19.791,16.607c3.728-4.442-1.762-9.101-5.009-11.826-3.217-2.699-8.757-7.295-12.484-2.853s1.761,9.1,4.978,11.799c3.247,2.726,8.788,7.322,12.515,2.88Z" style="fill: #181716;"/>
    <path d="M676.453,1127.8c5.707-6.801,12.317-1.985,17.126,2.05,4.779,4.011,10.669,9.684,4.962,16.485-5.707,6.801-12.317,1.985-17.096-2.024-4.81-4.035-10.7-9.709-4.993-16.511Zm19.791,16.607c3.728-4.442-1.761-9.101-5.008-11.826-3.217-2.699-8.757-7.295-12.485-2.853s1.761,9.1,4.978,11.799c3.247,2.725,8.788,7.322,12.515,2.88Z" style="fill: #181716;"/>
  </g>
  <g>
    <path d="M873.862,1191.671c-4.591-3.487-5.685-8.842-1.828-13.438,3.188-3.799,7.913-4.95,11.958-1.557,3.829,3.213,3.6,7.406,3.022,11.516-.633,4.115-1.645,8.121,.615,10.904l9.357-11.151,2.297,1.928-11.902,14.185c-4.787-4.748-4.439-8.895-3.768-13.552,.817-5.578,1.037-8.579-1.965-11.098-2.359-1.979-5.515-1.392-7.443,.906-2.545,3.033-.837,6.659,1.843,8.752l-2.185,2.604Z" style="fill: #181716;"/>
    <path d="M886.252,1161.288c5.707-6.801,12.317-1.985,17.126,2.051,4.78,4.01,10.67,9.683,4.963,16.484s-12.316,1.986-17.097-2.024c-4.809-4.035-10.699-9.709-4.992-16.511Zm19.792,16.607c3.727-4.442-1.763-9.101-5.01-11.825-3.217-2.699-8.756-7.296-12.483-2.854-3.728,4.442,1.76,9.1,4.977,11.799,3.247,2.726,8.789,7.322,12.516,2.88Z" style="fill: #181716;"/>
    <path d="M900.316,1144.527c5.707-6.801,12.318-1.985,17.126,2.05,4.78,4.011,10.669,9.684,4.962,16.485-5.707,6.801-12.316,1.986-17.096-2.024-4.809-4.036-10.7-9.709-4.993-16.511Zm19.792,16.607c3.728-4.442-1.763-9.101-5.01-11.826-3.217-2.699-8.756-7.295-12.483-2.853s1.76,9.1,4.977,11.799c3.247,2.725,8.789,7.322,12.516,2.88Z" style="fill: #181716;"/>
    <path d="M932.317,1135.508l2.468-2.94,2.299,1.929-2.468,2.941,5.085,4.267-2.056,2.451-5.085-4.268-7.995,9.528-2.513-2.108-5.821-21.747,1.748-2.083,14.338,12.03Zm-2.056,2.451l-10.63-8.92-.052,.062,4.563,16.15,6.119-7.292Z" style="fill: #181716;"/>
  </g>
  <g>
    <path d="M1231.969,1191.657c-4.592-3.487-5.685-8.842-1.828-13.438,3.188-3.799,7.913-4.95,11.957-1.557,3.829,3.213,3.6,7.406,3.022,11.516-.634,4.115-1.646,8.121,.613,10.904l9.357-11.151,2.298,1.928-11.902,14.185c-4.787-4.748-4.44-8.895-3.769-13.552,.817-5.578,1.037-8.579-1.965-11.098-2.36-1.98-5.516-1.392-7.443,.906-2.545,3.033-.838,6.659,1.844,8.752l-2.185,2.604Z" style="fill: #181716;"/>
    <path d="M1244.358,1161.275c5.707-6.802,12.317-1.986,17.127,2.05,4.779,4.01,10.669,9.683,4.962,16.484s-12.316,1.986-17.096-2.024c-4.81-4.035-10.7-9.709-4.993-16.51Zm19.791,16.606c3.728-4.442-1.762-9.101-5.01-11.825-3.217-2.699-8.756-7.296-12.483-2.854s1.761,9.1,4.978,11.799c3.248,2.726,8.788,7.322,12.516,2.88Z" style="fill: #181716;"/>
    <path d="M1282.149,1160.351l-2.186,2.604-15.563-13.06-4.729,5.638-2.084-1.749c2.493-2.972,3.959-6.336,1.17-9.669l1.671-1.991,21.722,18.227Z" style="fill: #181716;"/>
    <path d="M1272.486,1127.753c5.707-6.802,12.317-1.985,17.127,2.05,4.779,4.011,10.669,9.684,4.962,16.484-5.707,6.802-12.316,1.986-17.096-2.023-4.81-4.036-10.7-9.709-4.993-16.511Zm19.791,16.606c3.728-4.441-1.761-9.1-5.009-11.825-3.217-2.699-8.757-7.295-12.484-2.853-3.728,4.441,1.761,9.1,4.978,11.799,3.248,2.725,8.788,7.322,12.516,2.879Z" style="fill: #181716;"/>
  </g>
  <g>
    <path d="M1587.976,1191.658c-4.591-3.487-5.684-8.843-1.828-13.438,3.188-3.799,7.913-4.949,11.957-1.557,3.83,3.214,3.601,7.407,3.022,11.517-.632,4.115-1.645,8.121,.614,10.904l9.357-11.152,2.298,1.928-11.902,14.186c-4.788-4.748-4.44-8.895-3.77-13.552,.817-5.579,1.038-8.579-1.964-11.098-2.359-1.98-5.516-1.392-7.443,.906-2.545,3.033-.838,6.659,1.844,8.752l-2.186,2.604Z" style="fill: #181716;"/>
    <path d="M1600.366,1161.275c5.707-6.802,12.316-1.985,17.126,2.05,4.779,4.011,10.67,9.684,4.963,16.484-5.707,6.802-12.317,1.987-17.097-2.023-4.81-4.036-10.699-9.71-4.992-16.511Zm19.791,16.606c3.728-4.442-1.762-9.1-5.009-11.824-3.217-2.699-8.757-7.296-12.484-2.854s1.761,9.1,4.978,11.799c3.247,2.725,8.788,7.321,12.516,2.879Z" style="fill: #181716;"/>
    <path d="M1638.157,1160.352l-2.186,2.604-15.563-13.059-4.73,5.637-2.084-1.748c2.494-2.972,3.96-6.336,1.171-9.669l1.671-1.991,21.722,18.227Z" style="fill: #181716;"/>
    <path d="M1637.511,1128.271c-2.167-1.399-4.585-1.131-6.308,.922-3.728,4.441,.583,9.26,3.819,12.185l.113-.011c-.964-2.896-.279-5.454,1.7-7.813,3.496-4.167,8.612-4.103,12.626-.735,3.155,2.648,5.8,7.895,1.198,13.379-5.398,6.434-12.155,2.54-16.72-1.291-5.974-5.012-10.125-11.576-4.933-17.765,3.008-3.584,6.906-4.124,10.688-1.474l-2.185,2.604Zm2.335,16.317c2.695,2.263,6.229,2.407,8.619-.442,2.365-2.818,1.439-6.257-1.134-8.417-2.696-2.262-6.114-2.729-8.608,.243-2.442,2.91-1.604,6.329,1.123,8.616Z" style="fill: #181716;"/>
  </g>
  <g>
    <path d="M304.677,1193.876l-2.185,2.604-15.563-13.06-4.73,5.638-2.083-1.748c2.494-2.973,3.959-6.337,1.169-9.669l1.671-1.991,21.722,18.226Z" style="fill: #181716;"/>
    <path d="M307.77,1179.552c2.269,1.59,4.903,.877,6.652-1.207,2.673-3.186,1.196-7.088-4.282-11.945l-.113,.01c1.015,2.522,.56,5.43-1.214,7.544-3.702,4.411-8.73,4.369-13.02,.77-4.197-3.521-4.609-8.879-1.087-13.076,3.393-4.044,8.422-5.62,16.632,1.27,7.507,6.299,9.801,12.088,5.379,17.356-3.06,3.646-7.113,4.682-11.134,1.883l2.185-2.604Zm-10.868-15.854c-2.597,3.094-1.092,6.34,1.574,8.577,2.39,2.005,6.086,2.079,8.195-.434,2.288-2.727,1.521-6.293-1.053-8.452-2.665-2.236-6.274-2.603-8.716,.309Z" style="fill: #181716;"/>
    <path d="M321.833,1162.791c2.269,1.59,4.903,.877,6.651-1.207,2.674-3.186,1.197-7.088-4.281-11.945l-.113,.01c1.015,2.522,.56,5.43-1.214,7.543-3.702,4.412-8.729,4.37-13.019,.771-4.197-3.521-4.609-8.879-1.088-13.076,3.394-4.044,8.423-5.62,16.633,1.27,7.507,6.299,9.801,12.087,5.379,17.356-3.059,3.646-7.112,4.682-11.133,1.883l2.185-2.604Zm-10.868-15.854c-2.597,3.094-1.092,6.34,1.574,8.577,2.39,2.005,6.087,2.079,8.194-.434,2.288-2.727,1.521-6.293-1.053-8.453-2.665-2.236-6.273-2.602-8.716,.31Z" style="fill: #181716;"/>
    <path d="M341.054,1135.529l2.468-2.941,2.298,1.929-2.468,2.94,5.086,4.268-2.056,2.451-5.086-4.268-7.995,9.528-2.512-2.108-5.821-21.746,1.748-2.084,14.338,12.031Zm-2.056,2.451l-10.63-8.92-.052,.061,4.563,16.15,6.119-7.291Z" style="fill: #181716;"/>
  </g>
  <g>
    <path d="M420.172,1193.886l-2.185,2.604-15.563-13.059-4.73,5.637-2.083-1.748c2.494-2.972,3.959-6.336,1.169-9.67l1.671-1.991,21.722,18.227Z" style="fill: #181716;"/>
    <path d="M423.29,1179.53c2.269,1.591,4.903,.877,6.651-1.206,2.673-3.187,1.196-7.088-4.281-11.945l-.113,.01c1.015,2.522,.56,5.43-1.214,7.544-3.702,4.411-8.73,4.368-13.019,.77-4.197-3.521-4.609-8.88-1.087-13.077,3.393-4.044,8.422-5.619,16.632,1.271,7.506,6.298,9.801,12.087,5.379,17.356-3.059,3.646-7.114,4.682-11.133,1.883l2.185-2.604Zm-10.868-15.854c-2.596,3.094-1.092,6.341,1.574,8.577,2.389,2.005,6.086,2.079,8.194-.434,2.288-2.727,1.521-6.293-1.052-8.453-2.665-2.236-6.274-2.602-8.716,.31Z" style="fill: #181716;"/>
    <path d="M437.328,1162.8c2.269,1.591,4.902,.877,6.65-1.206,2.674-3.187,1.197-7.088-4.28-11.945l-.113,.01c1.015,2.522,.56,5.43-1.214,7.544-3.702,4.411-8.73,4.369-13.02,.77-4.197-3.521-4.609-8.88-1.087-13.077,3.394-4.044,8.423-5.619,16.633,1.271,7.506,6.298,9.801,12.087,5.379,17.356-3.059,3.646-7.113,4.682-11.133,1.883l2.185-2.604Zm-10.869-15.854c-2.596,3.095-1.092,6.341,1.574,8.577,2.389,2.005,6.086,2.079,8.194-.434,2.288-2.727,1.521-6.293-1.052-8.452-2.665-2.236-6.274-2.603-8.716,.309Z" style="fill: #181716;"/>
    <path d="M447.654,1128.283c-2.167-1.399-4.585-1.131-6.308,.922-3.728,4.442,.583,9.26,3.82,12.185l.113-.01c-.963-2.896-.279-5.455,1.701-7.814,3.496-4.166,8.612-4.103,12.625-.735,3.155,2.648,5.8,7.896,1.198,13.379-5.398,6.434-12.154,2.54-16.72-1.291-5.974-5.012-10.125-11.576-4.932-17.765,3.008-3.584,6.907-4.124,10.688-1.474l-2.185,2.604Zm2.334,16.317c2.696,2.263,6.229,2.407,8.62-.441,2.365-2.819,1.439-6.258-1.134-8.417-2.696-2.263-6.115-2.729-8.608,.242-2.442,2.91-1.604,6.329,1.122,8.616Z" style="fill: #181716;"/>
  </g>
  <g>
    <path d="M541.948,1193.879l-2.185,2.604-15.563-13.06-4.73,5.638-2.084-1.748c2.494-2.972,3.96-6.337,1.17-9.67l1.671-1.991,21.722,18.227Z" style="fill: #181716;"/>
    <path d="M545.066,1179.523c2.269,1.59,4.902,.877,6.65-1.206,2.674-3.187,1.197-7.089-4.281-11.945l-.112,.009c1.016,2.523,.56,5.43-1.214,7.544-3.702,4.411-8.73,4.369-13.02,.771-4.196-3.521-4.608-8.88-1.086-13.077,3.394-4.044,8.422-5.619,16.633,1.271,7.506,6.298,9.801,12.087,5.379,17.356-3.059,3.646-7.113,4.682-11.133,1.883l2.185-2.604Zm-10.868-15.854c-2.597,3.095-1.092,6.341,1.573,8.577,2.39,2.005,6.087,2.079,8.195-.433,2.288-2.728,1.521-6.294-1.052-8.453-2.665-2.236-6.274-2.602-8.716,.309Z" style="fill: #181716;"/>
    <path d="M559.104,1162.793c2.269,1.59,4.903,.877,6.651-1.206,2.673-3.187,1.196-7.088-4.282-11.945l-.112,.009c1.015,2.523,.56,5.43-1.214,7.544-3.702,4.412-8.73,4.369-13.02,.771-4.196-3.521-4.608-8.88-1.086-13.077,3.393-4.044,8.421-5.619,16.632,1.271,7.506,6.298,9.801,12.087,5.379,17.356-3.059,3.646-7.114,4.682-11.133,1.883l2.185-2.604Zm-10.868-15.854c-2.597,3.095-1.092,6.341,1.573,8.577,2.39,2.005,6.087,2.079,8.195-.433,2.288-2.727,1.521-6.294-1.052-8.453-2.665-2.236-6.274-2.602-8.716,.309Z" style="fill: #181716;"/>
    <path d="M560.259,1127.943c3.984-4.749,8.315-4.248,11.072-1.934,1.931,1.619,2.679,4.336,1.985,6.781,3.012-1.91,5.965-1.572,8.662,.689,4.197,3.521,3.944,8.738,.576,12.752-3.496,4.167-8.371,5.559-12.813,1.831-2.573-2.159-3.407-5.208-2.235-8.349-2.252,1.19-5.088,.899-7.049-.746-3.585-3.008-3-7.687-.198-11.025Zm9.335,7.415c1.722-2.053,1.72-4.664-.485-6.515-2.176-1.825-4.625-1.271-6.398,.844-1.748,2.083-2.024,4.776,.152,6.602,2.389,2.005,4.932,1.214,6.731-.931Zm10.661,8.946c2.185-2.604,1.92-5.959-.5-7.99-2.359-1.979-5.833-1.447-7.889,1.004-2.159,2.573-2.202,5.982,.31,8.091,2.604,2.185,5.817,1.592,8.079-1.104Z" style="fill: #181716;"/>
  </g>
  <g>
    <path d="M752.087,1191.678c-4.592-3.486-5.686-8.842-1.83-13.438,3.188-3.799,7.914-4.95,11.958-1.557,3.829,3.213,3.6,7.406,3.023,11.516-.634,4.116-1.646,8.122,.614,10.904l9.357-11.151,2.297,1.928-11.902,14.185c-4.786-4.747-4.439-8.894-3.768-13.551,.817-5.579,1.038-8.579-1.965-11.098-2.359-1.98-5.515-1.392-7.443,.906-2.545,3.033-.837,6.658,1.844,8.752l-2.185,2.604Z" style="fill: #181716;"/>
    <path d="M764.476,1161.296c5.707-6.802,12.318-1.985,17.127,2.05,4.779,4.011,10.669,9.684,4.962,16.484-5.707,6.802-12.317,1.986-17.096-2.023-4.81-4.036-10.701-9.71-4.994-16.511Zm19.792,16.606c3.728-4.442-1.761-9.101-5.009-11.825-3.217-2.699-8.756-7.295-12.484-2.853s1.761,9.1,4.978,11.799c3.248,2.725,8.788,7.321,12.516,2.879Z" style="fill: #181716;"/>
    <path d="M778.515,1144.565c5.707-6.802,12.318-1.985,17.127,2.05,4.779,4.011,10.669,9.684,4.962,16.484-5.707,6.802-12.317,1.987-17.096-2.023-4.81-4.036-10.701-9.71-4.994-16.511Zm19.792,16.606c3.728-4.441-1.762-9.1-5.01-11.825-3.217-2.699-8.756-7.295-12.483-2.853s1.76,9.1,4.977,11.799c3.248,2.725,8.789,7.321,12.516,2.879Z" style="fill: #181716;"/>
    <path d="M794.253,1141.426c-4.592-3.487-5.685-8.842-1.829-13.438,3.188-3.799,7.914-4.95,11.958-1.557,3.829,3.213,3.6,7.406,3.022,11.516-.633,4.115-1.646,8.121,.614,10.904l9.357-11.151,2.297,1.928-11.902,14.185c-4.787-4.748-4.439-8.894-3.768-13.551,.817-5.58,1.038-8.579-1.965-11.099-2.359-1.979-5.515-1.391-7.442,.907-2.545,3.033-.838,6.658,1.844,8.752l-2.185,2.604Z" style="fill: #181716;"/>
  </g>
  <g>
    <path d="M1113.776,1191.684c-4.591-3.487-5.685-8.842-1.828-13.438,3.188-3.799,7.913-4.95,11.958-1.557,3.829,3.213,3.599,7.406,3.021,11.516-.633,4.115-1.645,8.121,.614,10.904l9.357-11.151,2.297,1.928-11.902,14.185c-4.786-4.747-4.439-8.895-3.768-13.552,.817-5.579,1.036-8.579-1.966-11.098-2.359-1.979-5.515-1.392-7.442,.906-2.545,3.033-.838,6.659,1.843,8.752l-2.185,2.604Z" style="fill: #181716;"/>
    <path d="M1126.166,1161.302c5.707-6.802,12.318-1.986,17.127,2.049,4.78,4.011,10.669,9.685,4.962,16.485-5.707,6.802-12.315,1.986-17.096-2.024-4.809-4.036-10.7-9.709-4.993-16.51Zm19.792,16.606c3.728-4.442-1.763-9.101-5.01-11.825-3.217-2.699-8.756-7.296-12.483-2.854s1.761,9.1,4.978,11.799c3.247,2.725,8.788,7.322,12.516,2.88Z" style="fill: #181716;"/>
    <path d="M1140.23,1144.54c5.707-6.801,12.317-1.985,17.126,2.05,4.78,4.011,10.67,9.684,4.963,16.485s-12.316,1.986-17.097-2.024c-4.809-4.036-10.699-9.709-4.992-16.511Zm19.792,16.607c3.728-4.442-1.763-9.101-5.01-11.825-3.217-2.699-8.756-7.296-12.483-2.854s1.76,9.1,4.977,11.799c3.247,2.725,8.789,7.322,12.517,2.88Z" style="fill: #181716;"/>
    <path d="M1154.14,1127.963c3.985-4.748,8.315-4.247,11.073-1.934,1.93,1.619,2.679,4.336,1.984,6.781,3.013-1.91,5.966-1.571,8.662,.69,4.196,3.521,3.942,8.738,.575,12.752-3.496,4.167-8.37,5.559-12.812,1.831-2.574-2.159-3.409-5.209-2.235-8.349-2.252,1.19-5.088,.898-7.049-.747-3.585-3.008-3.001-7.686-.199-11.025Zm9.336,7.416c1.723-2.053,1.721-4.665-.484-6.515-2.176-1.826-4.624-1.271-6.398,.844-1.748,2.083-2.024,4.775,.151,6.601,2.39,2.005,4.932,1.215,6.731-.93Zm10.662,8.946c2.185-2.604,1.92-5.959-.501-7.99-2.358-1.979-5.832-1.448-7.889,1.003-2.16,2.573-2.202,5.983,.31,8.091,2.604,2.186,5.817,1.593,8.08-1.104Z" style="fill: #181716;"/>
  </g>
  <g>
    <path d="M992.001,1191.69c-4.592-3.487-5.686-8.842-1.829-13.438,3.188-3.799,7.914-4.95,11.958-1.557,3.829,3.214,3.6,7.406,3.022,11.516-.634,4.115-1.646,8.121,.613,10.905l9.357-11.152,2.297,1.928-11.902,14.186c-4.786-4.748-4.439-8.895-3.768-13.552,.817-5.579,1.038-8.579-1.965-11.099-2.359-1.979-5.516-1.391-7.443,.907-2.545,3.032-.838,6.658,1.844,8.751l-2.185,2.604Z" style="fill: #181716;"/>
    <path d="M1004.39,1161.309c5.707-6.802,12.318-1.985,17.128,2.05,4.779,4.011,10.669,9.684,4.962,16.484-5.707,6.802-12.316,1.986-17.096-2.023-4.81-4.036-10.701-9.71-4.994-16.511Zm19.792,16.606c3.728-4.442-1.761-9.1-5.009-11.825-3.217-2.699-8.757-7.295-12.484-2.854-3.728,4.442,1.761,9.101,4.978,11.8,3.248,2.725,8.788,7.321,12.516,2.879Z" style="fill: #181716;"/>
    <path d="M1018.454,1144.548c5.707-6.802,12.317-1.986,17.127,2.05,4.779,4.01,10.67,9.684,4.963,16.484-5.707,6.802-12.317,1.986-17.097-2.023-4.81-4.036-10.7-9.71-4.993-16.511Zm19.792,16.606c3.728-4.442-1.762-9.101-5.01-11.825-3.217-2.699-8.756-7.296-12.483-2.854s1.761,9.1,4.978,11.799c3.248,2.726,8.788,7.322,12.516,2.88Z" style="fill: #181716;"/>
    <path d="M1041.56,1128.273c-2.166-1.4-4.583-1.132-6.306,.921-3.728,4.442,.582,9.26,3.819,12.185l.112-.011c-.963-2.896-.279-5.454,1.7-7.813,3.496-4.166,8.612-4.103,12.626-.734,3.155,2.647,5.801,7.895,1.199,13.379-5.398,6.434-12.155,2.539-16.72-1.291-5.974-5.013-10.126-11.576-4.934-17.765,3.008-3.585,6.907-4.124,10.688-1.475l-2.186,2.604Zm2.336,16.316c2.696,2.263,6.229,2.408,8.62-.441,2.365-2.818,1.439-6.258-1.135-8.417-2.696-2.263-6.114-2.729-8.607,.242-2.442,2.91-1.604,6.329,1.122,8.616Z" style="fill: #181716;"/>
  </g>
  <g>
    <path d="M1471.854,1191.703c-4.592-3.487-5.685-8.843-1.828-13.438,3.188-3.799,7.913-4.949,11.957-1.557,3.829,3.214,3.6,7.407,3.022,11.517-.634,4.115-1.646,8.121,.613,10.904l9.357-11.152,2.298,1.928-11.902,14.186c-4.787-4.748-4.44-8.895-3.769-13.552,.817-5.579,1.037-8.579-1.965-11.098-2.359-1.98-5.516-1.392-7.443,.906-2.545,3.033-.838,6.659,1.844,8.752l-2.185,2.604Z" style="fill: #181716;"/>
    <path d="M1484.244,1161.32c5.707-6.802,12.317-1.985,17.127,2.05,4.779,4.011,10.669,9.684,4.962,16.484-5.707,6.802-12.316,1.987-17.096-2.023-4.81-4.036-10.7-9.71-4.993-16.511Zm19.791,16.606c3.728-4.442-1.761-9.1-5.009-11.824-3.217-2.699-8.757-7.296-12.484-2.854s1.761,9.1,4.978,11.799c3.248,2.725,8.788,7.321,12.516,2.879Z" style="fill: #181716;"/>
    <path d="M1522.035,1160.396l-2.186,2.604-15.562-13.059-4.73,5.637-2.084-1.748c2.493-2.972,3.959-6.336,1.17-9.669l1.671-1.991,21.722,18.227Z" style="fill: #181716;"/>
    <path d="M1530.31,1135.54l2.468-2.94,2.298,1.928-2.468,2.941,5.086,4.267-2.057,2.451-5.086-4.267-7.995,9.527-2.512-2.107-5.82-21.747,1.748-2.084,14.338,12.031Zm-2.057,2.451l-10.631-8.92-.052,.062,4.564,16.15,6.118-7.292Z" style="fill: #181716;"/>
  </g>
  <g>
    <path d="M1350.078,1191.71c-4.591-3.487-5.685-8.842-1.828-13.438,3.188-3.799,7.913-4.95,11.957-1.557,3.83,3.213,3.601,7.406,3.022,11.516-.633,4.115-1.646,8.121,.614,10.904l9.357-11.151,2.298,1.928-11.902,14.185c-4.788-4.747-4.44-8.894-3.77-13.552,.817-5.579,1.038-8.578-1.964-11.098-2.359-1.979-5.516-1.391-7.444,.906-2.545,3.033-.837,6.659,1.845,8.752l-2.186,2.604Z" style="fill: #181716;"/>
    <path d="M1362.469,1161.328c5.707-6.802,12.316-1.986,17.126,2.05,4.779,4.01,10.669,9.684,4.963,16.484-5.707,6.802-12.317,1.986-17.097-2.024-4.81-4.035-10.699-9.709-4.992-16.51Zm19.791,16.606c3.727-4.442-1.762-9.101-5.009-11.825-3.217-2.699-8.757-7.296-12.484-2.854s1.761,9.1,4.978,11.799c3.247,2.725,8.788,7.322,12.516,2.88Z" style="fill: #181716;"/>
    <path d="M1400.259,1160.403l-2.185,2.604-15.563-13.06-4.73,5.638-2.083-1.748c2.494-2.973,3.959-6.337,1.169-9.669l1.671-1.992,21.722,18.227Z" style="fill: #181716;"/>
    <path d="M1392.271,1141.427c-4.591-3.487-5.685-8.842-1.828-13.437,3.188-3.8,7.913-4.951,11.957-1.558,3.83,3.213,3.6,7.406,3.022,11.516-.633,4.115-1.646,8.122,.613,10.904l9.357-11.151,2.298,1.928-11.902,14.185c-4.787-4.747-4.44-8.894-3.769-13.551,.817-5.579,1.037-8.579-1.965-11.099-2.359-1.979-5.516-1.391-7.443,.907-2.545,3.033-.838,6.658,1.844,8.752l-2.185,2.604Z" style="fill: #181716;"/>
  </g>
  <g>
    <path d="M1704.046,1191.717c-4.592-3.486-5.685-8.842-1.829-13.437,3.188-3.8,7.914-4.95,11.958-1.558,3.829,3.213,3.601,7.406,3.022,11.517-.633,4.115-1.646,8.121,.614,10.904l9.357-11.152,2.297,1.928-11.902,14.185c-4.787-4.747-4.439-8.894-3.769-13.551,.817-5.579,1.038-8.579-1.965-11.098-2.359-1.98-5.515-1.392-7.442,.906-2.546,3.033-.838,6.658,1.844,8.752l-2.186,2.604Z" style="fill: #181716;"/>
    <path d="M1716.436,1161.335c5.707-6.801,12.317-1.986,17.127,2.05,4.779,4.011,10.67,9.684,4.963,16.485-5.707,6.801-12.317,1.985-17.097-2.025-4.81-4.035-10.7-9.708-4.993-16.51Zm19.792,16.607c3.728-4.442-1.762-9.102-5.01-11.826-3.217-2.699-8.756-7.295-12.483-2.853s1.76,9.1,4.977,11.799c3.248,2.725,8.789,7.322,12.517,2.88Z" style="fill: #181716;"/>
    <path d="M1754.227,1160.41l-2.186,2.604-15.562-13.059-4.73,5.637-2.084-1.748c2.494-2.972,3.959-6.336,1.17-9.669l1.67-1.991,21.723,18.226Z" style="fill: #181716;"/>
    <path d="M1744.409,1127.997c3.984-4.749,8.315-4.247,11.073-1.934,1.93,1.619,2.679,4.335,1.984,6.781,3.012-1.91,5.966-1.572,8.662,.69,4.196,3.521,3.943,8.738,.575,12.752-3.496,4.166-8.37,5.558-12.812,1.831-2.573-2.16-3.408-5.21-2.235-8.35-2.252,1.19-5.088,.899-7.049-.746-3.585-3.008-3-7.686-.198-11.025Zm9.335,7.416c1.723-2.053,1.722-4.665-.484-6.515-2.175-1.826-4.624-1.271-6.397,.843-1.748,2.084-2.023,4.775,.151,6.602,2.39,2.005,4.932,1.215,6.73-.93Zm10.662,8.946c2.186-2.604,1.92-5.959-.501-7.99-2.358-1.979-5.831-1.448-7.888,1.002-2.159,2.574-2.203,5.983,.311,8.092,2.604,2.185,5.816,1.592,8.078-1.104Z" style="fill: #181716;"/>
  </g>
</svg>