<svg id="Calque_1" data-name="Calque 1" xmlns="http://www.w3.org/2000/svg" viewBox="0 0 2013.31 1224.543">
  <g>
    <path d="M19.626,17.105H43.292v3.84H24.186v10.9H42v3.84H24.186V47.539h19.25V51.38H19.626Z" style="fill: #181716"/>
    <path d="M47.8,26.561h3.84V30.5h.1A8.638,8.638,0,0,1,59.8,25.986c6.529,0,8.545,3.744,8.545,9.072V51.38h-4.08v-16.8a4.676,4.676,0,0,0-5.041-4.992c-4.944,0-7.344,3.312-7.344,7.777V51.38H47.8Z" style="fill: #181716"/>
    <path d="M94.6,17.344c5.953,0,7.681,4.369,7.681,9.6,0,4.992-2.112,9.648-7.681,9.648-5.808,0-7.776-4.32-7.776-9.5C86.826,21.953,88.7,17.344,94.6,17.344Zm-.144,16.61c3.649,0,4.225-4.032,4.225-7.008,0-2.833-.48-6.961-4.081-6.961-3.552,0-4.176,4.128-4.176,7.008C90.426,29.778,90.858,33.954,94.458,33.954Zm22.8-17.234h4.081L95.563,52.436H91.434Zm1.057,15.986c5.952,0,7.68,4.368,7.68,9.6,0,4.992-2.112,9.649-7.68,9.649-5.809,0-7.777-4.321-7.777-9.505C110.54,37.314,112.412,32.706,118.317,32.706Zm-.144,16.61c3.648,0,4.224-4.033,4.224-7.009,0-2.833-.48-6.961-4.08-6.961-3.553,0-4.177,4.128-4.177,7.009C114.14,45.139,114.572,49.316,118.173,49.316Z" style="fill: #181716"/>
  </g>
  <line x1="1540.627" y1="127.33" x2="117.491" y2="127.33" style="fill: none;stroke: #cfd0d0;stroke-linejoin: round;stroke-width: 2.14400005340576px;stroke-dasharray: 17.079999923706055,6.360000133514404"/>
  <line x1="1540.627" y1="227.824" x2="117.491" y2="227.824" style="fill: none;stroke: #cfd0d0;stroke-linejoin: round;stroke-width: 2.14400005340576px;stroke-dasharray: 17.079999923706055,6.360000133514404"/>
  <line x1="1540.627" y1="333.117" x2="117.491" y2="333.117" style="fill: none;stroke: #cfd0d0;stroke-linejoin: round;stroke-width: 2.14400005340576px;stroke-dasharray: 17.079999923706055,6.360000133514404"/>
  <line x1="1540.627" y1="433.611" x2="117.491" y2="433.611" style="fill: none;stroke: #cfd0d0;stroke-linejoin: round;stroke-width: 2.14400005340576px;stroke-dasharray: 17.079999923706055,6.360000133514404"/>
  <line x1="1540.627" y1="536.149" x2="117.491" y2="536.149" style="fill: none;stroke: #cfd0d0;stroke-linejoin: round;stroke-width: 2.14400005340576px;stroke-dasharray: 17.079999923706055,6.360000133514404"/>
  <line x1="1540.627" y1="636.643" x2="117.491" y2="636.643" style="fill: none;stroke: #cfd0d0;stroke-linejoin: round;stroke-width: 2.14400005340576px;stroke-dasharray: 17.079999923706055,6.360000133514404"/>
  <line x1="1540.627" y1="741.937" x2="117.491" y2="741.937" style="fill: none;stroke: #cfd0d0;stroke-linejoin: round;stroke-width: 2.14400005340576px;stroke-dasharray: 17.079999923706055,6.360000133514404"/>
  <line x1="1540.627" y1="842.429" x2="117.491" y2="842.429" style="fill: none;stroke: #cfd0d0;stroke-linejoin: round;stroke-width: 2.14400005340576px;stroke-dasharray: 17.079999923706055,6.360000133514404"/>
  <line x1="1540.627" y1="943.713" x2="117.491" y2="943.713" style="fill: none;stroke: #cfd0d0;stroke-linejoin: round;stroke-width: 2.14400005340576px;stroke-dasharray: 17.079999923706055,6.360000133514404"/>
  <line x1="1540.627" y1="1048.124" x2="117.491" y2="1048.124" style="fill: none;stroke: #cfd0d0;stroke-linejoin: round;stroke-width: 2.14400005340576px;stroke-dasharray: 17.079999923706055,6.360000133514404"/>
  <path d="M197,731.126H320.353v416.52H197Zm282.12-114.544h127.5v531.064h-127.5ZM765.377,783.19h127.5v364.456h-127.5Zm286.264,52.064h127.5v312.392h-127.5Zm286.264,194.376h123.352v118.016H1337.905Z" style="fill: #fbd51d"/>
  <path d="M197,668.646H320.353v62.48H197Zm282.12-97.184h127.5v45.12h-127.5ZM765.377,727.654h127.5V783.19h-127.5Zm286.264,41.656h127.5v65.952h-127.5Zm286.264,183.96h123.352v76.36H1337.905Z" style="fill: #00a4dd"/>
  <path d="M197,481.214H320.353V668.646H197Zm282.12-197.848h127.5v288.1h-127.5ZM765.377,633.942h127.5v93.72h-127.5Zm286.264-3.472h127.5V769.31h-127.5ZM1337.905,817.9h123.352V953.27H1337.905Z" style="fill: #db2118"/>
  <path d="M197,231.3H320.353V481.214H197Zm282.12-41.648h127.5v93.72h-127.5ZM765.377,255.6h127.5V633.934h-127.5Zm286.264,59.008h127.5V630.47h-127.5Zm286.264,65.952h123.352V817.9H1337.905Z" style="fill: #e77016"/>
  <path d="M197,168.822H320.353V231.3H197Zm282.12-13.88h127.5v34.712h-127.5Zm286.256,31.24h127.5V255.6h-127.5Zm286.264,13.88h127.5V314.606h-127.5Zm286.264,41.656h123.352v138.84H1337.905Z" style="fill: #4c4a96"/>
  <path d="M197,127.174H320.353V168.83H197Zm282.12,0h127.5v27.768h-127.5Zm286.256,0h127.5v59.008h-127.5Zm286.264,0h127.5v72.888h-127.5Zm286.264,0h123.352V241.718H1337.905Z" style="fill: #62ac36"/>
  <g>
    <path d="M254.194,947.714h3.839v3h-3.839v6.639h-3.2v-6.639H238.556v-3.279L251.474,929h2.72Zm-3.2,0V933.837h-.08l-9.438,13.877Z" style="fill: #181716"/>
    <path d="M273.915,957.353h-3.4V937.036h-7.359v-2.719c3.88,0,7.4-1.04,8.159-5.32h2.6Z" style="fill: #181716"/>
  </g>
  <path d="M265.115,699.479a4.543,4.543,0,0,0-4.759-4.24c-5.8,0-6.719,6.4-6.879,10.758l.08.08a7.691,7.691,0,0,1,7.079-3.719c5.439,0,8.678,3.959,8.678,9.2,0,4.12-2.319,9.519-9.478,9.519-8.4,0-9.759-7.679-9.759-13.638,0-7.8,2.36-15.2,10.439-15.2,4.679,0,7.6,2.64,8,7.24Zm-11,12.278c0,3.519,2.16,6.318,5.879,6.318,3.68,0,5.719-2.919,5.719-6.278,0-3.52-1.84-6.439-5.719-6.439C256.2,705.358,254.117,708.2,254.117,711.757Z" style="fill: #181716"/>
  <g>
    <path d="M251.675,592.556h-3.4V572.239h-7.359V569.52c3.88,0,7.4-1.04,8.159-5.32h2.6Z" style="fill: #181716"/>
    <path d="M265.036,585.717c.24,2.76,2.48,4.319,5.2,4.319,4.16,0,6.2-3.639,6.4-10.958l-.08-.08a7.432,7.432,0,0,1-6.559,3.92c-5.759,0-8.958-3.88-8.958-9.479,0-5.479,3.839-9.239,9.318-9.239,5.28,0,9.718,2.84,9.718,13.559,0,9.8-2.959,15.277-9.838,15.277-4.759,0-8.159-2.44-8.6-7.319ZM270.2,567.2c-4.039,0-5.559,3.24-5.559,6.719a5.808,5.808,0,0,0,5.6,6c3.56,0,5.8-2.88,5.8-6.239C276.034,570.2,273.994,567.2,270.2,567.2Z" style="fill: #181716"/>
  </g>
  <g>
    <path d="M239.2,349.161c-.28-5.759,3.119-10.039,9.118-10.039,4.959,0,8.879,2.88,8.879,8.159,0,5-3.36,7.519-6.879,9.719-3.56,2.159-7.279,3.959-7.959,7.478h14.557v3H238.4c.559-6.719,3.959-9.119,7.958-11.6,4.8-2.96,7.239-4.72,7.239-8.639a5.167,5.167,0,0,0-5.479-5.119c-3.959,0-5.639,3.639-5.519,7.039Z" style="fill: #181716"/>
    <path d="M276.434,357.84h3.84v3h-3.84v6.639h-3.2v-6.639H260.8v-3.28l12.918-18.437h2.719Zm-3.2,0V343.962h-.08l-9.438,13.878Z" style="fill: #181716"/>
  </g>
  <path d="M265.115,190.721a4.543,4.543,0,0,0-4.759-4.24c-5.8,0-6.719,6.4-6.879,10.758l.08.081a7.689,7.689,0,0,1,7.079-3.72c5.439,0,8.678,3.959,8.678,9.2,0,4.119-2.319,9.518-9.478,9.518-8.4,0-9.759-7.679-9.759-13.638,0-7.8,2.36-15.2,10.439-15.2,4.679,0,7.6,2.639,8,7.239Zm-11,12.278c0,3.519,2.16,6.319,5.879,6.319,3.68,0,5.719-2.92,5.719-6.279,0-3.52-1.84-6.439-5.719-6.439C256.2,196.6,254.117,199.439,254.117,203Z" style="fill: #fff"/>
  <path d="M265.315,151.6h3.84v3h-3.84v6.639h-3.2V154.6H249.677v-3.28L262.6,132.88h2.72Zm-3.2,0V137.719h-.08L252.6,151.6Z" style="fill: #181716"/>
  <g>
    <path d="M540.917,872.242H529.479l-1.52,8.16.08.08a7.171,7.171,0,0,1,5.28-2.04c5.039,0,9.158,3.239,9.158,9.717,0,4.8-3.32,9.439-9.918,9.439-4.92,0-8.919-3-9.039-8.118h3.4c.2,2.92,2.559,5.119,5.959,5.119,3.239,0,6-2.2,6-6.719a6.141,6.141,0,0,0-6.4-6.439,6.809,6.809,0,0,0-5.28,2.679l-2.919-.16,2.64-14.717h14Z" style="fill: #181716"/>
    <path d="M546.12,878.8c-.279-5.759,3.12-10.038,9.119-10.038,4.959,0,8.878,2.88,8.878,8.159,0,5-3.359,7.519-6.878,9.718-3.56,2.16-7.279,3.96-7.959,7.479h14.557v3H545.321c.559-6.718,3.959-9.118,7.958-11.6,4.8-2.96,7.239-4.72,7.239-8.639a5.166,5.166,0,0,0-5.479-5.119c-3.96,0-5.639,3.639-5.519,7.038Z" style="fill: #181716"/>
  </g>
  <path d="M550,598.84h3.839v3H550v6.639h-3.2v-6.639H534.357v-3.28l12.918-18.437H550Zm-3.2,0V584.962h-.08l-9.438,13.878Z" style="fill: #181716"/>
  <g>
    <path d="M523.88,426.239C523.6,420.48,527,416.2,533,416.2c4.96,0,8.879,2.88,8.879,8.159,0,5-3.359,7.519-6.879,9.719-3.559,2.16-7.279,3.959-7.959,7.478H541.6v3H523.08c.56-6.719,3.959-9.119,7.959-11.6,4.8-2.96,7.239-4.719,7.239-8.639A5.167,5.167,0,0,0,532.8,419.2c-3.96,0-5.64,3.64-5.519,7.039Z" style="fill: #181716"/>
    <path d="M555.279,416.2c6.2,0,8.6,3.64,8.6,7.24a6.565,6.565,0,0,1-3.919,5.879c3.4,1.079,5.039,3.559,5.039,7.078,0,5.479-4.159,8.639-9.4,8.639-5.44,0-9.639-2.839-9.639-8.639a7.155,7.155,0,0,1,4.96-7.078,6.41,6.41,0,0,1-3.96-5.879C546.96,418.76,550.92,416.2,555.279,416.2Zm.32,25.836a5.478,5.478,0,0,0,5.8-5.519,5.585,5.585,0,0,0-5.839-5.4c-3.36,0-6,2.16-6,5.439C549.56,439.957,552.079,442.036,555.6,442.036Zm0-13.917a4.355,4.355,0,0,0,4.679-4.56c0-2.839-2-4.359-4.759-4.359-2.72,0-4.96,1.52-4.96,4.359C550.559,426.679,552.8,428.119,555.6,428.119Z" style="fill: #181716"/>
  </g>
  <path d="M538.6,243.037c.241,2.76,2.48,4.32,5.2,4.32,4.159,0,6.2-3.64,6.4-10.958l-.081-.08a7.431,7.431,0,0,1-6.558,3.919c-5.759,0-8.959-3.879-8.959-9.478,0-5.479,3.84-9.239,9.319-9.239,5.279,0,9.718,2.84,9.718,13.558,0,9.8-2.959,15.277-9.838,15.277-4.76,0-8.159-2.439-8.6-7.319Zm5.16-18.517c-4.039,0-5.559,3.24-5.559,6.719a5.808,5.808,0,0,0,5.6,6c3.559,0,5.8-2.88,5.8-6.24C549.6,227.52,547.555,224.52,543.756,224.52Z" style="fill: #181716"/>
  <path d="M541.956,173.437c.52.04,1,.04,1.48.04,2.879,0,5.4-1.56,5.4-4.639,0-2.96-2.16-4.56-5.039-4.56-3.72,0-5.319,2.84-5.359,6.159h-3.4c.2-5.4,3.08-9.158,8.759-9.158,4.919,0,8.638,2.359,8.638,7.6a6.493,6.493,0,0,1-3.919,5.638v.08c3.439.76,5.119,3.48,5.119,6.879,0,5.68-4.439,8.639-9.758,8.639-5.759,0-9.559-3.4-9.439-9.238h3.4c.12,3.679,2.159,6.238,6.039,6.238,3.319,0,6.159-2.039,6.159-5.479,0-3.559-2.68-5.438-6.039-5.438a16.947,16.947,0,0,0-2.04.119Z" style="fill: #fff"/>
  <path d="M541.956,138.679c.52.04,1,.04,1.48.04,2.879,0,5.4-1.56,5.4-4.639,0-2.96-2.16-4.56-5.039-4.56-3.72,0-5.319,2.84-5.359,6.159h-3.4c.2-5.4,3.08-9.158,8.759-9.158,4.919,0,8.638,2.36,8.638,7.6a6.5,6.5,0,0,1-3.919,5.639v.08c3.439.759,5.119,3.479,5.119,6.879,0,5.679-4.439,8.638-9.758,8.638-5.759,0-9.559-3.4-9.439-9.238h3.4c.12,3.679,2.159,6.239,6.039,6.239,3.319,0,6.159-2.04,6.159-5.479,0-3.56-2.68-5.439-6.039-5.439a16.947,16.947,0,0,0-2.04.119Z" style="fill: #181716"/>
  <g>
    <path d="M815.519,961.437c.519.04,1,.04,1.479.04,2.88,0,5.4-1.56,5.4-4.64,0-2.959-2.16-4.558-5.039-4.558-3.72,0-5.32,2.838-5.36,6.158h-3.4c.2-5.4,3.079-9.158,8.759-9.158,4.919,0,8.638,2.359,8.638,7.6a6.5,6.5,0,0,1-3.92,5.64v.08c3.44.76,5.12,3.479,5.12,6.879,0,5.679-4.44,8.638-9.758,8.638-5.76,0-9.559-3.4-9.439-9.239h3.4c.119,3.68,2.159,6.239,6.039,6.239,3.319,0,6.158-2.04,6.158-5.479,0-3.559-2.68-5.438-6.039-5.438a16.916,16.916,0,0,0-2.039.12Z" style="fill: #181716"/>
    <path d="M845.6,956.518a4.543,4.543,0,0,0-4.76-4.239c-5.8,0-6.719,6.4-6.879,10.757l.08.08a7.691,7.691,0,0,1,7.079-3.719c5.439,0,8.679,3.96,8.679,9.2,0,4.119-2.32,9.518-9.478,9.518-8.4,0-9.759-7.679-9.759-13.638,0-7.8,2.359-15.2,10.438-15.2,4.679,0,7.6,2.639,8,7.239Zm-11,12.277c0,3.52,2.16,6.319,5.88,6.319,3.678,0,5.719-2.919,5.719-6.279,0-3.519-1.84-6.438-5.719-6.438C836.679,962.4,834.6,965.237,834.6,968.8Z" style="fill: #181716"/>
  </g>
  <path d="M836.714,745.4H825.276l-1.52,8.158.08.08a7.177,7.177,0,0,1,5.279-2.039c5.04,0,9.159,3.239,9.159,9.718,0,4.8-3.32,9.439-9.918,9.439-4.919,0-8.919-3-9.039-8.119h3.4c.2,2.919,2.56,5.119,5.959,5.119,3.24,0,6-2.2,6-6.719a6.142,6.142,0,0,0-6.4-6.439,6.805,6.805,0,0,0-5.28,2.68l-2.92-.16,2.64-14.718h14Z" style="fill: #181716"/>
  <path d="M823.277,687.2c.239,2.76,2.479,4.32,5.2,4.32,4.159,0,6.2-3.64,6.4-10.958l-.08-.08a7.431,7.431,0,0,1-6.558,3.919c-5.759,0-8.959-3.879-8.959-9.478,0-5.479,3.839-9.239,9.318-9.239,5.279,0,9.719,2.84,9.719,13.558,0,9.8-2.959,15.277-9.838,15.277-4.76,0-8.159-2.439-8.6-7.319Zm5.159-18.517c-4.04,0-5.56,3.24-5.56,6.72a5.809,5.809,0,0,0,5.6,6c3.558,0,5.8-2.88,5.8-6.24C834.275,671.684,832.235,668.684,828.436,668.684Z" style="fill: #181716"/>
  <g>
    <path d="M815.519,443.96c.519.04,1,.04,1.479.04,2.88,0,5.4-1.559,5.4-4.639,0-2.959-2.16-4.559-5.039-4.559-3.72,0-5.32,2.839-5.36,6.159h-3.4c.2-5.4,3.079-9.159,8.759-9.159,4.919,0,8.638,2.36,8.638,7.6a6.494,6.494,0,0,1-3.92,5.639v.08c3.44.76,5.12,3.479,5.12,6.879,0,5.679-4.44,8.638-9.758,8.638-5.76,0-9.559-3.4-9.439-9.238h3.4c.119,3.679,2.159,6.239,6.039,6.239,3.319,0,6.158-2.04,6.158-5.479,0-3.56-2.68-5.439-6.039-5.439a16.916,16.916,0,0,0-2.039.12Z" style="fill: #181716"/>
    <path d="M849.4,435.2c-5.719,5.68-10.359,16.078-10.878,24.956h-3.8c.641-9.6,5.239-18.356,11.2-24.675H831.04v-3.2H849.4Z" style="fill: #181716"/>
  </g>
  <path d="M838.274,212.037c-5.719,5.68-10.359,16.078-10.878,24.956h-3.8c.641-9.6,5.239-18.357,11.2-24.675H819.917v-3.2h18.357Z" style="fill: #fff"/>
  <path d="M834.475,150.643a4.543,4.543,0,0,0-4.76-4.24c-5.8,0-6.719,6.4-6.879,10.758l.08.08A7.691,7.691,0,0,1,830,153.522c5.439,0,8.679,3.959,8.679,9.2,0,4.12-2.32,9.519-9.478,9.519-8.4,0-9.759-7.679-9.759-13.638,0-7.8,2.359-15.2,10.438-15.2,4.679,0,7.6,2.639,8,7.239Zm-11,12.278c0,3.519,2.16,6.318,5.88,6.318,3.678,0,5.718-2.919,5.718-6.278,0-3.52-1.839-6.439-5.718-6.439C825.556,156.522,823.476,159.361,823.476,162.921Z" style="fill: #181716"/>
  <g>
    <path d="M1100.2,990.281c.52.04,1,.04,1.48.04,2.88,0,5.4-1.56,5.4-4.64,0-2.959-2.16-4.559-5.039-4.559-3.719,0-5.319,2.839-5.359,6.159h-3.4c.2-5.4,3.079-9.159,8.758-9.159,4.919,0,8.639,2.36,8.639,7.6a6.5,6.5,0,0,1-3.92,5.64v.08c3.44.759,5.119,3.479,5.119,6.879,0,5.678-4.439,8.637-9.758,8.637-5.759,0-9.558-3.4-9.438-9.238h3.4c.119,3.68,2.16,6.239,6.039,6.239,3.32,0,6.159-2.04,6.159-5.479,0-3.559-2.68-5.439-6.039-5.439a16.945,16.945,0,0,0-2.04.12Z" style="fill: #181716"/>
    <path d="M1127.957,1006.478h-3.4V986.161H1117.2v-2.719c3.879,0,7.4-1.04,8.159-5.32h2.6Z" style="fill: #181716"/>
  </g>
  <path d="M1119.155,791.362a4.545,4.545,0,0,0-4.76-4.24c-5.8,0-6.719,6.4-6.879,10.758l.08.08a7.691,7.691,0,0,1,7.079-3.72c5.439,0,8.679,3.96,8.679,9.2,0,4.119-2.321,9.517-9.479,9.517-8.4,0-9.759-7.678-9.759-13.637,0-7.8,2.36-15.2,10.439-15.2,4.679,0,7.6,2.64,8,7.24Zm-11,12.277c0,3.519,2.16,6.319,5.879,6.319,3.679,0,5.719-2.92,5.719-6.279,0-3.52-1.84-6.439-5.719-6.439C1110.236,797.24,1108.156,800.08,1108.156,803.639Z" style="fill: #181716"/>
  <g>
    <path d="M1105.717,712.236h-3.4V691.919h-7.359V689.2c3.879,0,7.4-1.04,8.158-5.319h2.6Z" style="fill: #181716"/>
    <path d="M1130.477,702.6h3.84v3h-3.84v6.639h-3.2V705.6H1114.84v-3.28l12.918-18.437h2.719Zm-3.2,0V688.719h-.08l-9.439,13.878Z" style="fill: #181716"/>
  </g>
  <g>
    <path d="M1100.2,469.281c.52.04,1,.04,1.48.04,2.88,0,5.4-1.56,5.4-4.64,0-2.959-2.16-4.559-5.039-4.559-3.719,0-5.319,2.84-5.359,6.159h-3.4c.2-5.4,3.079-9.159,8.758-9.159,4.919,0,8.639,2.36,8.639,7.6a6.494,6.494,0,0,1-3.92,5.639v.08c3.44.76,5.119,3.48,5.119,6.879,0,5.679-4.439,8.639-9.758,8.639-5.759,0-9.558-3.4-9.438-9.239h3.4c.119,3.68,2.16,6.239,6.039,6.239,3.32,0,6.159-2.039,6.159-5.479,0-3.559-2.68-5.439-6.039-5.439a16.945,16.945,0,0,0-2.04.12Z" style="fill: #181716"/>
    <path d="M1127.957,485.478h-3.4V465.161H1117.2v-2.719c3.879,0,7.4-1.04,8.159-5.32h2.6Z" style="fill: #181716"/>
  </g>
  <g>
    <path d="M1105.717,268.759h-3.4V248.443h-7.359v-2.72c3.879,0,7.4-1.04,8.158-5.319h2.6Z" style="fill: #fff"/>
    <path d="M1127.957,268.759h-3.4V248.443H1117.2v-2.72c3.879,0,7.4-1.04,8.159-5.319h2.6Z" style="fill: #fff"/>
  </g>
  <path d="M1122.953,151.162c-5.718,5.68-10.358,16.078-10.878,24.956h-3.8c.64-9.6,5.239-18.357,11.2-24.675H1104.6v-3.2h18.356Z" style="fill: #181716"/>
  <g>
    <path d="M1390.4,1102.275H1387v-20.317h-7.358v-2.719c3.879,0,7.4-1.041,8.158-5.32h2.6Z" style="fill: #181716"/>
    <path d="M1400.159,1083.957c-.28-5.759,3.12-10.038,9.119-10.038,4.959,0,8.878,2.88,8.878,8.159,0,5-3.359,7.519-6.878,9.718-3.56,2.16-7.28,3.96-7.959,7.48h14.557v3H1399.36c.559-6.719,3.959-9.119,7.959-11.6,4.8-2.96,7.238-4.72,7.238-8.639a5.166,5.166,0,0,0-5.48-5.119c-3.959,0-5.638,3.639-5.518,7.038Z" style="fill: #181716"/>
  </g>
  <path d="M1407.633,981.162c-5.719,5.68-10.358,16.077-10.878,24.956h-3.8c.641-9.6,5.24-18.356,11.2-24.675h-14.877v-3.2h18.356Z" style="fill: #181716"/>
  <g>
    <path d="M1390.4,898.954H1387V878.638h-7.358v-2.72c3.879,0,7.4-1.04,8.158-5.319h2.6Z" style="fill: #181716"/>
    <path d="M1407.118,882.757c.52.04,1,.04,1.48.04,2.88,0,5.4-1.559,5.4-4.64,0-2.959-2.16-4.558-5.039-4.558-3.719,0-5.319,2.839-5.359,6.158h-3.4c.2-5.4,3.08-9.158,8.759-9.158,4.919,0,8.639,2.359,8.639,7.6a6.5,6.5,0,0,1-3.92,5.639v.08c3.439.76,5.119,3.48,5.119,6.879,0,5.679-4.439,8.638-9.758,8.638-5.759,0-9.558-3.4-9.438-9.238h3.4c.119,3.679,2.159,6.239,6.039,6.239,3.32,0,6.159-2.04,6.159-5.48,0-3.558-2.68-5.438-6.04-5.438a16.94,16.94,0,0,0-2.039.12Z" style="fill: #181716"/>
  </g>
  <g>
    <path d="M1392.916,604.519h3.84v3h-3.84v6.638h-3.2v-6.638H1377.28v-3.28L1390.2,585.8h2.718Zm-3.2,0V590.641h-.08l-9.439,13.878Z" style="fill: #181716"/>
    <path d="M1407.118,597.96c.52.04,1,.04,1.48.04,2.88,0,5.4-1.559,5.4-4.639,0-2.959-2.16-4.559-5.039-4.559-3.719,0-5.319,2.839-5.359,6.159h-3.4c.2-5.4,3.08-9.159,8.759-9.159,4.919,0,8.639,2.36,8.639,7.6a6.5,6.5,0,0,1-3.92,5.639v.08c3.439.76,5.119,3.479,5.119,6.879,0,5.679-4.439,8.638-9.758,8.638-5.759,0-9.558-3.4-9.438-9.238h3.4c.119,3.679,2.159,6.239,6.039,6.239,3.32,0,6.159-2.04,6.159-5.479,0-3.56-2.68-5.439-6.04-5.439a16.94,16.94,0,0,0-2.039.12Z" style="fill: #181716"/>
  </g>
  <g>
    <path d="M1390.4,326.157H1387V305.841h-7.358v-2.72c3.879,0,7.4-1.04,8.158-5.319h2.6Z" style="fill: #fff"/>
    <path d="M1415.156,316.519H1419v3h-3.84v6.638h-3.2v-6.638H1399.52v-3.28l12.918-18.437h2.718Zm-3.2,0V302.641h-.08l-9.438,13.878Z" style="fill: #fff"/>
  </g>
  <g>
    <path d="M1390.4,198.72H1387V178.4h-7.358v-2.72c3.879,0,7.4-1.04,8.158-5.32h2.6Z" style="fill: #181716"/>
    <path d="M1412.637,198.72h-3.4V178.4h-7.359v-2.72c3.879,0,7.4-1.04,8.158-5.32h2.6Z" style="fill: #181716"/>
  </g>
  <g>
    <path d="M193.277,1178.6h5.2l9,24,9.039-24h5.2v28.555h-3.6V1183.4h-.081l-8.918,23.755h-3.239l-8.919-23.755h-.08v23.755h-3.6Z" style="fill: #181716"/>
    <path d="M236.4,1186c6.559,0,10.038,4.759,10.038,10.838,0,6.039-3.479,10.8-10.038,10.8s-10.038-4.759-10.038-10.8C226.357,1190.76,229.836,1186,236.4,1186Zm0,18.637c3.559,0,6.439-2.8,6.439-7.8,0-5.039-2.88-7.839-6.439-7.839s-6.439,2.8-6.439,7.839C229.956,1201.838,232.835,1204.638,236.4,1204.638Z" style="fill: #181716"/>
    <path d="M250.436,1186.481h3.2v3.279h.08a7.2,7.2,0,0,1,6.719-3.759c5.439,0,7.119,3.119,7.119,7.559v13.6h-3.4v-14a3.9,3.9,0,0,0-4.2-4.159c-4.119,0-6.119,2.76-6.119,6.48v11.677h-3.4Z" style="fill: #181716"/>
    <path d="M291.153,1207.157h-3.4v-2.8h-.08c-1.121,2.28-3.76,3.279-6.6,3.279-6.358,0-9.518-5.039-9.518-10.878s3.12-10.758,9.438-10.758c2.12,0,5.16.8,6.68,3.239h.08V1178.6h3.4Zm-9.6-2.519c4.56,0,6.319-3.919,6.319-7.8,0-4.079-1.839-7.839-6.518-7.839-4.639,0-6.2,3.96-6.2,8C275.156,1200.878,277.156,1204.638,281.554,1204.638Z" style="fill: #181716"/>
    <path d="M314.033,1200.6c-.92,4.558-4.2,7.038-8.839,7.038-6.6,0-9.718-4.559-9.918-10.878,0-6.2,4.079-10.758,9.718-10.758,7.319,0,9.558,6.839,9.359,11.838H298.875c-.12,3.6,1.92,6.8,6.439,6.8,2.8,0,4.759-1.359,5.36-4.039Zm-3.28-5.76a5.949,5.949,0,0,0-5.959-5.839c-3.559,0-5.679,2.68-5.919,5.839Z" style="fill: #181716"/>
  </g>
  <g>
    <path d="M510.235,1187.2c-.8-4.039-4.04-6.078-8-6.078-6.8,0-9.679,5.6-9.679,11.558,0,6.518,2.88,11.958,9.719,11.958,5,0,7.879-3.52,8.238-8.238h3.8c-.72,7.118-5.159,11.437-12.358,11.437-8.879,0-13.2-6.558-13.2-14.877,0-8.279,4.719-15.038,13.518-15.038,5.959,0,10.878,3.2,11.758,9.278Z" style="fill: #181716"/>
    <path d="M518.477,1178.6h3.4v10.919h.08c1.119-2.48,4.039-3.52,6.519-3.52,5.439,0,7.118,3.119,7.118,7.559v13.6h-3.4v-14A3.9,3.9,0,0,0,528,1189c-4.12,0-6.119,2.76-6.119,6.48v11.677h-3.4Z" style="fill: #181716"/>
    <path d="M544.317,1182.762h-3.4v-4.16h3.4Zm-3.4,3.719h3.4v20.676h-3.4Z" style="fill: #181716"/>
    <path d="M549.6,1186.481h3.2v3.279h.08A7.2,7.2,0,0,1,559.6,1186c5.439,0,7.119,3.119,7.119,7.559v13.6h-3.4v-14a3.9,3.9,0,0,0-4.2-4.159c-4.119,0-6.119,2.76-6.119,6.48v11.677h-3.4Z" style="fill: #181716"/>
    <path d="M589.474,1200.6c-.92,4.558-4.2,7.038-8.839,7.038-6.6,0-9.718-4.559-9.918-10.878,0-6.2,4.079-10.758,9.718-10.758,7.319,0,9.558,6.839,9.359,11.838H574.316c-.12,3.6,1.92,6.8,6.439,6.8,2.8,0,4.759-1.359,5.359-4.039Zm-3.28-5.76a5.95,5.95,0,0,0-5.959-5.839c-3.559,0-5.679,2.68-5.919,5.839Z" style="fill: #181716"/>
  </g>
  <path d="M734.876,1178.6h19.717v3.2H738.676v9.078h14.837v3.2H738.676v9.879h16.037v3.2H734.876Zm10.118-7.758h4.36l-5.239,5.719h-2.559Z" style="fill: #181716"/>
  <g>
    <path d="M763.477,1186.481h4.12v3h-4.12v12.838c0,1.559.44,1.839,2.559,1.839H767.6v3H765c-3.519,0-4.92-.719-4.92-4.519v-13.157h-3.518v-3h3.518v-6.2h3.4Z" style="fill: #181716"/>
    <path d="M789.675,1207.077a4.579,4.579,0,0,1-2.44.56c-1.76,0-2.879-.959-2.879-3.2a9.176,9.176,0,0,1-7.28,3.2c-3.758,0-6.838-1.68-6.838-5.8,0-4.679,3.479-5.679,7-6.358,3.759-.72,6.959-.481,6.959-3.04,0-2.959-2.44-3.44-4.6-3.44-2.879,0-5,.88-5.159,3.92h-3.4c.2-5.119,4.16-6.919,8.759-6.919,3.72,0,7.759.84,7.759,5.679v10.639c0,1.6,0,2.319,1.08,2.319a2.923,2.923,0,0,0,1.04-.2Zm-5.519-10.6c-1.32.959-3.879,1-6.16,1.4-2.239.4-4.159,1.2-4.159,3.72,0,2.239,1.92,3.039,4,3.039,4.48,0,6.32-2.8,6.32-4.68Z" style="fill: #181716"/>
    <path d="M797.556,1186.481h4.12v3h-4.12v12.838c0,1.559.44,1.839,2.559,1.839h1.561v3h-2.6c-3.519,0-4.92-.719-4.92-4.519v-13.157h-3.518v-3h3.518v-6.2h3.4Z" style="fill: #181716"/>
    <path d="M807.517,1200.639c.119,3.039,2.759,4,5.558,4,2.121,0,5-.48,5-3.079,0-2.64-3.359-3.08-6.758-3.84-3.36-.76-6.759-1.88-6.759-5.839,0-4.159,4.119-5.879,7.719-5.879,4.559,0,8.2,1.44,8.478,6.479h-3.4c-.241-2.64-2.56-3.48-4.8-3.48-2.04,0-4.4.561-4.4,2.64,0,2.439,3.6,2.84,6.759,3.6,3.4.76,6.759,1.88,6.759,5.879,0,4.919-4.6,6.519-8.8,6.519-4.638,0-8.558-1.879-8.758-7Z" style="fill: #181716"/>
    <path d="M824.877,1194.44h11.558v3.2H824.877Z" style="fill: #181716"/>
    <path d="M864.353,1196.839c0,7.2-4.12,11-11.239,11-7.359,0-11.717-3.4-11.717-11V1178.6h3.8v18.237c0,5.039,2.879,7.8,7.918,7.8,4.8,0,7.439-2.76,7.439-7.8V1178.6h3.8Z" style="fill: #181716"/>
    <path d="M869.875,1186.481h3.2v3.279h.081a7.2,7.2,0,0,1,6.718-3.759c5.44,0,7.119,3.119,7.119,7.559v13.6h-3.4v-14a3.9,3.9,0,0,0-4.2-4.159c-4.119,0-6.119,2.76-6.119,6.48v11.677h-3.4Z" style="fill: #181716"/>
    <path d="M895.715,1182.762h-3.4v-4.16h3.4Zm-3.4,3.719h3.4v20.676h-3.4Z" style="fill: #181716"/>
    <path d="M903.075,1200.639c.12,3.039,2.759,4,5.559,4,2.12,0,5-.48,5-3.079,0-2.64-3.359-3.08-6.759-3.84-3.359-.76-6.759-1.88-6.759-5.839,0-4.159,4.12-5.879,7.719-5.879,4.56,0,8.2,1.44,8.479,6.479h-3.4c-.24-2.64-2.559-3.48-4.8-3.48-2.04,0-4.4.561-4.4,2.64,0,2.439,3.6,2.84,6.759,3.6,3.4.76,6.759,1.88,6.759,5.879,0,4.919-4.6,6.519-8.8,6.519-4.639,0-8.559-1.879-8.758-7Z" style="fill: #181716"/>
  </g>
  <g>
    <path d="M1066.474,1196.839c0,7.2-4.12,11-11.238,11-7.36,0-11.718-3.4-11.718-11V1178.6h3.8v18.237c0,5.039,2.88,7.8,7.919,7.8,4.8,0,7.438-2.76,7.438-7.8V1178.6h3.8Z" style="fill: #181716"/>
    <path d="M1072.556,1178.6h19.717v3.2h-15.917v9.078h14.837v3.2h-14.837v9.879h16.037v3.2h-19.837Z" style="fill: #181716"/>
    <path d="M1125.874,1207.077a4.576,4.576,0,0,1-2.44.56c-1.76,0-2.879-.959-2.879-3.2a9.174,9.174,0,0,1-7.279,3.2c-3.759,0-6.839-1.68-6.839-5.8,0-4.679,3.479-5.679,7-6.358,3.76-.72,6.959-.481,6.959-3.04,0-2.959-2.44-3.44-4.6-3.44-2.879,0-5,.88-5.159,3.92h-3.4c.2-5.119,4.159-6.919,8.758-6.919,3.72,0,7.759.84,7.759,5.679v10.639c0,1.6,0,2.319,1.08,2.319a2.919,2.919,0,0,0,1.04-.2Zm-5.519-10.6c-1.32.959-3.879,1-6.159,1.4-2.24.4-4.16,1.2-4.16,3.72,0,2.239,1.92,3.039,4,3.039,4.48,0,6.32-2.8,6.32-4.68Zm-9.958-18.558h4.359l3.44,5.72h-2.56Z" style="fill: #181716"/>
    <path d="M1139.357,1188.84c-.281-5.759,3.119-10.038,9.118-10.038,4.959,0,8.879,2.88,8.879,8.159,0,5-3.36,7.519-6.879,9.718-3.56,2.16-7.279,3.96-7.959,7.479h14.557v3h-18.516c.559-6.718,3.959-9.118,7.959-11.6,4.8-2.96,7.238-4.72,7.238-8.639a5.166,5.166,0,0,0-5.479-5.119c-3.959,0-5.639,3.639-5.519,7.038Z" style="fill: #181716"/>
    <path d="M1180.193,1182.2c-5.719,5.68-10.359,16.078-10.878,24.956h-3.8c.641-9.6,5.239-18.356,11.2-24.675h-14.877v-3.2h18.357Z" style="fill: #181716"/>
  </g>
  <g>
    <path d="M1339.157,1178.6h18.757v3.2h-14.957v9.078h13.118v3.2h-13.118v13.078h-3.8Z" style="fill: #181716"/>
    <path d="M1361.438,1186.481h3.2v4.359h.08c1.64-3.319,3.92-4.959,7.6-4.839v3.6c-5.479,0-7.479,3.119-7.479,8.358v9.2h-3.4Z" style="fill: #181716"/>
    <path d="M1393.2,1207.077a4.583,4.583,0,0,1-2.441.56c-1.76,0-2.879-.959-2.879-3.2a9.174,9.174,0,0,1-7.279,3.2c-3.759,0-6.839-1.68-6.839-5.8,0-4.679,3.48-5.679,7-6.358,3.76-.72,6.959-.481,6.959-3.04,0-2.959-2.439-3.44-4.6-3.44-2.878,0-5,.88-5.159,3.92h-3.4c.2-5.119,4.159-6.919,8.759-6.919,3.719,0,7.758.84,7.758,5.679v10.639c0,1.6,0,2.319,1.081,2.319a2.926,2.926,0,0,0,1.04-.2Zm-5.52-10.6c-1.319.959-3.879,1-6.159,1.4-2.239.4-4.159,1.2-4.159,3.72,0,2.239,1.92,3.039,4,3.039,4.479,0,6.319-2.8,6.319-4.68Z" style="fill: #181716"/>
    <path d="M1396.357,1186.481h3.2v3.279h.08a7.2,7.2,0,0,1,6.719-3.759c5.439,0,7.119,3.119,7.119,7.559v13.6h-3.4v-14a3.9,3.9,0,0,0-4.2-4.159c-4.119,0-6.119,2.76-6.119,6.48v11.677h-3.4Z" style="fill: #181716"/>
    <path d="M1432.635,1193.119a4.815,4.815,0,0,0-5.119-4.119c-4.92,0-6.44,3.88-6.44,8.079,0,3.8,1.72,7.559,6.039,7.559,3.28,0,5.24-1.92,5.679-5.039h3.48c-.76,5.039-3.919,8.038-9.118,8.038-6.32,0-9.679-4.4-9.679-10.558,0-6.2,3.2-11.078,9.759-11.078,4.678,0,8.438,2.2,8.918,7.118Z" style="fill: #181716"/>
    <path d="M1457.713,1200.6c-.92,4.558-4.2,7.038-8.838,7.038-6.6,0-9.719-4.559-9.919-10.878,0-6.2,4.08-10.758,9.719-10.758,7.318,0,9.559,6.839,9.358,11.838h-15.477c-.12,3.6,1.92,6.8,6.439,6.8,2.8,0,4.759-1.359,5.359-4.039Zm-3.279-5.76a5.95,5.95,0,0,0-5.959-5.839c-3.56,0-5.679,2.68-5.919,5.839Z" style="fill: #181716"/>
  </g>
  <g>
    <path d="M29.475,140.2h-3.4V119.88H18.717v-2.72c3.879,0,7.4-1.04,8.159-5.319h2.6Z" style="fill: #181716"/>
    <path d="M48.6,111.841c8.878,0,9.438,8.159,9.438,14.438,0,6.239-.56,14.4-9.438,14.4s-9.439-8.159-9.439-14.4C39.157,120,39.718,111.841,48.6,111.841Zm0,25.836c5.8,0,5.839-7.2,5.839-11.438,0-4.2-.04-11.4-5.839-11.4s-5.839,7.2-5.839,11.4C42.757,130.478,42.8,137.677,48.6,137.677Z" style="fill: #181716"/>
    <path d="M70.836,111.841c8.878,0,9.438,8.159,9.438,14.438,0,6.239-.56,14.4-9.438,14.4s-9.439-8.159-9.439-14.4C61.4,120,61.957,111.841,70.836,111.841Zm0,25.836c5.8,0,5.839-7.2,5.839-11.438,0-4.2-.04-11.4-5.839-11.4S65,122.04,65,126.239C65,130.478,65.037,137.677,70.836,137.677Z" style="fill: #181716"/>
  </g>
  <g>
    <path d="M42.839,235.358c.24,2.759,2.48,4.319,5.2,4.319,4.16,0,6.2-3.64,6.4-10.958l-.08-.08a7.434,7.434,0,0,1-6.559,3.919c-5.759,0-8.958-3.879-8.958-9.478,0-5.479,3.839-9.239,9.318-9.239,5.279,0,9.718,2.84,9.718,13.558,0,9.8-2.959,15.278-9.838,15.278-4.759,0-8.159-2.44-8.6-7.319ZM48,216.841c-4.039,0-5.559,3.239-5.559,6.719a5.808,5.808,0,0,0,5.6,6c3.559,0,5.8-2.88,5.8-6.239C53.837,219.84,51.8,216.841,48,216.841Z" style="fill: #181716"/>
    <path d="M70.838,213.841c8.879,0,9.439,8.159,9.439,14.438,0,6.239-.56,14.4-9.439,14.4s-9.438-8.159-9.438-14.4C61.4,222,61.96,213.841,70.838,213.841Zm0,25.836c5.8,0,5.839-7.2,5.839-11.438,0-4.2-.04-11.4-5.839-11.4S65,224.04,65,228.239C65,232.478,65.039,239.677,70.838,239.677Z" style="fill: #181716"/>
  </g>
  <g>
    <path d="M48.4,315.841c6.2,0,8.6,3.64,8.6,7.239a6.564,6.564,0,0,1-3.919,5.879c3.4,1.08,5.039,3.559,5.039,7.079,0,5.479-4.159,8.639-9.4,8.639-5.439,0-9.639-2.84-9.639-8.639a7.156,7.156,0,0,1,4.96-7.079,6.409,6.409,0,0,1-3.96-5.879C40.079,318.4,44.039,315.841,48.4,315.841Zm.32,25.836a5.479,5.479,0,0,0,5.8-5.519,5.584,5.584,0,0,0-5.839-5.4c-3.359,0-6,2.159-6,5.439C42.679,339.6,45.2,341.677,48.718,341.677Zm0-13.917A4.356,4.356,0,0,0,53.4,323.2c0-2.839-2-4.359-4.759-4.359-2.72,0-4.96,1.52-4.96,4.359C43.678,326.32,45.918,327.76,48.718,327.76Z" style="fill: #181716"/>
    <path d="M70.838,315.841c8.879,0,9.439,8.159,9.439,14.438,0,6.239-.56,14.4-9.439,14.4s-9.438-8.159-9.438-14.4C61.4,324,61.96,315.841,70.838,315.841Zm0,25.836c5.8,0,5.839-7.2,5.839-11.438,0-4.2-.04-11.4-5.839-11.4S65,326.04,65,330.239C65,334.478,65.039,341.677,70.838,341.677Z" style="fill: #181716"/>
  </g>
  <g>
    <path d="M57.836,421.24c-5.719,5.68-10.358,16.078-10.878,24.957h-3.8c.64-9.6,5.239-18.357,11.2-24.676H39.479v-3.2H57.836Z" style="fill: #181716"/>
    <path d="M70.838,417.841c8.879,0,9.439,8.159,9.439,14.438,0,6.239-.56,14.4-9.439,14.4s-9.438-8.159-9.438-14.4C61.4,426,61.96,417.841,70.838,417.841Zm0,25.836c5.8,0,5.839-7.2,5.839-11.438,0-4.2-.04-11.4-5.839-11.4S65,428.04,65,432.239C65,436.478,65.039,443.677,70.838,443.677Z" style="fill: #181716"/>
  </g>
  <g>
    <path d="M54.037,527.08a4.543,4.543,0,0,0-4.759-4.239c-5.8,0-6.719,6.4-6.879,10.758l.08.08a7.689,7.689,0,0,1,7.079-3.719c5.439,0,8.678,3.959,8.678,9.2,0,4.12-2.319,9.519-9.478,9.519-8.4,0-9.759-7.679-9.759-13.638,0-7.8,2.36-15.2,10.439-15.2,4.679,0,7.6,2.64,8,7.239Zm-11,12.278c0,3.519,2.159,6.319,5.879,6.319,3.679,0,5.719-2.919,5.719-6.279,0-3.519-1.84-6.439-5.719-6.439C45.118,532.959,43.039,535.8,43.039,539.358Z" style="fill: #181716"/>
    <path d="M70.838,519.841c8.879,0,9.439,8.159,9.439,14.438,0,6.239-.56,14.4-9.439,14.4s-9.438-8.159-9.438-14.4C61.4,528,61.96,519.841,70.838,519.841Zm0,25.836c5.8,0,5.839-7.2,5.839-11.438,0-4.2-.04-11.4-5.839-11.4S65,530.04,65,534.239C65,538.478,65.039,545.677,70.838,545.677Z" style="fill: #181716"/>
  </g>
  <g>
    <path d="M56.277,625.321H44.839l-1.52,8.158.08.08a7.17,7.17,0,0,1,5.279-2.039c5.039,0,9.158,3.239,9.158,9.718,0,4.8-3.319,9.439-9.918,9.439-4.919,0-8.919-3-9.038-8.119h3.4c.2,2.919,2.56,5.119,5.959,5.119,3.239,0,6-2.2,6-6.719a6.141,6.141,0,0,0-6.4-6.439,6.807,6.807,0,0,0-5.279,2.679l-2.92-.159,2.64-14.718h14Z" style="fill: #181716"/>
    <path d="M70.838,621.841c8.879,0,9.439,8.159,9.439,14.438,0,6.239-.56,14.4-9.439,14.4s-9.438-8.159-9.438-14.4C61.4,630,61.96,621.841,70.838,621.841Zm0,25.836c5.8,0,5.839-7.2,5.839-11.438,0-4.2-.04-11.4-5.839-11.4S65,632.04,65,636.239C65,640.478,65.039,647.677,70.838,647.677Z" style="fill: #181716"/>
  </g>
  <g>
    <path d="M54.237,742.558h3.839v3H54.237V752.2h-3.2v-6.639H38.6v-3.28l12.918-18.437h2.72Zm-3.2,0V728.68h-.08l-9.438,13.878Z" style="fill: #181716"/>
    <path d="M70.838,723.841c8.879,0,9.439,8.159,9.439,14.438,0,6.239-.56,14.4-9.439,14.4s-9.438-8.159-9.438-14.4C61.4,732,61.96,723.841,70.838,723.841Zm0,25.836c5.8,0,5.839-7.2,5.839-11.438,0-4.2-.04-11.4-5.839-11.4S65,734.04,65,738.239C65,742.478,65.039,749.677,70.838,749.677Z" style="fill: #181716"/>
  </g>
  <g>
    <path d="M46.2,838c.52.04,1,.04,1.48.04,2.879,0,5.4-1.559,5.4-4.639,0-2.959-2.16-4.559-5.039-4.559-3.719,0-5.319,2.839-5.359,6.158h-3.4c.2-5.4,3.079-9.158,8.758-9.158,4.919,0,8.639,2.359,8.639,7.6a6.5,6.5,0,0,1-3.92,5.639v.08c3.44.76,5.119,3.48,5.119,6.879,0,5.679-4.439,8.638-9.758,8.638-5.759,0-9.559-3.4-9.439-9.238h3.4c.12,3.679,2.16,6.239,6.039,6.239,3.319,0,6.159-2.04,6.159-5.479,0-3.559-2.68-5.439-6.039-5.439a16.945,16.945,0,0,0-2.04.12Z" style="fill: #181716"/>
    <path d="M70.838,825.841c8.879,0,9.439,8.159,9.439,14.438,0,6.239-.56,14.4-9.439,14.4s-9.438-8.158-9.438-14.4C61.4,834,61.96,825.841,70.838,825.841Zm0,25.836c5.8,0,5.839-7.2,5.839-11.438,0-4.2-.04-11.4-5.839-11.4S65,836.039,65,840.239C65,844.478,65.039,851.677,70.838,851.677Z" style="fill: #181716"/>
  </g>
  <g>
    <path d="M39.239,937.879c-.279-5.759,3.12-10.038,9.119-10.038,4.959,0,8.879,2.88,8.879,8.159,0,5-3.36,7.519-6.879,9.718-3.56,2.16-7.279,3.96-7.959,7.48H56.956v3H38.44c.559-6.719,3.959-9.119,7.958-11.6,4.8-2.96,7.239-4.72,7.239-8.639a5.166,5.166,0,0,0-5.479-5.119c-3.96,0-5.639,3.639-5.519,7.038Z" style="fill: #181716"/>
    <path d="M70.838,927.841c8.879,0,9.439,8.159,9.439,14.438,0,6.239-.56,14.4-9.439,14.4s-9.438-8.158-9.438-14.4C61.4,936,61.96,927.841,70.838,927.841Zm0,25.836c5.8,0,5.839-7.2,5.839-11.438,0-4.2-.04-11.4-5.839-11.4S65,938.039,65,942.239C65,946.478,65.039,953.677,70.838,953.677Z" style="fill: #181716"/>
  </g>
  <g>
    <path d="M51.718,1058.2h-3.4V1037.88H40.959v-2.72c3.88,0,7.4-1.04,8.159-5.319h2.6Z" style="fill: #181716"/>
    <path d="M70.838,1029.841c8.879,0,9.439,8.159,9.439,14.438,0,6.239-.56,14.4-9.439,14.4s-9.438-8.158-9.438-14.4C61.4,1038,61.96,1029.841,70.838,1029.841Zm0,25.836c5.8,0,5.839-7.2,5.839-11.438,0-4.2-.04-11.4-5.839-11.4s-5.839,7.2-5.839,11.4C65,1048.478,65.039,1055.677,70.838,1055.677Z" style="fill: #181716"/>
  </g>
  <path d="M70.836,1131.841c8.879,0,9.439,8.159,9.439,14.438,0,6.239-.56,14.4-9.439,14.4s-9.438-8.158-9.438-14.4C61.4,1140,61.958,1131.841,70.836,1131.841Zm0,25.836c5.8,0,5.839-7.2,5.839-11.438,0-4.2-.04-11.4-5.839-11.4s-5.839,7.2-5.839,11.4C65,1150.478,65.037,1157.677,70.836,1157.677Z" style="fill: #181716"/>
  <rect x="1614.329" y="307.582" width="34.016" height="34.016" style="fill: #62ac36"/>
  <g>
    <path d="M1670.342,313.04h4.2L1685.7,341.6h-4.2l-3.119-8.6H1666.3l-3.2,8.6h-3.92ZM1667.5,329.8h9.678l-4.759-13.318h-.08Z" style="fill: #181716"/>
    <path d="M1705.061,341.6h-3.2v-3.279h-.081a7.2,7.2,0,0,1-6.718,3.759c-5.44,0-7.119-3.12-7.119-7.559v-13.6h3.4v14a3.9,3.9,0,0,0,4.2,4.159c4.119,0,6.119-2.759,6.119-6.479V320.918h3.4Z" style="fill: #181716"/>
    <path d="M1714.9,320.918h4.12v3h-4.12v12.838c0,1.56.44,1.839,2.559,1.839h1.561v3h-2.6c-3.519,0-4.92-.72-4.92-4.519V323.918h-3.518v-3h3.518v-6.2h3.4Z" style="fill: #181716"/>
    <path d="M1722.663,320.918h3.2v4.36h.08c1.639-3.32,3.92-4.959,7.6-4.839v3.6c-5.478,0-7.478,3.119-7.478,8.359v9.2h-3.4Z" style="fill: #181716"/>
    <path d="M1753.06,335.036c-.92,4.559-4.2,7.039-8.838,7.039-6.6,0-9.719-4.559-9.919-10.878,0-6.2,4.08-10.758,9.719-10.758,7.318,0,9.558,6.839,9.358,11.838H1737.9c-.121,3.6,1.92,6.8,6.439,6.8,2.8,0,4.759-1.359,5.358-4.039Zm-3.279-5.759a5.95,5.95,0,0,0-5.959-5.839c-3.56,0-5.679,2.679-5.919,5.839Z" style="fill: #181716"/>
    <path d="M1758.983,335.076c.119,3.039,2.758,4,5.558,4,2.12,0,5-.48,5-3.079,0-2.64-3.359-3.08-6.759-3.84-3.359-.759-6.758-1.879-6.758-5.838,0-4.16,4.119-5.879,7.718-5.879,4.56,0,8.2,1.439,8.479,6.478h-3.4c-.241-2.639-2.56-3.479-4.8-3.479-2.04,0-4.4.56-4.4,2.639,0,2.44,3.6,2.84,6.759,3.6,3.4.76,6.759,1.88,6.759,5.879,0,4.919-4.6,6.519-8.8,6.519-4.639,0-8.559-1.88-8.758-7Z" style="fill: #181716"/>
    <path d="M1790.1,335.076c.119,3.039,2.759,4,5.558,4,2.121,0,5-.48,5-3.079,0-2.64-3.359-3.08-6.758-3.84-3.36-.759-6.759-1.879-6.759-5.838,0-4.16,4.119-5.879,7.719-5.879,4.559,0,8.2,1.439,8.478,6.478h-3.4c-.241-2.639-2.56-3.479-4.8-3.479-2.04,0-4.4.56-4.4,2.639,0,2.44,3.6,2.84,6.759,3.6,3.4.76,6.759,1.88,6.759,5.879,0,4.919-4.6,6.519-8.8,6.519-4.638,0-8.558-1.88-8.758-7Z" style="fill: #181716"/>
    <path d="M1825.658,335.036c-.919,4.559-4.2,7.039-8.837,7.039-6.6,0-9.719-4.559-9.919-10.878,0-6.2,4.08-10.758,9.718-10.758,7.319,0,9.559,6.839,9.359,11.838H1810.5c-.12,3.6,1.92,6.8,6.44,6.8,2.8,0,4.758-1.359,5.358-4.039Zm-3.279-5.759a5.949,5.949,0,0,0-5.959-5.839c-3.559,0-5.679,2.679-5.919,5.839Z" style="fill: #181716"/>
    <path d="M1843.539,327.557a4.813,4.813,0,0,0-5.119-4.119c-4.92,0-6.439,3.879-6.439,8.079,0,3.8,1.719,7.558,6.039,7.558,3.279,0,5.239-1.919,5.678-5.039h3.48c-.76,5.039-3.919,8.039-9.118,8.039-6.32,0-9.679-4.4-9.679-10.558,0-6.2,3.2-11.078,9.759-11.078,4.679,0,8.438,2.2,8.918,7.118Z" style="fill: #181716"/>
    <path d="M1855.7,320.918h4.121v3H1855.7v12.838c0,1.56.441,1.839,2.56,1.839h1.561v3h-2.6c-3.52,0-4.92-.72-4.92-4.519V323.918h-3.519v-3h3.519v-6.2h3.4Z" style="fill: #181716"/>
    <path d="M1881.217,335.036c-.92,4.559-4.2,7.039-8.838,7.039-6.6,0-9.719-4.559-9.919-10.878,0-6.2,4.08-10.758,9.719-10.758,7.318,0,9.559,6.839,9.358,11.838H1866.06c-.12,3.6,1.92,6.8,6.439,6.8,2.8,0,4.759-1.359,5.359-4.039Zm-3.279-5.759a5.949,5.949,0,0,0-5.959-5.839c-3.56,0-5.679,2.679-5.919,5.839Z" style="fill: #181716"/>
    <path d="M1902.177,341.6h-3.2v-3.279h-.08a7.2,7.2,0,0,1-6.719,3.759c-5.44,0-7.119-3.12-7.119-7.559v-13.6h3.4v14a3.9,3.9,0,0,0,4.2,4.159c4.12,0,6.12-2.759,6.12-6.479V320.918h3.4Z" style="fill: #181716"/>
    <path d="M1907.18,320.918h3.2v4.36h.08c1.64-3.32,3.92-4.959,7.6-4.839v3.6c-5.479,0-7.479,3.119-7.479,8.359v9.2h-3.4Z" style="fill: #181716"/>
    <path d="M1922.7,335.076c.12,3.039,2.759,4,5.559,4,2.12,0,5-.48,5-3.079,0-2.64-3.359-3.08-6.759-3.84-3.359-.759-6.759-1.879-6.759-5.838,0-4.16,4.12-5.879,7.719-5.879,4.56,0,8.2,1.439,8.479,6.478h-3.4c-.24-2.639-2.559-3.479-4.8-3.479-2.041,0-4.4.56-4.4,2.639,0,2.44,3.6,2.84,6.759,3.6,3.4.76,6.759,1.88,6.759,5.879,0,4.919-4.6,6.519-8.8,6.519-4.639,0-8.559-1.88-8.758-7Z" style="fill: #181716"/>
  </g>
  <g>
    <path d="M1667.622,389.513c-3.839-6-6.278-11.717-6.278-18.716a31.456,31.456,0,0,1,6.278-18.437h2.6a33.088,33.088,0,0,0-5.278,18.437,33.708,33.708,0,0,0,5.278,18.716Z" style="fill: #181716"/>
    <path d="M1690.86,381.6h-3.4v-2.8h-.08c-1.119,2.279-3.759,3.279-6.6,3.279-6.358,0-9.518-5.039-9.518-10.878s3.12-10.758,9.438-10.758c2.121,0,5.16.8,6.679,3.239h.08V353.04h3.4Zm-9.6-2.52c4.559,0,6.318-3.919,6.318-7.8,0-4.079-1.84-7.839-6.518-7.839-4.64,0-6.2,3.959-6.2,8C1674.863,375.316,1676.863,379.075,1681.262,379.075Z" style="fill: #181716"/>
    <path d="M1705.022,360.439c6.558,0,10.038,4.759,10.038,10.838,0,6.039-3.48,10.8-10.038,10.8s-10.039-4.759-10.039-10.8C1694.983,365.2,1698.462,360.439,1705.022,360.439Zm0,18.636c3.558,0,6.438-2.8,6.438-7.8,0-5.039-2.88-7.839-6.438-7.839s-6.44,2.8-6.44,7.839C1698.582,376.276,1701.462,379.075,1705.022,379.075Z" style="fill: #181716"/>
    <path d="M1719.063,360.918h3.2v3.28h.08a7.2,7.2,0,0,1,6.719-3.759c5.439,0,7.119,3.119,7.119,7.558v13.6h-3.4v-14a3.9,3.9,0,0,0-4.2-4.159c-4.119,0-6.119,2.76-6.119,6.479V381.6h-3.4Z" style="fill: #181716"/>
    <path d="M1746.021,360.918h4.12v3h-4.12v12.838c0,1.56.44,1.839,2.559,1.839h1.561v3h-2.6c-3.519,0-4.92-.72-4.92-4.519V363.918H1739.1v-3h3.518v-6.2h3.4Z" style="fill: #181716"/>
    <path d="M1769.74,360.918h4.121v3h-4.121v12.838c0,1.56.441,1.839,2.56,1.839h1.561v3h-2.6c-3.52,0-4.92-.72-4.92-4.519V363.918h-3.518v-3h3.518v-6.2h3.4Z" style="fill: #181716"/>
    <path d="M1795.258,375.036c-.92,4.559-4.2,7.039-8.838,7.039-6.6,0-9.719-4.559-9.919-10.878,0-6.2,4.08-10.758,9.719-10.758,7.318,0,9.559,6.839,9.358,11.838H1780.1c-.12,3.6,1.92,6.8,6.439,6.8,2.8,0,4.759-1.359,5.359-4.039Zm-3.279-5.759a5.949,5.949,0,0,0-5.959-5.839c-3.56,0-5.679,2.679-5.919,5.839Z" style="fill: #181716"/>
    <path d="M1798.981,360.918h3.2v4.36h.08c1.64-3.32,3.92-4.959,7.6-4.839v3.6c-5.479,0-7.479,3.119-7.479,8.359v9.2h-3.4Z" style="fill: #181716"/>
    <path d="M1817.139,360.918h4.12v3h-4.12v12.838c0,1.56.44,1.839,2.559,1.839h1.561v3h-2.6c-3.519,0-4.92-.72-4.92-4.519V363.918h-3.518v-3h3.518v-6.2h3.4Z" style="fill: #181716"/>
    <path d="M1828.619,357.2h-3.4V353.04h3.4Zm-3.4,3.719h3.4V381.6h-3.4Z" style="fill: #181716"/>
    <path d="M1852.217,381.515a4.588,4.588,0,0,1-2.44.56c-1.76,0-2.879-.96-2.879-3.2a9.176,9.176,0,0,1-7.28,3.2c-3.758,0-6.838-1.68-6.838-5.8,0-4.68,3.479-5.679,7-6.359,3.759-.72,6.959-.48,6.959-3.04,0-2.959-2.44-3.439-4.6-3.439-2.879,0-5,.88-5.159,3.919h-3.4c.2-5.119,4.16-6.918,8.759-6.918,3.72,0,7.759.84,7.759,5.678v10.639c0,1.6,0,2.319,1.08,2.319a2.923,2.923,0,0,0,1.04-.2Zm-5.519-10.6c-1.32.96-3.879,1-6.16,1.4-2.239.4-4.159,1.2-4.159,3.719,0,2.24,1.92,3.039,4,3.039,4.48,0,6.32-2.8,6.32-4.679Z" style="fill: #181716"/>
    <path d="M1858.979,357.2h-3.4V353.04h3.4Zm-3.4,3.719h3.4V381.6h-3.4Z" style="fill: #181716"/>
    <path d="M1864.138,360.918h3.2v4.36h.08c1.64-3.32,3.92-4.959,7.6-4.839v3.6c-5.479,0-7.479,3.119-7.479,8.359v9.2h-3.4Z" style="fill: #181716"/>
    <path d="M1894.494,375.036c-.92,4.559-4.2,7.039-8.838,7.039-6.6,0-9.718-4.559-9.918-10.878,0-6.2,4.08-10.758,9.718-10.758,7.319,0,9.559,6.839,9.359,11.838h-15.478c-.12,3.6,1.92,6.8,6.44,6.8,2.8,0,4.758-1.359,5.358-4.039Zm-3.279-5.759a5.949,5.949,0,0,0-5.959-5.839c-3.559,0-5.679,2.679-5.919,5.839Z" style="fill: #181716"/>
    <path d="M1895.377,389.513a33.078,33.078,0,0,0,5.279-18.436,33.706,33.706,0,0,0-5.279-18.717h2.6c3.84,6,6.279,11.718,6.279,18.717a31.447,31.447,0,0,1-6.279,18.436Z" style="fill: #181716"/>
  </g>
  <rect x="1614.329" y="432.934" width="34.016" height="34.016" style="fill: #4c4a96"/>
  <g>
    <path d="M1662.583,438.4h13.439c5.358,0,8.677,2.92,8.677,7.479,0,3.439-1.519,6.279-4.959,7.238v.081c3.32.64,4,3.079,4.28,5.878.24,2.8.08,5.92,1.679,7.879h-4.239c-1.08-1.159-.479-4.239-1.04-7.039-.4-2.8-1.079-5.158-4.759-5.158h-9.278v12.2h-3.8Zm11.719,13.158c3.559,0,6.6-.92,6.6-5.079,0-2.8-1.52-4.88-5.079-4.88h-9.439v9.959Z" style="fill: #181716"/>
    <path d="M1707.061,460.4c-.92,4.56-4.2,7.039-8.838,7.039-6.6,0-9.719-4.559-9.919-10.878,0-6.2,4.08-10.758,9.719-10.758,7.318,0,9.558,6.839,9.358,11.838H1691.9c-.121,3.6,1.919,6.8,6.439,6.8,2.8,0,4.759-1.36,5.358-4.04Zm-3.28-5.759a5.948,5.948,0,0,0-5.958-5.838c-3.56,0-5.679,2.679-5.919,5.838Zm-5.159-16.917h4.36l-5.24,5.719h-2.559Z" style="fill: #181716"/>
    <path d="M1712.983,460.435c.119,3.04,2.758,4,5.558,4,2.12,0,5-.48,5-3.08,0-2.639-3.359-3.079-6.759-3.839-3.359-.76-6.758-1.88-6.758-5.839,0-4.159,4.119-5.879,7.718-5.879,4.56,0,8.2,1.44,8.479,6.479h-3.4c-.241-2.64-2.56-3.479-4.8-3.479-2.04,0-4.4.559-4.4,2.639,0,2.44,3.6,2.84,6.759,3.6,3.4.76,6.759,1.88,6.759,5.879,0,4.92-4.6,6.519-8.8,6.519-4.639,0-8.559-1.88-8.758-7Z" style="fill: #181716"/>
    <path d="M1734.5,442.558h-3.4V438.4h3.4Zm-3.4,3.72h3.4v20.676h-3.4Z" style="fill: #181716"/>
    <path d="M1758.259,466.954h-3.4v-2.8h-.08c-1.12,2.279-3.759,3.279-6.6,3.279-6.358,0-9.519-5.039-9.519-10.878s3.12-10.758,9.439-10.758c2.12,0,5.159.8,6.679,3.239h.08V438.4h3.4Zm-9.6-2.519c4.559,0,6.319-3.92,6.319-7.8,0-4.079-1.84-7.838-6.519-7.838-4.639,0-6.2,3.959-6.2,8C1742.262,460.676,1744.262,464.435,1748.661,464.435Z" style="fill: #181716"/>
    <path d="M1781.139,460.4c-.92,4.56-4.2,7.039-8.838,7.039-6.6,0-9.719-4.559-9.919-10.878,0-6.2,4.08-10.758,9.719-10.758,7.318,0,9.558,6.839,9.358,11.838h-15.477c-.12,3.6,1.92,6.8,6.439,6.8,2.8,0,4.759-1.36,5.359-4.04Zm-3.279-5.759a5.95,5.95,0,0,0-5.959-5.838c-3.56,0-5.679,2.679-5.919,5.838Z" style="fill: #181716"/>
    <path d="M1784.982,446.278h3.2v3.279h.08a7.2,7.2,0,0,1,6.719-3.759c5.439,0,7.119,3.119,7.119,7.559v13.6h-3.4v-14a3.9,3.9,0,0,0-4.2-4.159c-4.119,0-6.119,2.759-6.119,6.478v11.678h-3.4Z" style="fill: #181716"/>
    <path d="M1811.94,446.278h4.12v3h-4.12v12.838c0,1.56.44,1.84,2.559,1.84h1.561v3h-2.6c-3.519,0-4.92-.719-4.92-4.519V449.277h-3.518v-3h3.518v-6.2h3.4Z" style="fill: #181716"/>
    <path d="M1823.42,442.558h-3.4V438.4h3.4Zm-3.4,3.72h3.4v20.676h-3.4Z" style="fill: #181716"/>
    <path d="M1846.337,460.4c-.92,4.56-4.2,7.039-8.838,7.039-6.6,0-9.718-4.559-9.919-10.878,0-6.2,4.08-10.758,9.719-10.758,7.318,0,9.559,6.839,9.358,11.838H1831.18c-.12,3.6,1.92,6.8,6.439,6.8,2.8,0,4.759-1.36,5.359-4.04Zm-3.279-5.759a5.949,5.949,0,0,0-5.959-5.838c-3.56,0-5.679,2.679-5.919,5.838Z" style="fill: #181716"/>
    <path d="M1850.38,438.4h3.4v28.555h-3.4Z" style="fill: #181716"/>
  </g>
  <rect x="1614.329" y="518.286" width="34.016" height="34.016" style="fill: #e77016"/>
  <g>
    <path d="M1669.063,526.95h-9.519v-3.2h22.836v3.2h-9.518v25.356h-3.8Z" style="fill: #181716"/>
    <path d="M1681.223,531.629h3.2v4.36h.08c1.64-3.32,3.92-4.959,7.6-4.839v3.6c-5.479,0-7.479,3.119-7.479,8.359v9.2h-3.4Z" style="fill: #181716"/>
    <path d="M1712.981,552.226a4.592,4.592,0,0,1-2.441.56c-1.759,0-2.879-.96-2.879-3.2a9.174,9.174,0,0,1-7.279,3.2c-3.759,0-6.839-1.68-6.839-5.8,0-4.68,3.48-5.679,7-6.359,3.76-.72,6.959-.48,6.959-3.04,0-2.959-2.439-3.439-4.6-3.439-2.879,0-5,.88-5.16,3.919h-3.4c.2-5.119,4.16-6.918,8.759-6.918,3.72,0,7.759.839,7.759,5.678v10.639c0,1.6,0,2.319,1.08,2.319a2.926,2.926,0,0,0,1.04-.2Zm-5.52-10.6c-1.319.96-3.879,1-6.159,1.4-2.239.4-4.159,1.2-4.159,3.719,0,2.24,1.92,3.039,4,3.039,4.479,0,6.319-2.8,6.319-4.679Z" style="fill: #181716"/>
    <path d="M1716.143,531.629h3.2v3.28h.08a7.2,7.2,0,0,1,6.719-3.759c5.439,0,7.119,3.119,7.119,7.558v13.6h-3.4v-14a3.9,3.9,0,0,0-4.2-4.159c-4.119,0-6.119,2.759-6.119,6.479v11.678h-3.4Z" style="fill: #181716"/>
    <path d="M1740.462,545.787c.119,3.039,2.759,4,5.559,4,2.12,0,5-.48,5-3.079,0-2.64-3.36-3.08-6.759-3.84-3.359-.759-6.759-1.879-6.759-5.838,0-4.16,4.119-5.879,7.719-5.879,4.56,0,8.2,1.439,8.478,6.478h-3.4c-.24-2.639-2.56-3.479-4.8-3.479-2.04,0-4.4.56-4.4,2.639,0,2.44,3.6,2.84,6.759,3.6,3.4.76,6.758,1.88,6.758,5.879,0,4.919-4.6,6.519-8.8,6.519-4.639,0-8.559-1.88-8.758-7Z" style="fill: #181716"/>
    <path d="M1758.5,531.629h3.4v2.8h.08c1.119-2.28,3.758-3.279,6.6-3.279,6.36,0,9.519,5.039,9.519,10.878s-3.119,10.758-9.439,10.758c-2.12,0-5.159-.8-6.678-3.24h-.08v10.678h-3.4Zm9.6,2.52c-4.56,0-6.32,3.919-6.32,7.8,0,4.079,1.84,7.838,6.519,7.838,4.64,0,6.2-3.959,6.2-8C1774.5,537.908,1772.5,534.149,1768.1,534.149Z" style="fill: #181716"/>
    <path d="M1791.021,531.15c6.558,0,10.038,4.758,10.038,10.838,0,6.039-3.48,10.8-10.038,10.8s-10.039-4.759-10.039-10.8C1780.982,535.908,1784.461,531.15,1791.021,531.15Zm0,18.636c3.558,0,6.438-2.8,6.438-7.8,0-5.04-2.88-7.839-6.438-7.839s-6.44,2.8-6.44,7.839C1784.581,546.987,1787.461,549.786,1791.021,549.786Z" style="fill: #181716"/>
    <path d="M1804.942,531.629h3.2v4.36h.08c1.64-3.32,3.92-4.959,7.6-4.839v3.6c-5.479,0-7.479,3.119-7.479,8.359v9.2h-3.4Z" style="fill: #181716"/>
    <path d="M1823.1,531.629h4.12v3h-4.12v12.838c0,1.56.44,1.839,2.559,1.839h1.561v3h-2.6c-3.519,0-4.92-.72-4.92-4.519V534.629h-3.518v-3h3.518v-6.2h3.4Z" style="fill: #181716"/>
    <path d="M1833.061,545.787c.119,3.039,2.759,4,5.558,4,2.12,0,5-.48,5-3.079,0-2.64-3.359-3.08-6.758-3.84-3.36-.759-6.759-1.879-6.759-5.838,0-4.16,4.119-5.879,7.719-5.879,4.559,0,8.2,1.439,8.478,6.478h-3.4c-.241-2.639-2.56-3.479-4.8-3.479-2.04,0-4.4.56-4.4,2.639,0,2.44,3.6,2.84,6.759,3.6,3.4.76,6.759,1.88,6.759,5.879,0,4.919-4.6,6.519-8.8,6.519-4.638,0-8.558-1.88-8.758-7Z" style="fill: #181716"/>
  </g>
  <rect x="1614.329" y="603.646" width="34.016" height="34.016" style="fill: #db2118"/>
  <g>
    <path d="M1662.743,609.1h3.8v28.555h-3.8Z" style="fill: #181716"/>
    <path d="M1672.383,616.981h3.2v3.279h.08a7.2,7.2,0,0,1,6.719-3.759c5.44,0,7.119,3.119,7.119,7.559v13.6h-3.4v-14a3.9,3.9,0,0,0-4.2-4.159c-4.12,0-6.12,2.759-6.12,6.478v11.678h-3.4Z" style="fill: #181716"/>
    <path d="M1713.1,637.657h-3.4v-2.8h-.08c-1.119,2.279-3.758,3.279-6.6,3.279-6.359,0-9.519-5.039-9.519-10.878s3.12-10.758,9.439-10.758c2.12,0,5.159.8,6.678,3.239h.08V609.1h3.4Zm-9.6-2.519c4.559,0,6.319-3.92,6.319-7.8,0-4.079-1.84-7.838-6.519-7.838-4.64,0-6.2,3.959-6.2,8C1697.1,631.379,1699.1,635.138,1703.5,635.138Z" style="fill: #181716"/>
    <path d="M1735.46,637.657h-3.2v-3.279h-.08a7.2,7.2,0,0,1-6.719,3.759c-5.439,0-7.119-3.119-7.119-7.558v-13.6h3.4v14a3.9,3.9,0,0,0,4.2,4.159c4.119,0,6.119-2.76,6.119-6.479V616.981h3.4Z" style="fill: #181716"/>
    <path d="M1742.662,631.138c.119,3.04,2.759,4,5.559,4,2.12,0,5-.48,5-3.08,0-2.639-3.359-3.079-6.759-3.839-3.359-.76-6.759-1.879-6.759-5.839,0-4.159,4.12-5.879,7.719-5.879,4.56,0,8.2,1.44,8.479,6.479h-3.4c-.24-2.639-2.559-3.479-4.8-3.479-2.04,0-4.4.559-4.4,2.639,0,2.44,3.6,2.84,6.759,3.6,3.4.76,6.759,1.88,6.759,5.879,0,4.92-4.6,6.519-8.8,6.519-4.639,0-8.559-1.879-8.758-7Z" style="fill: #181716"/>
    <path d="M1765.3,616.981h4.12v3h-4.12v12.838c0,1.56.44,1.84,2.56,1.84h1.56v3h-2.6c-3.52,0-4.92-.719-4.92-4.519V619.98h-3.519v-3h3.519v-6.2h3.4Z" style="fill: #181716"/>
    <path d="M1773.062,616.981h3.2v4.359h.08c1.64-3.319,3.92-4.959,7.6-4.839v3.6c-5.479,0-7.479,3.12-7.479,8.359v9.2h-3.4Z" style="fill: #181716"/>
    <path d="M1790.1,613.261h-3.4V609.1h3.4Zm-3.4,3.72h3.4v20.676h-3.4Z" style="fill: #181716"/>
    <path d="M1813.018,631.1c-.92,4.56-4.2,7.039-8.838,7.039-6.6,0-9.719-4.559-9.919-10.878,0-6.2,4.08-10.758,9.719-10.758,7.318,0,9.558,6.839,9.358,11.838h-15.477c-.121,3.6,1.92,6.8,6.439,6.8,2.8,0,4.759-1.36,5.358-4.04Zm-3.279-5.758a5.95,5.95,0,0,0-5.959-5.839c-3.56,0-5.679,2.679-5.919,5.839Z" style="fill: #181716"/>
  </g>
  <g>
    <path d="M1679.66,671.1c-.92,4.56-4.2,7.039-8.837,7.039-6.6,0-9.719-4.559-9.919-10.878,0-6.2,4.08-10.758,9.718-10.758,7.319,0,9.559,6.839,9.359,11.838H1664.5c-.12,3.6,1.92,6.8,6.44,6.8,2.8,0,4.758-1.36,5.358-4.04Zm-3.279-5.758a5.949,5.949,0,0,0-5.959-5.839c-3.559,0-5.679,2.679-5.919,5.839Z" style="fill: #181716"/>
    <path d="M1688.222,656.981h4.12v3h-4.12v12.838c0,1.56.44,1.84,2.559,1.84h1.561v3h-2.6c-3.519,0-4.919-.719-4.919-4.519V659.98H1681.3v-3h3.519v-6.2h3.4Z" style="fill: #181716"/>
    <path d="M1721.261,663.62a4.813,4.813,0,0,0-5.119-4.119c-4.92,0-6.44,3.879-6.44,8.078,0,3.8,1.72,7.559,6.039,7.559,3.28,0,5.24-1.92,5.679-5.039h3.48c-.76,5.039-3.919,8.038-9.119,8.038-6.319,0-9.678-4.4-9.678-10.558,0-6.2,3.2-11.078,9.759-11.078,4.678,0,8.438,2.2,8.918,7.119Z" style="fill: #181716"/>
    <path d="M1737.621,656.5c6.559,0,10.038,4.759,10.038,10.838,0,6.039-3.479,10.8-10.038,10.8s-10.039-4.759-10.039-10.8C1727.582,661.26,1731.062,656.5,1737.621,656.5Zm0,18.637c3.559,0,6.439-2.8,6.439-7.8,0-5.039-2.88-7.838-6.439-7.838s-6.439,2.8-6.439,7.838C1731.182,672.338,1734.062,675.138,1737.621,675.138Z" style="fill: #181716"/>
    <path d="M1751.661,656.981h3.2v3.279h.08a7.2,7.2,0,0,1,6.718-3.759c5.44,0,7.12,3.119,7.12,7.559v13.6h-3.4v-14a3.9,3.9,0,0,0-4.2-4.159c-4.119,0-6.119,2.759-6.119,6.478v11.678h-3.4Z" style="fill: #181716"/>
    <path d="M1775.982,671.138c.119,3.04,2.758,4,5.558,4,2.12,0,5-.48,5-3.08,0-2.639-3.359-3.079-6.758-3.839-3.36-.76-6.759-1.879-6.759-5.839,0-4.159,4.119-5.879,7.718-5.879,4.56,0,8.2,1.44,8.479,6.479h-3.4c-.241-2.639-2.56-3.479-4.8-3.479-2.04,0-4.4.559-4.4,2.639,0,2.44,3.6,2.84,6.759,3.6,3.4.76,6.759,1.88,6.759,5.879,0,4.92-4.6,6.519-8.8,6.519-4.639,0-8.559-1.879-8.758-7Z" style="fill: #181716"/>
    <path d="M1798.62,656.981h4.12v3h-4.12v12.838c0,1.56.441,1.84,2.56,1.84h1.56v3h-2.6c-3.52,0-4.92-.719-4.92-4.519V659.98H1791.7v-3h3.519v-6.2h3.4Z" style="fill: #181716"/>
    <path d="M1806.381,656.981h3.2v4.359h.08c1.64-3.319,3.92-4.959,7.6-4.839v3.6c-5.478,0-7.478,3.12-7.478,8.359v9.2h-3.4Z" style="fill: #181716"/>
    <path d="M1836.938,677.657h-3.2v-3.279h-.081a7.2,7.2,0,0,1-6.718,3.759c-5.44,0-7.119-3.119-7.119-7.558v-13.6h3.4v14a3.9,3.9,0,0,0,4.2,4.159c4.119,0,6.119-2.76,6.119-6.479V656.981h3.4Z" style="fill: #181716"/>
    <path d="M1856.1,663.62a4.813,4.813,0,0,0-5.119-4.119c-4.92,0-6.44,3.879-6.44,8.078,0,3.8,1.72,7.559,6.039,7.559,3.28,0,5.24-1.92,5.679-5.039h3.48c-.76,5.039-3.919,8.038-9.119,8.038-6.319,0-9.678-4.4-9.678-10.558,0-6.2,3.2-11.078,9.758-11.078,4.679,0,8.439,2.2,8.918,7.119Z" style="fill: #181716"/>
    <path d="M1868.259,656.981h4.12v3h-4.12v12.838c0,1.56.44,1.84,2.56,1.84h1.56v3h-2.6c-3.52,0-4.92-.719-4.92-4.519V659.98h-3.519v-3h3.519v-6.2h3.4Z" style="fill: #181716"/>
    <path d="M1879.739,653.261h-3.4V649.1h3.4Zm-3.4,3.72h3.4v20.676h-3.4Z" style="fill: #181716"/>
    <path d="M1893.939,656.5c6.558,0,10.038,4.759,10.038,10.838,0,6.039-3.48,10.8-10.038,10.8s-10.039-4.759-10.039-10.8C1883.9,661.26,1887.379,656.5,1893.939,656.5Zm0,18.637c3.558,0,6.438-2.8,6.438-7.8,0-5.039-2.88-7.838-6.438-7.838s-6.44,2.8-6.44,7.838C1887.5,672.338,1890.379,675.138,1893.939,675.138Z" style="fill: #181716"/>
    <path d="M1907.979,656.981h3.2v3.279h.08a7.2,7.2,0,0,1,6.719-3.759c5.439,0,7.119,3.119,7.119,7.559v13.6h-3.4v-14a3.9,3.9,0,0,0-4.2-4.159c-4.119,0-6.119,2.759-6.119,6.478v11.678h-3.4Z" style="fill: #181716"/>
  </g>
  <rect x="1614.329" y="728.998" width="34.016" height="34.016" style="fill: #00a4dd"/>
  <g>
    <path d="M1679.1,742.82c-.44-4.079-3.159-5.839-7.079-5.839-3.2,0-6.4,1.16-6.4,4.88,0,3.519,4.559,4.039,9.158,5.079,4.56,1.039,9.119,2.639,9.119,8.238,0,6.079-5.959,8.519-11.159,8.519-6.4,0-11.8-3.12-11.8-10.079h3.6c0,4.8,4,6.879,8.319,6.879,3.439,0,7.239-1.08,7.239-5.2,0-3.919-4.56-4.6-9.119-5.6s-9.159-2.319-9.159-7.559c0-5.8,5.16-8.358,10.359-8.358,5.839,0,10.278,2.759,10.518,9.038Z" style="fill: #181716"/>
    <path d="M1705.58,756.458c-.92,4.559-4.2,7.039-8.838,7.039-6.6,0-9.718-4.559-9.919-10.879,0-6.2,4.081-10.757,9.719-10.757,7.319,0,9.559,6.838,9.359,11.837h-15.478c-.12,3.6,1.92,6.8,6.44,6.8,2.8,0,4.758-1.36,5.358-4.039ZM1702.3,750.7a5.949,5.949,0,0,0-5.959-5.839c-3.56,0-5.679,2.679-5.919,5.839Z" style="fill: #181716"/>
    <path d="M1723.461,748.979a4.813,4.813,0,0,0-5.119-4.119c-4.92,0-6.439,3.879-6.439,8.079,0,3.8,1.719,7.558,6.039,7.558,3.279,0,5.239-1.92,5.678-5.039h3.48c-.76,5.039-3.919,8.039-9.118,8.039-6.32,0-9.679-4.4-9.679-10.558,0-6.2,3.2-11.078,9.759-11.078,4.678,0,8.438,2.2,8.918,7.118Z" style="fill: #181716"/>
    <path d="M1735.621,742.34h4.12v3h-4.12v12.837c0,1.561.441,1.84,2.56,1.84h1.56v3h-2.6c-3.52,0-4.92-.72-4.92-4.519V745.34H1728.7v-3h3.519v-6.2h3.4Z" style="fill: #181716"/>
    <path d="M1761.139,756.458c-.92,4.559-4.2,7.039-8.838,7.039-6.6,0-9.719-4.559-9.919-10.879,0-6.2,4.08-10.757,9.719-10.757,7.318,0,9.558,6.838,9.358,11.837h-15.477c-.12,3.6,1.92,6.8,6.439,6.8,2.8,0,4.759-1.36,5.359-4.039Zm-3.279-5.759a5.95,5.95,0,0,0-5.959-5.839c-3.56,0-5.679,2.679-5.919,5.839Z" style="fill: #181716"/>
    <path d="M1782.1,763.017h-3.2v-3.279h-.08a7.2,7.2,0,0,1-6.719,3.759c-5.44,0-7.119-3.12-7.119-7.559v-13.6h3.4v14a3.9,3.9,0,0,0,4.2,4.159c4.119,0,6.119-2.759,6.119-6.479V742.34h3.4Z" style="fill: #181716"/>
    <path d="M1787.1,742.34h3.2V746.7h.08c1.64-3.319,3.92-4.959,7.6-4.838v3.6c-5.479,0-7.479,3.119-7.479,8.359v9.2h-3.4Z" style="fill: #181716"/>
    <path d="M1830.138,763.017h-3.4v-2.8h-.081c-1.119,2.279-3.758,3.279-6.6,3.279-6.359,0-9.519-5.039-9.519-10.879s3.12-10.757,9.439-10.757c2.12,0,5.159.8,6.678,3.239h.081V734.462h3.4Zm-9.6-2.52c4.559,0,6.319-3.919,6.319-7.8,0-4.079-1.84-7.838-6.519-7.838-4.64,0-6.2,3.959-6.2,8C1814.141,756.738,1816.141,760.5,1820.54,760.5Z" style="fill: #181716"/>
    <path d="M1853.018,756.458c-.92,4.559-4.2,7.039-8.838,7.039-6.6,0-9.719-4.559-9.919-10.879,0-6.2,4.08-10.757,9.719-10.757,7.318,0,9.558,6.838,9.358,11.837h-15.477c-.121,3.6,1.92,6.8,6.439,6.8,2.8,0,4.759-1.36,5.358-4.039Zm-3.279-5.759a5.95,5.95,0,0,0-5.959-5.839c-3.56,0-5.679,2.679-5.919,5.839Z" style="fill: #181716"/>
  </g>
  <g>
    <path d="M1662.224,774.462h3.4v28.555h-3.4Z" style="fill: #181716"/>
    <path d="M1672.542,774.462h2.72V784.78h-2.72Z" style="fill: #181716"/>
    <path d="M1699.659,796.458c-.92,4.559-4.2,7.038-8.837,7.038-6.6,0-9.719-4.558-9.919-10.878,0-6.2,4.08-10.757,9.718-10.757,7.319,0,9.559,6.838,9.359,11.837H1684.5c-.12,3.6,1.92,6.8,6.44,6.8,2.8,0,4.758-1.359,5.358-4.039Zm-3.279-5.76a5.949,5.949,0,0,0-5.959-5.838c-3.559,0-5.679,2.679-5.919,5.838Zm-5.159-16.916h4.359l-5.239,5.719h-2.56Z" style="fill: #181716"/>
    <path d="M1703.5,782.34h3.2v3.28h.08a7.2,7.2,0,0,1,6.719-3.759c5.44,0,7.119,3.119,7.119,7.558v13.6h-3.4v-14a3.9,3.9,0,0,0-4.2-4.159c-4.119,0-6.119,2.759-6.119,6.479v11.678h-3.4Z" style="fill: #181716"/>
    <path d="M1743.379,796.458c-.92,4.559-4.2,7.038-8.838,7.038-6.6,0-9.718-4.558-9.919-10.878,0-6.2,4.08-10.757,9.719-10.757,7.318,0,9.559,6.838,9.358,11.837h-15.477c-.12,3.6,1.92,6.8,6.439,6.8,2.8,0,4.759-1.359,5.359-4.039Zm-3.279-5.76a5.949,5.949,0,0,0-5.959-5.838c-3.56,0-5.679,2.679-5.919,5.838Z" style="fill: #181716"/>
    <path d="M1747.1,782.34h3.2V786.7h.08c1.64-3.319,3.92-4.959,7.6-4.838v3.6c-5.479,0-7.479,3.119-7.479,8.359v9.2h-3.4Z" style="fill: #181716"/>
    <path d="M1777.3,801.257c0,6.719-3.079,10.158-9.6,10.158-3.878,0-8.358-1.559-8.558-6.079h3.4c.16,2.48,3.12,3.36,5.36,3.36,4.439,0,6.2-3.2,6.2-7.838V799.5h-.08a6.891,6.891,0,0,1-6.44,3.76c-6.158,0-9.238-4.84-9.238-10.478,0-4.879,2.4-10.918,9.559-10.918a6.749,6.749,0,0,1,6.159,3.439h.04v-2.96h3.2Zm-3.359-9c0-3.64-1.6-7.4-5.879-7.4-4.36,0-6.119,3.559-6.119,7.518,0,3.72,1.36,7.879,5.839,7.879S1773.94,796.138,1773.94,792.259Z" style="fill: #181716"/>
    <path d="M1786.021,778.621h-3.4v-4.159h3.4Zm-3.4,3.719h3.4v20.677h-3.4Z" style="fill: #181716"/>
    <path d="M1808.938,796.458c-.92,4.559-4.2,7.038-8.838,7.038-6.6,0-9.719-4.558-9.919-10.878,0-6.2,4.08-10.757,9.719-10.757,7.318,0,9.558,6.838,9.358,11.837h-15.477c-.121,3.6,1.919,6.8,6.439,6.8,2.8,0,4.759-1.359,5.358-4.039Zm-3.28-5.76a5.949,5.949,0,0,0-5.959-5.838c-3.559,0-5.678,2.679-5.918,5.838Z" style="fill: #181716"/>
    <path d="M1823.9,774.462h3.4V785.38h.08c1.12-2.48,4.039-3.519,6.519-3.519,5.439,0,7.119,3.119,7.119,7.558v13.6h-3.4v-14a3.9,3.9,0,0,0-4.2-4.159c-4.119,0-6.119,2.759-6.119,6.479v11.678h-3.4Z" style="fill: #181716"/>
    <path d="M1855.059,781.861c6.558,0,10.038,4.758,10.038,10.837,0,6.04-3.48,10.8-10.038,10.8s-10.039-4.758-10.039-10.8C1845.02,786.619,1848.5,781.861,1855.059,781.861Zm0,18.636c3.558,0,6.438-2.8,6.438-7.8,0-5.039-2.88-7.838-6.438-7.838s-6.44,2.8-6.44,7.838C1848.619,797.7,1851.5,800.5,1855.059,800.5Z" style="fill: #181716"/>
    <path d="M1868.98,782.34h3.2V786.7h.08c1.64-3.319,3.92-4.959,7.6-4.838v3.6c-5.479,0-7.479,3.119-7.479,8.359v9.2h-3.4Z" style="fill: #181716"/>
    <path d="M1884.5,796.5c.119,3.039,2.759,4,5.559,4,2.12,0,5-.479,5-3.079,0-2.639-3.359-3.08-6.759-3.84-3.359-.759-6.759-1.88-6.759-5.839,0-4.159,4.119-5.878,7.719-5.878,4.56,0,8.2,1.439,8.479,6.478h-3.4c-.24-2.639-2.559-3.479-4.8-3.479-2.04,0-4.4.56-4.4,2.639,0,2.44,3.6,2.84,6.759,3.6,3.4.76,6.758,1.88,6.758,5.879,0,4.919-4.6,6.518-8.8,6.518-4.639,0-8.559-1.879-8.758-7Z" style="fill: #181716"/>
  </g>
  <g>
    <path d="M1679.66,836.458c-.92,4.559-4.2,7.038-8.837,7.038-6.6,0-9.719-4.558-9.919-10.878,0-6.2,4.08-10.757,9.718-10.757,7.319,0,9.559,6.838,9.359,11.837H1664.5c-.12,3.6,1.92,6.8,6.44,6.8,2.8,0,4.758-1.359,5.358-4.039Zm-3.279-5.76a5.949,5.949,0,0,0-5.959-5.838c-3.559,0-5.679,2.679-5.919,5.838Zm-5.159-16.917h4.359l-5.239,5.72h-2.56Z" style="fill: #181716"/>
    <path d="M1683.7,814.461h3.4v28.556h-3.4Z" style="fill: #181716"/>
    <path d="M1710.02,836.458c-.92,4.559-4.2,7.038-8.838,7.038-6.6,0-9.719-4.558-9.919-10.878,0-6.2,4.08-10.757,9.719-10.757,7.318,0,9.558,6.838,9.358,11.837h-15.477c-.121,3.6,1.919,6.8,6.439,6.8,2.8,0,4.759-1.359,5.358-4.039Zm-3.28-5.76a5.949,5.949,0,0,0-5.959-5.838c-3.559,0-5.678,2.679-5.918,5.838Z" style="fill: #181716"/>
    <path d="M1727.9,828.979a4.815,4.815,0,0,0-5.119-4.119c-4.92,0-6.44,3.879-6.44,8.079,0,3.8,1.72,7.558,6.039,7.558,3.279,0,5.239-1.92,5.679-5.039h3.479c-.759,5.039-3.919,8.038-9.118,8.038-6.319,0-9.679-4.4-9.679-10.557,0-6.2,3.2-11.078,9.759-11.078,4.679,0,8.439,2.2,8.918,7.118Z" style="fill: #181716"/>
    <path d="M1740.061,822.34h4.12v3h-4.12v12.838c0,1.56.44,1.84,2.559,1.84h1.561v3h-2.6c-3.519,0-4.92-.72-4.92-4.52V825.34h-3.518v-3h3.518v-6.2h3.4Z" style="fill: #181716"/>
    <path d="M1747.821,822.34h3.2V826.7h.08c1.639-3.319,3.92-4.959,7.6-4.838v3.6c-5.478,0-7.478,3.119-7.478,8.359v9.2h-3.4Z" style="fill: #181716"/>
    <path d="M1764.861,818.621h-3.4v-4.16h3.4Zm-3.4,3.719h3.4v20.677h-3.4Z" style="fill: #181716"/>
    <path d="M1784.178,828.979a4.814,4.814,0,0,0-5.119-4.119c-4.92,0-6.44,3.879-6.44,8.079,0,3.8,1.72,7.558,6.039,7.558,3.28,0,5.24-1.92,5.679-5.039h3.48c-.76,5.039-3.919,8.038-9.119,8.038-6.319,0-9.678-4.4-9.678-10.557,0-6.2,3.2-11.078,9.759-11.078,4.678,0,8.438,2.2,8.918,7.118Z" style="fill: #181716"/>
    <path d="M1795.219,818.621h-3.4v-4.16h3.4Zm-3.4,3.719h3.4v20.677h-3.4Z" style="fill: #181716"/>
    <path d="M1805.218,822.34h4.12v3h-4.12v12.838c0,1.56.44,1.84,2.56,1.84h1.56v3h-2.6c-3.52,0-4.92-.72-4.92-4.52V825.34H1798.3v-3h3.519v-6.2h3.4Z" style="fill: #181716"/>
    <path d="M1830.736,836.458c-.92,4.559-4.2,7.038-8.838,7.038-6.6,0-9.719-4.558-9.919-10.878,0-6.2,4.08-10.757,9.719-10.757,7.318,0,9.558,6.838,9.358,11.837h-15.478c-.12,3.6,1.92,6.8,6.44,6.8,2.8,0,4.759-1.359,5.358-4.039Zm-3.28-5.76a5.949,5.949,0,0,0-5.959-5.838c-3.559,0-5.678,2.679-5.919,5.838Zm-5.159-16.917h4.359l-5.239,5.72h-2.559Z" style="fill: #181716"/>
  </g>
  <rect x="1614.329" y="894.35" width="34.016" height="34.016" style="fill: #fbd51d"/>
  <g>
    <path d="M1662.583,899.813H1675.1c5.679,0,8.758,3.16,8.758,8.439s-3.079,8.479-8.758,8.439h-8.719v11.677h-3.8Zm3.8,13.677h7.439c4.279.041,6.239-1.838,6.239-5.238s-1.96-5.239-6.239-5.239h-7.439Z" style="fill: #181716"/>
    <path d="M1687.823,907.692h3.2v4.359h.08c1.639-3.319,3.92-4.959,7.6-4.839v3.6c-5.478,0-7.478,3.119-7.478,8.358v9.2h-3.4Z" style="fill: #181716"/>
    <path d="M1709.5,907.212c6.559,0,10.038,4.759,10.038,10.838,0,6.039-3.479,10.8-10.038,10.8s-10.039-4.759-10.039-10.8C1699.463,911.971,1702.943,907.212,1709.5,907.212Zm0,18.637c3.559,0,6.439-2.8,6.439-7.8,0-5.039-2.88-7.839-6.439-7.839s-6.439,2.8-6.439,7.839C1703.063,923.049,1705.943,925.849,1709.5,925.849Z" style="fill: #181716"/>
    <path d="M1742.02,928.368h-3.4v-2.8h-.08c-1.119,2.28-3.759,3.279-6.6,3.279-6.359,0-9.519-5.039-9.519-10.878s3.12-10.758,9.439-10.758c2.12,0,5.159.8,6.678,3.239h.08V899.813h3.4Zm-9.6-2.519c4.559,0,6.318-3.919,6.318-7.8,0-4.079-1.839-7.839-6.518-7.839-4.64,0-6.2,3.96-6.2,8C1726.023,922.089,1728.023,925.849,1732.422,925.849Z" style="fill: #181716"/>
    <path d="M1764.379,928.368h-3.2v-3.279h-.08a7.2,7.2,0,0,1-6.719,3.759c-5.439,0-7.119-3.119-7.119-7.559v-13.6h3.4v14a3.9,3.9,0,0,0,4.2,4.159c4.119,0,6.119-2.76,6.119-6.479V907.692h3.4Z" style="fill: #181716"/>
    <path d="M1783.54,914.33a4.814,4.814,0,0,0-5.119-4.119c-4.92,0-6.439,3.88-6.439,8.079,0,3.8,1.719,7.559,6.039,7.559,3.279,0,5.239-1.92,5.678-5.039h3.48c-.76,5.039-3.919,8.038-9.118,8.038-6.32,0-9.679-4.4-9.679-10.558,0-6.2,3.2-11.078,9.759-11.078,4.679,0,8.438,2.2,8.918,7.118Z" style="fill: #181716"/>
    <path d="M1795.7,907.692h4.121v3H1795.7V923.53c0,1.559.441,1.839,2.56,1.839h1.561v3h-2.6c-3.52,0-4.92-.719-4.92-4.519V910.692h-3.519v-3h3.519v-6.2h3.4Z" style="fill: #181716"/>
    <path d="M1807.181,903.973h-3.4v-4.16h3.4Zm-3.4,3.719h3.4v20.676h-3.4Z" style="fill: #181716"/>
    <path d="M1821.379,907.212c6.559,0,10.038,4.759,10.038,10.838,0,6.039-3.479,10.8-10.038,10.8s-10.039-4.759-10.039-10.8C1811.34,911.971,1814.82,907.212,1821.379,907.212Zm0,18.637c3.559,0,6.439-2.8,6.439-7.8,0-5.039-2.88-7.839-6.439-7.839s-6.439,2.8-6.439,7.839C1814.94,923.049,1817.82,925.849,1821.379,925.849Z" style="fill: #181716"/>
    <path d="M1835.42,907.692h3.2v3.279h.08a7.2,7.2,0,0,1,6.719-3.759c5.44,0,7.119,3.119,7.119,7.559v13.6h-3.4v-14a3.9,3.9,0,0,0-4.2-4.159c-4.119,0-6.119,2.76-6.119,6.48v11.677h-3.4Z" style="fill: #181716"/>
  </g>
  <g>
    <path d="M1680.5,968.368h-3.4v-2.8h-.08c-1.119,2.28-3.759,3.279-6.6,3.279-6.358,0-9.518-5.039-9.518-10.878s3.12-10.758,9.438-10.758c2.12,0,5.159.8,6.679,3.239h.08V939.813h3.4Zm-9.6-2.519c4.558,0,6.318-3.919,6.318-7.8,0-4.079-1.84-7.839-6.519-7.839-4.639,0-6.2,3.96-6.2,8C1664.5,962.089,1666.5,965.849,1670.9,965.849Z" style="fill: #181716"/>
    <path d="M1687.383,939.813h2.72v10.318h-2.72Z" style="fill: #181716"/>
    <path d="M1714.5,961.81c-.92,4.558-4.2,7.038-8.838,7.038-6.6,0-9.718-4.559-9.919-10.878,0-6.2,4.08-10.758,9.719-10.758,7.319,0,9.559,6.839,9.359,11.838h-15.478c-.12,3.6,1.92,6.8,6.439,6.8,2.8,0,4.759-1.36,5.359-4.039Zm-3.279-5.76a5.95,5.95,0,0,0-5.959-5.839c-3.56,0-5.679,2.68-5.919,5.839Zm-5.159-16.917h4.359l-5.239,5.72h-2.56Z" style="fill: #181716"/>
    <path d="M1718.543,939.813h3.4v28.555h-3.4Z" style="fill: #181716"/>
    <path d="M1744.859,961.81c-.92,4.558-4.2,7.038-8.838,7.038-6.6,0-9.719-4.559-9.919-10.878,0-6.2,4.08-10.758,9.719-10.758,7.318,0,9.558,6.839,9.358,11.838H1729.7c-.12,3.6,1.92,6.8,6.44,6.8,2.8,0,4.759-1.36,5.358-4.039Zm-3.28-5.76a5.949,5.949,0,0,0-5.959-5.839c-3.559,0-5.678,2.68-5.919,5.839Z" style="fill: #181716"/>
    <path d="M1762.739,954.33a4.814,4.814,0,0,0-5.119-4.119c-4.92,0-6.439,3.88-6.439,8.079,0,3.8,1.72,7.559,6.039,7.559,3.279,0,5.239-1.92,5.679-5.039h3.479c-.76,5.039-3.919,8.038-9.118,8.038-6.319,0-9.679-4.4-9.679-10.558,0-6.2,3.2-11.078,9.759-11.078,4.679,0,8.439,2.2,8.918,7.118Z" style="fill: #181716"/>
    <path d="M1774.9,947.692h4.12v3h-4.12V963.53c0,1.559.44,1.839,2.559,1.839h1.561v3h-2.6c-3.519,0-4.92-.719-4.92-4.519V950.692h-3.518v-3h3.518v-6.2h3.4Z" style="fill: #181716"/>
    <path d="M1782.66,947.692h3.2v4.359h.08c1.639-3.319,3.92-4.959,7.6-4.839v3.6c-5.478,0-7.478,3.119-7.478,8.358v9.2h-3.4Z" style="fill: #181716"/>
    <path d="M1799.7,943.973h-3.4v-4.16h3.4Zm-3.4,3.719h3.4v20.676h-3.4Z" style="fill: #181716"/>
    <path d="M1819.018,954.33a4.815,4.815,0,0,0-5.119-4.119c-4.92,0-6.44,3.88-6.44,8.079,0,3.8,1.72,7.559,6.039,7.559,3.28,0,5.24-1.92,5.679-5.039h3.479c-.759,5.039-3.918,8.038-9.118,8.038-6.319,0-9.678-4.4-9.678-10.558,0-6.2,3.2-11.078,9.758-11.078,4.679,0,8.439,2.2,8.918,7.118Z" style="fill: #181716"/>
    <path d="M1830.059,943.973h-3.4v-4.16h3.4Zm-3.4,3.719h3.4v20.676h-3.4Z" style="fill: #181716"/>
    <path d="M1840.057,947.692h4.12v3h-4.12V963.53c0,1.559.44,1.839,2.559,1.839h1.561v3h-2.6c-3.519,0-4.92-.719-4.92-4.519V950.692h-3.518v-3h3.518v-6.2h3.4Z" style="fill: #181716"/>
    <path d="M1865.574,961.81c-.919,4.558-4.2,7.038-8.837,7.038-6.6,0-9.719-4.559-9.919-10.878,0-6.2,4.08-10.758,9.718-10.758,7.319,0,9.559,6.839,9.359,11.838h-15.478c-.12,3.6,1.92,6.8,6.44,6.8,2.8,0,4.758-1.36,5.358-4.039Zm-3.279-5.76a5.949,5.949,0,0,0-5.959-5.839c-3.559,0-5.679,2.68-5.919,5.839Zm-5.159-16.917h4.359l-5.239,5.72H1853.7Z" style="fill: #181716"/>
    <path d="M1874.9,944.332l4.279-1.6.8,1.92-4.36,1.519,2.64,3.64-1.64,1.239-2.759-3.839-2.6,3.839-1.8-1.239,2.6-3.64-4.239-1.519.719-1.92,4.24,1.6v-4.519h2.12Z" style="fill: #181716"/>
  </g>
  <line x1="111.686" y1="126.131" x2="111.686" y2="1149.819" style="fill: none;stroke: #181716;stroke-linejoin: round;stroke-width: 2.40000009536743px"/>
  <line x1="111.88" y1="127.33" x2="100.48" y2="127.33" style="fill: none;stroke: #181716;stroke-miterlimit: 10;stroke-width: 2.40000009536743px"/>
  <line x1="111.88" y1="227.824" x2="100.48" y2="227.824" style="fill: none;stroke: #181716;stroke-miterlimit: 10;stroke-width: 2.40000009536743px"/>
  <line x1="111.88" y1="333.117" x2="100.48" y2="333.117" style="fill: none;stroke: #181716;stroke-miterlimit: 10;stroke-width: 2.40000009536743px"/>
  <line x1="111.88" y1="433.611" x2="100.48" y2="433.611" style="fill: none;stroke: #181716;stroke-miterlimit: 10;stroke-width: 2.40000009536743px"/>
  <line x1="111.88" y1="536.149" x2="100.48" y2="536.149" style="fill: none;stroke: #181716;stroke-miterlimit: 10;stroke-width: 2.40000009536743px"/>
  <line x1="111.88" y1="636.643" x2="100.48" y2="636.643" style="fill: none;stroke: #181716;stroke-miterlimit: 10;stroke-width: 2.40000009536743px"/>
  <line x1="111.88" y1="741.937" x2="100.48" y2="741.937" style="fill: none;stroke: #181716;stroke-miterlimit: 10;stroke-width: 2.40000009536743px"/>
  <line x1="111.88" y1="842.429" x2="100.48" y2="842.429" style="fill: none;stroke: #181716;stroke-miterlimit: 10;stroke-width: 2.40000009536743px"/>
  <line x1="111.88" y1="943.713" x2="100.48" y2="943.713" style="fill: none;stroke: #181716;stroke-miterlimit: 10;stroke-width: 2.40000009536743px"/>
  <line x1="111.88" y1="1048.124" x2="100.48" y2="1048.124" style="fill: none;stroke: #181716;stroke-miterlimit: 10;stroke-width: 2.40000009536743px"/>
  <line x1="111.88" y1="1148.617" x2="100.48" y2="1148.617" style="fill: none;stroke: #181716;stroke-miterlimit: 10;stroke-width: 2.40000009536743px"/>
  <line x1="112.368" y1="1148.617" x2="1540.624" y2="1148.617" style="fill: none;stroke: #181716;stroke-linejoin: round;stroke-width: 2.40000009536743px"/>
</svg>
